<svg xmlns="http://www.w3.org/2000/svg" xmlns:xlink="http://www.w3.org/1999/xlink" width="64" height="22" version="1.1"><defs><radialGradient id="w" cx="42.5" cy="11" gradientTransform="matrix(11,0,0,10,-447,-99)" gradientUnits="userSpaceOnUse" xlink:href="#n"/><linearGradient id="n"><stop offset="0"/><stop offset=".6" stop-opacity=".706"/><stop offset="1" stop-opacity="0"/></linearGradient><radialGradient id="v" cx="42.5" cy="11" gradientTransform="matrix(11,0,0,10,-446,-99)" gradientUnits="userSpaceOnUse" xlink:href="#m"/><linearGradient id="m" stop-color="#fff"><stop offset="0"/><stop offset=".6" stop-opacity=".706"/><stop offset="1" stop-opacity="0"/></linearGradient><radialGradient id="u" cx="42.5" cy="11" gradientTransform="matrix(11,0,0,10,-451,-99)" gradientUnits="userSpaceOnUse" xlink:href="#n"/><radialGradient id="t" cx="42.5" cy="11" gradientTransform="matrix(11,0,0,10,-450,-99)" gradientUnits="userSpaceOnUse" xlink:href="#m"/><radialGradient id="s" cx="42.5" cy="11" gradientTransform="matrix(11,0,0,10,-455,-99)" gradientUnits="userSpaceOnUse" xlink:href="#n"/><radialGradient id="x" cx="42.5" cy="11" gradientTransform="matrix(11,0,0,10,-454,-99)" gradientUnits="userSpaceOnUse" xlink:href="#m"/><linearGradient id="p" x1="41" x2="41" y1="1" y2="28" gradientTransform="translate(-32,-1)" gradientUnits="userSpaceOnUse" stop-color="#fff"><stop offset="0"/><stop offset="1" stop-opacity="0"/></linearGradient><linearGradient id="q" x1="48" x2="48" y1="21" y2="2" gradientTransform="translate(-32,-1)" gradientUnits="userSpaceOnUse"><stop offset="0" stop-color="#a0a0a0"/><stop offset="1" stop-color="#dcdcdc"/></linearGradient><filter id="o" width="1.24" height="1.24" x="-.12" y="-.12" color-interpolation-filters="sRGB"><feGaussianBlur stdDeviation=".5"/></filter><linearGradient id="r" x1="40.812" x2="40.812" y1="18.5" y2=".5" gradientTransform="matrix(-1,0,0,-1,64.5,20.5)" gradientUnits="userSpaceOnUse"><stop offset="0" stop-color="#333"/><stop offset="1" stop-color="#555"/></linearGradient></defs><g color="#000"><path fill="url(#r)" d="m5 3c-1.1224 0-2 0.8776-2 2v12c0 1.1224 0.8776 2 2 2h54c1.1224 0 2-0.8776 2-2v-12c0-1.1224-0.878-2-2-2h-54z"/><path d="m5 2c-1.662 0-3 1.338-3 3v12c0 1.662 1.338 3 3 3h54c1.662 0 3-1.338 3-3v-12c0-1.662-1.338-3-3-3zm0 3h54v12h-54z" opacity=".08"/><path d="m5 2c-1.662 0-3 1.338-3 3v12c0 1.662 1.338 3 3 3h54c1.662 0 3-1.338 3-3v-12c0-1.662-1.338-3-3-3zm0 2h54c0.5825 0 1 0.4175 1 1v12c0 0.5825-0.4175 1-1 1h-54c-0.5825 0-1-0.418-1-1v-12c0-0.5825 0.4175-1 1-1z" opacity=".12"/><path fill="#fff" d="m5 2c-1.662 0-3 1.338-3 3v12c0 1.662 1.338 3 3 3h54c1.662 0 3-1.338 3-3v-12c0-1.662-1.338-3-3-3zm0 1h54c1.1174 0 2 0.88261 2 2v12c0 1.1174-0.88261 2-2 2h-54c-1.1174 0-2-0.883-2-2v-12c0-1.1174 0.8826-2 2-2z" opacity=".2"/><g opacity=".5"><path d="m47 6.5c-2.7614 0-5 2.2386-5 5s2.2386 5 5 5 5-2.2386 5-5-2.2386-5-5-5zm0 2c1.6569 0 3 1.3431 3 3s-1.3431 3-3 3-3-1.3431-3-3 1.3431-3 3-3z" filter="url(#o)" opacity=".5"/><path fill="#fff" d="m47 6c-2.7614 0-5 2.2386-5 5s2.2386 5 5 5 5-2.2386 5-5-2.2386-5-5-5zm0 2c1.6569 0 3 1.3431 3 3s-1.3431 3-3 3-3-1.3431-3-3 1.3431-3 3-3z"/></g><path d="m5-0.9375c-3.2559 0-5.9375 2.6816-5.9375 5.9375v12c0 3.2559 2.6816 5.9375 5.9375 5.9375h24c3.2559 0 5.9375-2.6816 5.9375-5.9375v-12c0-3.2559-2.682-5.9375-5.938-5.9375h-24z" opacity=".05"/><path d="m5 0c-2.7357 0-5 2.2643-5 5v12c0 2.7357 2.2643 5 5 5h24c2.7357 0 5-2.2643 5-5v-12c0-2.7357-2.264-5-5-5h-24z" opacity=".1"/><path d="m5 1.0312c-2.1742 0-3.9688 1.7946-3.9688 3.9688v12c0 2.1742 1.7946 3.9688 3.9688 3.9688h24c2.1742 0 3.9688-1.7946 3.9688-3.9688v-12c0-2.1742-1.795-3.9688-3.969-3.9688h-24z" opacity=".2"/><rect width="30" height="18" x="2" y="2" fill="url(#q)" rx="3" ry="3"/><path fill="url(#p)" d="m5 2c-1.662 0-3 1.338-3 3v12c0 1.662 1.338 3 3 3h24c1.662 0 3-1.338 3-3v-12c0-1.662-1.338-3-3-3zm0 1h24c1.1256 0 2 0.87439 2 2v12c0 1.1256-0.87439 2-2 2h-24c-1.1256 0-2-0.874-2-2v-12c0-1.1256 0.8744-2 2-2z" opacity=".6"/><rect width="1" height="10" x="13" y="6" fill="url(#x)" opacity=".4"/><rect width="1" height="10" x="12" y="6" fill="url(#s)" opacity=".2"/><rect width="1" height="10" x="17" y="6" fill="url(#t)" opacity=".4"/><rect width="1" height="10" x="16" y="6" fill="url(#u)" opacity=".2"/><rect width="1" height="10" x="21" y="6" fill="url(#v)" opacity=".4"/><rect width="1" height="10" x="20" y="6" fill="url(#w)" opacity=".2"/></g></svg>