<svg xmlns="http://www.w3.org/2000/svg" xmlns:xlink="http://www.w3.org/1999/xlink" width="64" height="22" version="1.1"><defs><linearGradient id="d"><stop offset="0"/><stop offset=".6" stop-opacity=".706"/><stop offset="1" stop-opacity="0"/></linearGradient><linearGradient id="c" stop-color="#fff"><stop offset="0"/><stop offset=".6" stop-opacity=".706"/><stop offset="1" stop-opacity="0"/></linearGradient><filter id="k" width="1.173" height="1.389" x="-.087" y="-.195" color-interpolation-filters="sRGB"><feGaussianBlur stdDeviation=".663"/></filter><radialGradient id="j" cx="42.5" cy="11" gradientTransform="matrix(11,0,0,10,-447,-99)" gradientUnits="userSpaceOnUse" xlink:href="#d"/><radialGradient id="i" cx="42.5" cy="11" gradientTransform="matrix(11,0,0,10,-446,-99)" gradientUnits="userSpaceOnUse" xlink:href="#c"/><radialGradient id="h" cx="42.5" cy="11" gradientTransform="matrix(11,0,0,10,-451,-99)" gradientUnits="userSpaceOnUse" xlink:href="#d"/><radialGradient id="g" cx="42.5" cy="11" gradientTransform="matrix(11,0,0,10,-450,-99)" gradientUnits="userSpaceOnUse" xlink:href="#c"/><radialGradient id="f" cx="42.5" cy="11" gradientTransform="matrix(11,0,0,10,-455,-99)" gradientUnits="userSpaceOnUse" xlink:href="#d"/><radialGradient id="e" cx="42.5" cy="11" gradientTransform="matrix(11,0,0,10,-454,-99)" gradientUnits="userSpaceOnUse" xlink:href="#c"/><linearGradient id="o" x1="41" x2="41" y1="1" y2="28" gradientTransform="translate(-32,-1)" gradientUnits="userSpaceOnUse" stop-color="#fff"><stop offset="0"/><stop offset="1" stop-opacity="0"/></linearGradient><linearGradient id="n" x1="48" x2="48" y1="21" y2="2" gradientTransform="translate(-32,-1)" gradientUnits="userSpaceOnUse"><stop offset="0" stop-color="#a0a0a0"/><stop offset="1" stop-color="#dcdcdc"/></linearGradient><linearGradient id="m" x1="2" x2="62" y1="11" y2="11" gradientUnits="userSpaceOnUse"><stop offset="0" stop-color="#333"/><stop offset="1" stop-color="#555" stop-opacity="0"/></linearGradient><linearGradient id="l" x1="40.812" x2="40.812" y1="18.5" y2=".5" gradientTransform="matrix(-1,0,0,-1,64.5,20.5)" gradientUnits="userSpaceOnUse"><stop offset="0" stop-color="#333"/><stop offset="1" stop-color="#555"/></linearGradient></defs><g color="#000"><path fill="url(#l)" d="m5 3c-1.1224 0-2 0.8776-2 2v12c0 1.1224 0.8776 2 2 2h54c1.1224 0 2-0.8776 2-2v-12c0-1.1224-0.878-2-2-2h-54z"/><path fill="url(#m)" d="m5 2c-1.662 0-3 1.338-3 3v12c0 1.662 1.338 3 3 3h54c1.662 0 3-1.338 3-3v-12c0-1.662-1.338-3-3-3zm0 3h54v12h-54z" opacity=".08"/><path d="m5 2c-1.662 0-3 1.338-3 3v12c0 1.662 1.338 3 3 3h54c1.662 0 3-1.338 3-3v-12c0-1.662-1.338-3-3-3zm0 2h54c0.5825 0 1 0.4175 1 1v12c0 0.5825-0.4175 1-1 1h-54c-0.5825 0-1-0.418-1-1v-12c0-0.5825 0.4175-1 1-1z" opacity=".12"/><path fill="#fff" d="m5 2c-1.662 0-3 1.338-3 3v12c0 1.662 1.338 3 3 3h54c1.662 0 3-1.338 3-3v-12c0-1.662-1.338-3-3-3zm0 1h54c1.1174 0 2 0.88261 2 2v12c0 1.1174-0.88261 2-2 2h-54c-1.1174 0-2-0.883-2-2v-12c0-1.1174 0.8826-2 2-2z" opacity=".2"/></g><g filter="url(#k)" opacity=".5"><path d="m41.231 15.621c-0.594 0-1.1073-0.10267-1.54-0.308-0.43267-0.20533-0.78834-0.48767-1.067-0.847-0.27867-0.36667-0.48767-0.79566-0.627-1.287-0.132-0.49866-0.198-1.0413-0.198-1.628-0.000001-0.58666 0.066-1.1293 0.198-1.628 0.13933-0.50599 0.34833-0.94233 0.627-1.309 0.27866-0.36666 0.63433-0.65266 1.067-0.858 0.43266-0.20533 0.946-0.30799 1.54-0.308 0.594 0.000008 1.1073 0.10267 1.54 0.308 0.43266 0.20534 0.78833 0.49134 1.067 0.858 0.27866 0.36667 0.48399 0.80301 0.616 1.309 0.13933 0.49867 0.20899 1.0413 0.209 1.628-0.000008 0.58667-0.06967 1.1293-0.209 1.628-0.13201 0.49134-0.33734 0.92033-0.616 1.287-0.27867 0.35933-0.63434 0.64167-1.067 0.847-0.43267 0.20533-0.946 0.308-1.54 0.308m0-1.342c1.1367 0.000001 1.705-0.90933 1.705-2.728-0.000006-0.90933-0.13934-1.5913-0.418-2.046-0.27134-0.45466-0.69667-0.68199-1.276-0.682-1.1513 0.0000066-1.727 0.90934-1.727 2.728-0.000003 1.8187 0.572 2.728 1.716 2.728"/><path d="m46 7.5801h4.488c0.044 0.22001 0.066 0.44367 0.066 0.671-0.000005 0.24201-0.02201 0.47301-0.066 0.693h-2.882v1.859h2.288c0.044 0.23467 0.066 0.462 0.066 0.682-0.000005 0.23467-0.02201 0.46567-0.066 0.693h-2.288v3.311c-0.27867 0.044-0.54267 0.066-0.792 0.066-0.27134 0-0.54267-0.022-0.814-0.066v-7.909"/><path d="m51.586 7.5801h4.488c0.04399 0.22001 0.06599 0.44367 0.066 0.671-0.000006 0.24201-0.02201 0.47301-0.066 0.693h-2.882v1.859h2.288c0.04399 0.23467 0.066 0.462 0.066 0.682-0.000005 0.23467-0.02201 0.46567-0.066 0.693h-2.288v3.311c-0.27867 0.044-0.54267 0.066-0.792 0.066-0.27134 0-0.54267-0.022-0.814-0.066v-7.909"/></g><g fill="#fff" opacity=".5"><path d="m41.231 14.821c-0.594 0-1.1073-0.10267-1.54-0.308-0.43267-0.20533-0.78834-0.48767-1.067-0.847-0.27867-0.36667-0.48767-0.79566-0.627-1.287-0.132-0.49866-0.198-1.0413-0.198-1.628-0.000001-0.58666 0.066-1.1293 0.198-1.628 0.13933-0.50599 0.34833-0.94233 0.627-1.309 0.27866-0.36666 0.63433-0.65266 1.067-0.858 0.43266-0.20533 0.946-0.30799 1.54-0.308 0.594 0.000008 1.1073 0.10267 1.54 0.308 0.43266 0.20534 0.78833 0.49134 1.067 0.858 0.27866 0.36667 0.48399 0.80301 0.616 1.309 0.13933 0.49867 0.20899 1.0413 0.209 1.628-0.000008 0.58667-0.06967 1.1293-0.209 1.628-0.13201 0.49134-0.33734 0.92033-0.616 1.287-0.27867 0.35933-0.63434 0.64167-1.067 0.847-0.43267 0.20533-0.946 0.308-1.54 0.308m0-1.342c1.1367 0.000001 1.705-0.90933 1.705-2.728-0.000006-0.90933-0.13934-1.5913-0.418-2.046-0.27134-0.45466-0.69667-0.68199-1.276-0.682-1.1513 0.0000066-1.727 0.90934-1.727 2.728-0.000003 1.8187 0.572 2.728 1.716 2.728"/><path d="m46 6.7804h4.488c0.044 0.22001 0.066 0.44367 0.066 0.671-0.000005 0.24201-0.02201 0.47301-0.066 0.693h-2.882v1.859h2.288c0.044 0.23467 0.066 0.462 0.066 0.682-0.000005 0.23467-0.02201 0.46567-0.066 0.693h-2.288v3.311c-0.27867 0.044-0.54267 0.066-0.792 0.066-0.27134 0-0.54267-0.022-0.814-0.066v-7.909"/><path d="m51.586 6.7804h4.488c0.04399 0.22001 0.06599 0.44367 0.066 0.671-0.000006 0.24201-0.02201 0.47301-0.066 0.693h-2.882v1.859h2.288c0.04399 0.23467 0.066 0.462 0.066 0.682-0.000005 0.23467-0.02201 0.46567-0.066 0.693h-2.288v3.311c-0.27867 0.044-0.54267 0.066-0.792 0.066-0.27134 0-0.54267-0.022-0.814-0.066v-7.909"/></g><g color="#000"><path d="m5-0.9375c-3.2559 0-5.9375 2.6816-5.9375 5.9375v12c0 3.2559 2.6816 5.9375 5.9375 5.9375h24c3.2559 0 5.9375-2.6816 5.9375-5.9375v-12c0-3.2559-2.682-5.9375-5.938-5.9375h-24z" opacity=".05"/><path d="m5 0c-2.7357 0-5 2.2643-5 5v12c0 2.7357 2.2643 5 5 5h24c2.7357 0 5-2.2643 5-5v-12c0-2.7357-2.264-5-5-5h-24z" opacity=".1"/><path d="m5 1.0312c-2.1742 0-3.9688 1.7946-3.9688 3.9688v12c0 2.1742 1.7946 3.9688 3.9688 3.9688h24c2.1742 0 3.9688-1.7946 3.9688-3.9688v-12c0-2.1742-1.795-3.9688-3.969-3.9688h-24z" opacity=".2"/><rect width="30" height="18" x="2" y="2" fill="url(#n)" rx="3" ry="3"/><path fill="url(#o)" d="m5 2c-1.662 0-3 1.338-3 3v12c0 1.662 1.338 3 3 3h24c1.662 0 3-1.338 3-3v-12c0-1.662-1.338-3-3-3zm0 1h24c1.1256 0 2 0.87439 2 2v12c0 1.1256-0.87439 2-2 2h-24c-1.1256 0-2-0.874-2-2v-12c0-1.1256 0.8744-2 2-2z" opacity=".6"/><rect width="1" height="10" x="13" y="6" fill="url(#e)" opacity=".4"/><rect width="1" height="10" x="12" y="6" fill="url(#f)" opacity=".2"/><rect width="1" height="10" x="17" y="6" fill="url(#g)" opacity=".4"/><rect width="1" height="10" x="16" y="6" fill="url(#h)" opacity=".2"/><rect width="1" height="10" x="21" y="6" fill="url(#i)" opacity=".4"/><rect width="1" height="10" x="20" y="6" fill="url(#j)" opacity=".2"/></g></svg>