<svg xmlns="http://www.w3.org/2000/svg" xmlns:svg="http://www.w3.org/2000/svg" xmlns:xlink="http://www.w3.org/1999/xlink" id="svg2" width="16" height="16" version="1.1"><defs id="defs4"><linearGradient id="linearGradient4024"><stop id="stop4026" offset="0" stop-color="#000" stop-opacity=".25"/><stop id="stop4028" offset="1" stop-color="#000" stop-opacity=".4"/></linearGradient><linearGradient id="linearGradient3784"><stop id="stop3786" offset="0" stop-color="#000" stop-opacity=".08"/><stop id="stop3789" offset="1" stop-color="#000" stop-opacity="0"/></linearGradient><linearGradient id="linearGradient3770"><stop id="stop3772" offset="0" stop-color="#ccc" stop-opacity="1"/><stop id="stop3778" offset=".173" stop-color="#f5f5f5" stop-opacity="1"/><stop id="stop3774" offset="1" stop-color="#f5f5f5" stop-opacity="1"/></linearGradient><linearGradient id="linearGradient3767"><stop id="stop3769" offset="0" stop-color="#000" stop-opacity=".06"/><stop id="stop3771" offset="1" stop-color="#000" stop-opacity=".02"/></linearGradient><linearGradient id="linearGradient3761"><stop id="stop3764" offset="0" stop-color="#020202" stop-opacity="1"/><stop id="stop3766" offset="1" stop-color="#000" stop-opacity="1"/></linearGradient><linearGradient id="linearGradient3786"><stop id="stop3788" offset="0" stop-color="#000" stop-opacity=".8"/><stop id="stop3790" offset="1" stop-color="#000" stop-opacity="1"/></linearGradient><linearGradient id="linearGradient3759"><stop id="stop3761" offset="0" stop-color="#fff" stop-opacity="0"/><stop id="stop3763" offset="1" stop-color="#fff" stop-opacity=".3"/></linearGradient><linearGradient id="linearGradient3765" x1="8.05" x2="8.05" y1="1044.092" y2="1052.461" gradientTransform="matrix(0.86666666,0,0,0.93333217,0.0666667,70.125364)" gradientUnits="userSpaceOnUse" xlink:href="#linearGradient3759"/><linearGradient id="linearGradient3792" x1="7.945" x2="8.04" y1="1037.417" y2="1051.256" gradientUnits="userSpaceOnUse" xlink:href="#linearGradient3786"/><linearGradient id="linearGradient3780" x1="8.029" x2="8.029" y1="1038.428" y2="1050.33" gradientTransform="matrix(0.99999998,0,0,1.0000016,7.9584105e-8,-0.00155298)" gradientUnits="userSpaceOnUse" xlink:href="#linearGradient3767"/><linearGradient id="linearGradient3791" x1="7.96" x2="7.96" y1="1038.447" y2="1041.303" gradientTransform="translate(-1,0)" gradientUnits="userSpaceOnUse" xlink:href="#linearGradient3784"/><linearGradient id="linearGradient4030" x1="8" x2="8" y1="1040.362" y2="1048.362" gradientTransform="translate(-1,0)" gradientUnits="userSpaceOnUse" xlink:href="#linearGradient4024"/></defs><metadata id="metadata7"/><g id="layer1" transform="translate(0,-1036.3622)"><rect id="rect3788" width="12" height="12" x="1" y="1038.362" fill="#e0e0e0" fill-opacity="1" stroke="none" rx="1.504" ry="1.509"/><rect id="rect3757" width="13" height="14" x=".5" y="1037.862" fill="none" stroke="url(#linearGradient3765)" stroke-opacity="1" stroke-width="1" rx="2.464" ry="2.487"/><rect id="rect3782" width="12" height="12" x="1" y="1038.362" fill="url(#linearGradient3791)" fill-opacity="1" stroke="none" rx="1.504" ry="1.509"/><rect id="rect3755" width="13" height="13" x=".5" y="1037.862" fill="none" stroke="#b0b0b0" stroke-linecap="butt" stroke-linejoin="miter" stroke-opacity="1" stroke-width="1" rx="2" ry="2"/><rect id="rect3765" width="11" height="11" x="2.5" y="1038.862" fill="none" stroke="url(#linearGradient3780)" stroke-opacity="1" stroke-width="1" display="none" rx=".945" ry="1.009"/><rect id="rect4022" width="8" height="8" x="3" y="1040.362" fill="url(#linearGradient4030)" fill-opacity="1" stroke="none" opacity=".1"/><path id="rect3812" fill="#b2b2b2" fill-opacity="1" stroke="none" d="m 4,1041.3622 0,2 1,0 0,2 -1,0 0,2 2,0 0,-1 2,0 0,1 2,0 0,-2 -1,0 0,-2 1,0 0,-2 -2,0 0,1 -2,0 0,-1 -2,0 z"/></g></svg>