<svg xmlns="http://www.w3.org/2000/svg" xmlns:svg="http://www.w3.org/2000/svg" xmlns:xlink="http://www.w3.org/1999/xlink" id="svg3806" width="16" height="16" version="1.1"><defs id="defs3808"><linearGradient id="linearGradient4422"><stop id="stop4424" offset="0" stop-color="#000" stop-opacity=".25"/><stop id="stop4426" offset="1" stop-color="#000" stop-opacity=".4"/></linearGradient><linearGradient id="linearGradient4391"><stop id="stop4393" offset="0" stop-color="#000" stop-opacity=".08"/><stop id="stop4395" offset="1" stop-color="#000" stop-opacity="0"/></linearGradient><linearGradient id="linearGradient4381"><stop id="stop4383" offset="0" stop-color="#000" stop-opacity=".25"/><stop id="stop4385" offset="1" stop-color="#000" stop-opacity=".4"/></linearGradient><linearGradient id="linearGradient4352"><stop id="stop4354" offset="0" stop-color="#f5f5f5" stop-opacity="1"/><stop id="stop4356" offset="1" stop-color="#d9d9d9" stop-opacity="1"/></linearGradient><linearGradient id="linearGradient4342"><stop id="stop4344" offset="0" stop-color="#fff" stop-opacity="0"/><stop id="stop4346" offset="1" stop-color="#fff" stop-opacity=".5"/></linearGradient><linearGradient id="linearGradient4332"><stop id="stop4334" offset="0" stop-color="#000" stop-opacity=".06"/><stop id="stop4336" offset="1" stop-color="#000" stop-opacity=".02"/></linearGradient><linearGradient id="linearGradient4338" x1="9" x2="9" y1="2.545" y2="13.455" gradientUnits="userSpaceOnUse" xlink:href="#linearGradient4332"/><linearGradient id="linearGradient4348" x1="8" x2="8" y1=".462" y2="14.462" gradientUnits="userSpaceOnUse" xlink:href="#linearGradient4342"/><linearGradient id="linearGradient4397" x1="8" x2="8" y1="1" y2="4.5" gradientUnits="userSpaceOnUse" xlink:href="#linearGradient4391"/><linearGradient id="linearGradient4428" x1="8" x2="8" y1="1042.362" y2="1046.362" gradientTransform="matrix(0.89898475,0,0,1.2841042,0.87125657,-296.70767)" gradientUnits="userSpaceOnUse" xlink:href="#linearGradient4422"/></defs><metadata id="metadata3811"/><g id="layer1" transform="translate(0,-1036.3622)"><path id="path4340" fill="none" fill-opacity="1" stroke="url(#linearGradient4348)" stroke-opacity="1" stroke-width="1.077" d="M 15,8 A 7,7 0 1 1 1,8 7,7 0 1 1 15,8 z" transform="matrix(0.92857142,0,0,0.92857245,0.57142866,1037.9336)"/><path id="path4328" fill="#aacb88" fill-opacity="1" stroke="#666" stroke-opacity="1" stroke-width="1.077" d="M 15,8 A 7,7 0 1 1 1,8 7,7 0 1 1 15,8 z" transform="matrix(0.92857142,0,0,0.92857245,0.57142862,1036.9336)"/><path id="path4330" fill="none" fill-opacity="1" stroke="url(#linearGradient4338)" stroke-dasharray="none" stroke-miterlimit="4" stroke-opacity="1" stroke-width=".909" d="M 14,8 A 5,5 0 1 1 4,8 5,5 0 1 1 14,8 z" transform="matrix(1.1,0,0,1.1,-1.9,1035.5622)"/><path id="path4389" fill="url(#linearGradient4397)" fill-opacity="1" stroke="none" d="M 15,8 A 7,7 0 1 1 1,8 7,7 0 1 1 15,8 z" transform="matrix(0.85714286,0,0,0.8571449,1.1428571,1037.505)"/><rect id="rect4420" width="8.99" height="5.136" x="3.568" y="1041.794" fill="url(#linearGradient4428)" fill-opacity="1" stroke="none"/><rect id="rect4418" width="7.148" height="3.01" x="4.41" y="1042.826" fill="#f5f5f5" fill-opacity="1" stroke="none"/></g></svg>