<svg xmlns="http://www.w3.org/2000/svg" xmlns:svg="http://www.w3.org/2000/svg" id="svg11300" width="24" height="24" display="inline" enable-background="new" version="1.0"><metadata id="metadata4"/><g id="layer1" display="inline" transform="translate(0,-276)"><path id="rect5800" fill="#fff" fill-opacity="1" stroke="none" d="M 4 1 C 2.338 1 1 2.338 1 4 L 1 20 C 1 21.662 2.338 23 4 23 L 20 23 C 21.662 23 23 21.662 23 20 L 23 4 C 23 2.338 21.662 1 20 1 L 4 1 z M 4 2 L 20 2 C 21.108 2 22 2.892 22 4 L 22 20 C 22 21.108 21.108 22 20 22 L 4 22 C 2.892 22 2 21.108 2 20 L 2 4 C 2 2.892 2.892 2 4 2 z" opacity=".2" transform="translate(0,276)"/><rect id="rect4201" width="20" height="20" x="2" y="278" fill="#bebebe" fill-opacity="1" stroke="none" opacity=".15" rx="2" ry="2"/></g></svg>