<svg xmlns="http://www.w3.org/2000/svg" xmlns:xlink="http://www.w3.org/1999/xlink" id="Layer_2" width="48" height="20" x="0" y="0" enable-background="new 0 0 48 20" version="1.1" viewBox="0 0 48 20" xml:space="preserve"><g><g><linearGradient id="SVGID_1_" x1="14.312" x2="14.312" y1="1.542" y2="18.459" gradientUnits="userSpaceOnUse"><stop offset=".031" stop-color="#BCBEC0"/><stop offset=".265" stop-color="#ABAEB0"/><stop offset=".744" stop-color="#848688"/><stop offset="1" stop-color="#6D6E71"/></linearGradient><path fill="url(#SVGID_1_)" d="M0.458,10c0,4.671,4.402,8.458,9.833,8.458h11.965l5.911-16.916H0.458 C0.458,7.916,0.458,5.329,0.458,10L0.458,10z"/><linearGradient id="SVGID_2_" x1="34.876" x2="34.876" y1="1.542" y2="18.459" gradientUnits="userSpaceOnUse"><stop offset="0" stop-color="#FFF"/><stop offset=".262" stop-color="#EBEBEB"/><stop offset=".797" stop-color="#B7B7B7"/><stop offset="1" stop-color="#A2A2A2"/></linearGradient><path fill="url(#SVGID_2_)" d="M22.209,18.458h15.5c5.431,0,9.833-3.787,9.833-8.458l0,0c0-4.671-4.402-8.458-9.833-8.458h-9.785 L22.209,18.458z"/></g><g><image width="80" height="63" overflow="visible" transform="matrix(0.24 0 0 0.24 4.3784 2.0234)" xlink:href="ED202726.png"/><g><polyline fill="none" stroke="#000" stroke-miterlimit="10" stroke-width="3" points="8.264 8.9 12.623 12.088 19.38 6.15"/></g></g></g></svg>