<svg xmlns="http://www.w3.org/2000/svg" xmlns:xlink="http://www.w3.org/1999/xlink" id="Layer_2" width="48" height="20" x="0" y="0" enable-background="new 0 0 48 20" version="1.1" viewBox="0 0 48 20" xml:space="preserve"><g><g><linearGradient id="SVGID_1_" x1="14.312" x2="14.312" y1="1.542" y2="18.459" gradientUnits="userSpaceOnUse"><stop offset="0" stop-color="#FFF"/><stop offset=".262" stop-color="#EBEBEB"/><stop offset=".797" stop-color="#B7B7B7"/><stop offset="1" stop-color="#A2A2A2"/></linearGradient><path fill="url(#SVGID_1_)" d="M0.458,10c0,4.671,4.402,8.458,9.833,8.458h17.876V1.542H0.458C0.458,7.917,0.458,5.329,0.458,10 L0.458,10z"/><linearGradient id="SVGID_2_" x1="35.027" x2="35.027" y1="1.542" y2="18.459" gradientUnits="userSpaceOnUse"><stop offset=".031" stop-color="#BCBEC0"/><stop offset=".265" stop-color="#ABAEB0"/><stop offset=".744" stop-color="#848688"/><stop offset="1" stop-color="#6D6E71"/></linearGradient><path fill="url(#SVGID_2_)" d="M27.924,18.459h9.785c5.431,0,9.833-3.787,9.833-8.458l0,0c0-4.672-4.402-8.459-9.833-8.459H22.512 L27.924,18.459z"/></g><g><image width="75" height="72" opacity=".88" overflow="visible" transform="matrix(0.24 0 0 0.24 26.0166 1.4468)" xlink:href="2FCC1D69.png"/><g><g><line x1="39.988" x2="30.012" y1="5.575" y2="14.312" fill="none" stroke="#000" stroke-miterlimit="10" stroke-width="3"/><line x1="30.012" x2="39.988" y1="5.575" y2="14.425" fill="none" stroke="#000" stroke-miterlimit="10" stroke-width="3"/></g></g></g></g></svg>