<svg xmlns="http://www.w3.org/2000/svg" xmlns:svg="http://www.w3.org/2000/svg" xmlns:xlink="http://www.w3.org/1999/xlink" id="svg2985" width="222" height="120" version="1.1"><defs id="defs2987"><linearGradient id="linearGradient3759"><stop id="stop3761" offset="0" stop-color="#333" stop-opacity="1"/><stop id="stop3763" offset="1" stop-color="#464646" stop-opacity="1"/></linearGradient><linearGradient id="linearGradient3765"><stop id="stop3767" offset="0" stop-color="#fff" stop-opacity="1"/><stop id="stop3769" offset="1" stop-color="#ababab" stop-opacity="1"/></linearGradient><linearGradient id="linearGradient3771" x1="50" x2="50" y1="-1" y2="48" gradientTransform="matrix(2.2653064,0,0,2.2962964,-2.3278064,-69.641204)" gradientUnits="userSpaceOnUse" xlink:href="#linearGradient3765"/><linearGradient id="linearGradient3766" x1="110" x2="110" y1="-47" y2="23" gradientUnits="userSpaceOnUse" xlink:href="#linearGradient3759"/></defs><metadata id="metadata2990"/><g id="layer1" transform="translate(0.0625,71.9375)"><rect id="rect3763" width="222" height="124" x="-.063" y="-71.938" fill="url(#linearGradient3771)" fill-opacity="1" stroke="#1d70f8" stroke-dasharray="none" stroke-dashoffset="0" stroke-linejoin="round" stroke-miterlimit="4" stroke-opacity="1" stroke-width="0" rx="4" ry="4"/><path id="rect2993-2" fill="#eee" fill-opacity="1" fill-rule="nonzero" stroke="none" stroke-width="1.5" d="m 99.826406,-46.492607 c -2.462227,0 -4.444444,1.982217 -4.444444,4.444446 l 0,4.444445 -8.88889,0 c -2.462228,0 -4.444445,1.982217 -4.444445,4.444445 l 0,4.444444 57.777743,0 0,-4.444444 c 0,-2.462228 -1.98221,-4.444445 -4.44441,-4.444445 l -8.88893,0 0,-4.444445 c 0,-2.462229 -1.98222,-4.444446 -4.44442,-4.444446 z m 4.444434,4.444446 13.33335,0 0,4.444445 -13.33335,0 z m -17.777768,17.777778 0,42.222221 c 0,3.693331 2.973331,6.666662 6.666662,6.666662 l 35.555596,0 c 3.69331,0 6.66663,-2.973331 6.66663,-6.666662 l 0,-42.222221 z m 11.111107,8.88889 c 1.231114,0 2.222227,0.991104 2.222227,2.222218 l 0,26.666669 c 0,1.231113 -0.991113,2.222217 -2.222227,2.222217 -1.231113,0 -2.222217,-0.991104 -2.222217,-2.222217 l 0,-26.666669 c 0,-1.231114 0.991104,-2.222218 2.222217,-2.222218 z m 8.888881,0 c 1.2311,0 2.2222,0.991104 2.2222,2.222218 l 0,26.666669 c 0,1.231113 -0.9911,2.222217 -2.2222,2.222217 -1.2311,0 -2.22222,-0.991104 -2.22222,-2.222217 l 0,-26.666669 c 0,-1.231114 0.99112,-2.222218 2.22222,-2.222218 z m 8.88893,0 c 1.2311,0 2.2222,0.991104 2.2222,2.222218 l 0,26.666669 c 0,1.231113 -0.9911,2.222217 -2.2222,2.222217 -1.23111,0 -2.22222,-0.991104 -2.22222,-2.222217 l 0,-26.666669 c 0,-1.231114 0.99111,-2.222218 2.22222,-2.222218 z m 8.88882,0 c 1.23111,0 2.22222,0.991104 2.22222,2.222218 l 0,26.666669 c 0,1.231113 -0.99111,2.222217 -2.22222,2.222217 -1.2311,0 -2.2222,-0.991104 -2.2222,-2.222217 l 0,-26.666669 c 0,-1.231114 0.9911,-2.222218 2.2222,-2.222218 z" color="#000" display="inline" enable-background="accumulate" overflow="visible" visibility="visible" style="marker:none"/><path id="rect2993" fill="url(#linearGradient3766)" fill-opacity="1" fill-rule="nonzero" stroke="none" stroke-width="1.5" d="m 99.826406,-47.493059 c -2.462227,0 -4.444444,1.982227 -4.444444,4.444444 l 0,4.444445 -8.88889,0 c -2.462228,0 -4.444445,1.982228 -4.444445,4.444445 l 0,4.444446 57.777743,0 0,-4.444446 c 0,-2.462217 -1.98221,-4.444445 -4.44441,-4.444445 l -8.88893,0 0,-4.444445 c 0,-2.462217 -1.98222,-4.444444 -4.44442,-4.444444 z m 4.444434,4.444444 13.33335,0 0,4.444445 -13.33335,0 z m -17.777768,17.77778 0,42.22222 c 0,3.693338 2.973331,6.666673 6.666662,6.666673 l 35.555596,0 c 3.69331,0 6.66663,-2.973335 6.66663,-6.666673 l 0,-42.22222 z m 11.111107,8.888889 c 1.231114,0 2.222227,0.991114 2.222227,2.222227 l 0,26.66666 c 0,1.231113 -0.991113,2.222227 -2.222227,2.222227 -1.231113,0 -2.222217,-0.991114 -2.222217,-2.222227 l 0,-26.66666 c 0,-1.231113 0.991104,-2.222227 2.222217,-2.222227 z m 8.888881,0 c 1.2311,0 2.2222,0.991114 2.2222,2.222227 l 0,26.66666 c 0,1.231113 -0.9911,2.222227 -2.2222,2.222227 -1.2311,0 -2.22222,-0.991114 -2.22222,-2.222227 l 0,-26.66666 c 0,-1.231113 0.99112,-2.222227 2.22222,-2.222227 z m 8.88893,0 c 1.2311,0 2.2222,0.991114 2.2222,2.222227 l 0,26.66666 c 0,1.231113 -0.9911,2.222227 -2.2222,2.222227 -1.23111,0 -2.22222,-0.991114 -2.22222,-2.222227 l 0,-26.66666 c 0,-1.231113 0.99111,-2.222227 2.22222,-2.222227 z m 8.88882,0 c 1.23111,0 2.22222,0.991114 2.22222,2.222227 l 0,26.66666 c 0,1.231113 -0.99111,2.222227 -2.22222,2.222227 -1.2311,0 -2.2222,-0.991114 -2.2222,-2.222227 l 0,-26.66666 c 0,-1.231113 0.9911,-2.222227 2.2222,-2.222227 z" color="#000" display="inline" enable-background="accumulate" overflow="visible" visibility="visible" style="marker:none"/></g></svg>