<svg xmlns="http://www.w3.org/2000/svg" xmlns:svg="http://www.w3.org/2000/svg" id="svg11300" width="24" height="24" display="inline" enable-background="new" version="1.0"><metadata id="metadata4"/><g id="layer1" display="inline" transform="translate(0,-276)"><rect id="rect4136" width="22" height="24" x="1" y="276" fill="#fff" fill-opacity="1" fill-rule="nonzero" stroke="none" stroke-dasharray="none" stroke-dashoffset="15.6" stroke-linecap="round" stroke-linejoin="round" stroke-miterlimit="4" stroke-opacity="1" stroke-width="1" opacity=".16"/><path id="rect4138" fill="#fff" fill-opacity="1" fill-rule="nonzero" stroke="none" stroke-dasharray="none" stroke-dashoffset="15.6" stroke-linecap="round" stroke-linejoin="round" stroke-miterlimit="4" stroke-opacity="1" stroke-width="1" d="M 0 0 L 0 24 L 1 24 L 1 0 L 0 0 z M 23 0 L 23 24 L 24 24 L 24 0 L 23 0 z" opacity=".24" transform="translate(0,276)"/><g id="g4228" display="inline" transform="translate(0,276)"><g id="layer1-5" display="inline" transform="translate(0,-276)"><rect id="rect2995" width="24" height="2" x="-24" y="276" fill="#8abf5c" fill-opacity="1" stroke="none" opacity=".9" transform="scale(-1,1)"/><path id="rect4263" fill="#fff" fill-opacity="1" fill-rule="nonzero" stroke="none" stroke-dasharray="none" stroke-dashoffset="15.6" stroke-linecap="round" stroke-linejoin="round" stroke-miterlimit="4" stroke-opacity="1" stroke-width="1" d="M 0,0 0,2 24,2 24,0 23,0 23,1 1,1 1,0 0,0 Z" opacity=".15" transform="translate(0,276)"/></g></g></g></svg>