<svg xmlns="http://www.w3.org/2000/svg" xmlns:svg="http://www.w3.org/2000/svg" xmlns:xlink="http://www.w3.org/1999/xlink" id="svg3199" width="22" height="21" version="1.1"><defs id="defs3201"><linearGradient id="linearGradient3878"><stop id="stop3880" offset="0" stop-color="#fff" stop-opacity=".8"/><stop id="stop3882" offset="1" stop-color="#fff" stop-opacity="0"/></linearGradient><linearGradient id="linearGradient3852"><stop id="stop3854" offset="0" stop-color="#c6c6c6" stop-opacity=".6"/><stop id="stop3856" offset="1" stop-color="#ddd" stop-opacity="0"/></linearGradient><linearGradient id="linearGradient3797"><stop id="stop3799" offset="0" stop-color="#afafaf" stop-opacity="1"/><stop id="stop3801" offset="1" stop-color="#dddddb" stop-opacity="1"/></linearGradient><linearGradient id="linearGradient3836"><stop id="stop3838" offset="0" stop-color="#fff" stop-opacity="1"/><stop id="stop3840" offset="1" stop-color="#fff" stop-opacity="0"/></linearGradient><linearGradient id="linearGradient3859" x1="-543.362" x2="-521.362" y1="353.5" y2="353.5" gradientTransform="matrix(0.95454557,0,0,1,-24.698196,0)" gradientUnits="userSpaceOnUse" xlink:href="#linearGradient3836"/><linearGradient id="linearGradient3803" x1="-542.362" x2="-521.362" y1="353.5" y2="353.5" gradientTransform="matrix(0.95238087,0,0,0.9090909,1038.8976,-674.86364)" gradientUnits="userSpaceOnUse" xlink:href="#linearGradient3797"/><linearGradient id="linearGradient3833" x1="-541.362" x2="-537.362" y1="353.5" y2="353.5" gradientTransform="matrix(1.0555556,0,0,1,29.075753,0)" gradientUnits="userSpaceOnUse" xlink:href="#linearGradient3852"/><linearGradient id="linearGradient3828-8-2"><stop id="stop3830-2-9" offset="0" stop-color="#ebebeb" stop-opacity="1"/><stop id="stop3832-1-8" offset="1" stop-color="#ebebeb" stop-opacity="1"/></linearGradient><linearGradient id="linearGradient3854-9" x1="-541.362" x2="-523.362" y1="353.5" y2="353.5" gradientTransform="matrix(1.0555556,0,0,1,29.075759,0)" gradientUnits="userSpaceOnUse" xlink:href="#linearGradient3875-7"/><linearGradient id="linearGradient3875-7"><stop id="stop3877-7" offset="0" stop-color="#ddd" stop-opacity="0"/><stop id="stop3879-8" offset=".765" stop-color="#ddd" stop-opacity="1"/><stop id="stop3881-8" offset="1" stop-color="#c6c6c6" stop-opacity="1"/></linearGradient><linearGradient id="linearGradient3071" x1="-541.362" x2="-523.362" y1="353.5" y2="353.5" gradientTransform="matrix(1.0555556,0,0,1,29.075743,0)" gradientUnits="userSpaceOnUse" xlink:href="#linearGradient3828-8-2"/><radialGradient id="radialGradient3876" cx="-535.862" cy="336.5" r="9.5" fx="-535.862" fy="336.5" gradientTransform="matrix(1,0,0,0.94736842,3.0000052,34.710526)" gradientUnits="userSpaceOnUse" xlink:href="#linearGradient3878"/></defs><metadata id="metadata3204"/><g id="layer1" transform="translate(-342.5,-522.36218)"><rect id="rect3029-7-6" width="21" height="22" x="-543.362" y="342.5" fill="url(#linearGradient3859)" fill-opacity="1" stroke="none" opacity=".5" rx="3.818" ry="4" transform="matrix(0,-1,1,0,0,0)"/><rect id="rect3029-7-6-4" width="20" height="20" x="522.362" y="-363.5" fill="url(#linearGradient3803)" fill-opacity="1" stroke="none" rx="3" ry="3" transform="matrix(0,1,-1,0,0,0)"/><rect id="rect3029-7-6-4-3-5-0" width="19" height="18" x="-542.362" y="344.5" fill="url(#linearGradient3071)" fill-opacity="1" stroke="none" rx="2" ry="2" transform="matrix(0,-1,1,0,0,0)"/><rect id="rect3029-7-6-4-3-5-6-0" width="19" height="18" x="-542.362" y="344.5" fill="url(#linearGradient3854-9)" fill-opacity="1" stroke="none" rx="2" ry="2" transform="matrix(0,-1,1,0,0,0)"/><rect id="rect3029-7-6-4-3-7" width="19" height="18" x="-542.362" y="344.5" fill="url(#linearGradient3833)" fill-opacity="1" stroke="none" rx="2" ry="2" transform="matrix(0,-1,1,0,0,0)"/><rect id="rect3029-7-6-4-3-7-5" width="19" height="18" x="-542.362" y="344.5" fill="url(#radialGradient3876)" fill-opacity="1" stroke="none" opacity=".6" rx="2" ry="2" transform="matrix(0,-1,1,0,0,0)"/><rect id="rect3029-7-6-4-4" width="20" height="20" x="522.362" y="-363.5" fill="#fff" fill-opacity="1" stroke="none" opacity=".2" rx="3" ry="3" transform="matrix(0,1,-1,0,0,0)"/></g></svg>