<svg xmlns="http://www.w3.org/2000/svg" xmlns:svg="http://www.w3.org/2000/svg" xmlns:xlink="http://www.w3.org/1999/xlink" id="svg2" width="104" height="104" version="1.1"><defs id="defs4"><linearGradient id="linearGradient3761"><stop id="stop3763" offset="0" stop-color="#fff" stop-opacity=".392"/><stop id="stop3765" offset="1" stop-color="#fff" stop-opacity=".196"/></linearGradient><radialGradient id="radialGradient3767" cx="0" cy="4" r="48" fx="0" fy="4" gradientUnits="userSpaceOnUse" xlink:href="#linearGradient3761"/><clipPath id="clipPath3785" clipPathUnits="userSpaceOnUse"><path id="path3787" fill="#f0f" fill-opacity="1" fill-rule="nonzero" stroke="none" stroke-width="1.5" d="m -52.000002,-48.00003 0,104 104,0 0,-104 -104,0 z m 52.00000024,4 c 26.50966776,0 47.99999976,21.490332 47.99999976,48 0,26.509668 -21.490332,48 -47.99999976,48 -26.50966824,0 -48.00000024,-21.490332 -48.00000024,-48 0,-26.509668 21.490332,-48 48.00000024,-48 z" color="#000" display="inline" enable-background="accumulate" opacity=".1" overflow="visible" visibility="visible" style="marker:none"/></clipPath><filter id="filter3789" color-interpolation-filters="sRGB"><feGaussianBlur id="feGaussianBlur3791" stdDeviation="2.4"/></filter></defs><metadata id="metadata7"/><g id="layer1" transform="translate(0,-948.3622)"><path id="path3783" fill="#000" fill-opacity="1" fill-rule="nonzero" stroke="none" stroke-width="1.5" d="M 48,4 C 48,30.509668 26.509668,52 0,52 -26.509668,52 -48,30.509668 -48,4 c 0,-26.509668 21.490332,-48 48,-48 26.509668,0 48,21.490332 48,48 z" clip-path="url(#clipPath3785)" color="#000" display="inline" enable-background="accumulate" filter="url(#filter3789)" opacity=".2" overflow="visible" transform="translate(52.000002,996.36223)" visibility="visible" style="marker:none"/><path id="path3759" fill="url(#radialGradient3767)" fill-opacity="1" fill-rule="nonzero" stroke="none" stroke-width="1.5" d="M 48,4 C 48,30.509668 26.509668,52 0,52 -26.509668,52 -48,30.509668 -48,4 c 0,-26.509668 21.490332,-48 48,-48 26.509668,0 48,21.490332 48,48 z" color="#000" display="inline" enable-background="accumulate" overflow="visible" transform="translate(52,996.3622)" visibility="visible" style="marker:none"/><path id="path3769" fill="#fff" fill-opacity="1" fill-rule="nonzero" stroke="none" stroke-width="1.5" d="m 52,952.3622 c -26.509668,0 -48,21.49033 -48,48 0,26.5097 21.490332,48 48,48 26.509668,0 48,-21.4903 48,-48 0,-26.50967 -21.490332,-48 -48,-48 z m 0,1 c 25.957383,0 47,21.04262 47,47 0,25.9574 -21.042617,47 -47,47 -25.957383,0 -47,-21.0426 -47,-47 0,-25.95738 21.042617,-47 47,-47 z" color="#000" display="inline" enable-background="accumulate" opacity=".1" overflow="visible" visibility="visible" style="marker:none"/><rect id="rect3793" width="52" height="52" x="26" y="974.362" fill="none" stroke="none" stroke-width="1.5" color="#000" display="inline" enable-background="accumulate" opacity="0" overflow="visible" visibility="visible" style="marker:none"/><rect id="rect3795" width="52" height="52" x="26" y="974.362" fill="none" stroke="none" stroke-width="1.5" color="#000" display="inline" enable-background="accumulate" opacity="0" overflow="visible" visibility="visible" style="marker:none"/></g></svg>