<svg xmlns="http://www.w3.org/2000/svg" xmlns:svg="http://www.w3.org/2000/svg" xmlns:xlink="http://www.w3.org/1999/xlink" id="svg3199" width="10" height="10" version="1.1"><defs id="defs3201"><linearGradient id="linearGradient3852"><stop id="stop3854" offset="0" stop-color="#bbb" stop-opacity="1"/><stop id="stop3856" offset="1" stop-color="#ccc" stop-opacity="1"/></linearGradient><linearGradient id="linearGradient3875"><stop id="stop3877" offset="0" stop-color="#ddd" stop-opacity="0"/><stop id="stop3881" offset="1" stop-color="#ddd" stop-opacity="1"/></linearGradient><linearGradient id="linearGradient3836"><stop id="stop3838" offset="0" stop-color="#fff" stop-opacity="1"/><stop id="stop3840" offset="1" stop-color="#fff" stop-opacity="0"/></linearGradient><linearGradient id="linearGradient3859" x1="-543.362" x2="-531.362" y1="353.5" y2="353.5" gradientTransform="matrix(0.66666667,0,0,0.66666667,-180.12071,115.16667)" gradientUnits="userSpaceOnUse" xlink:href="#linearGradient3836"/><linearGradient id="linearGradient3854" x1="-541.362" x2="-523.362" y1="353.5" y2="353.5" gradientTransform="matrix(0.27777777,0,0,0.33333337,-389.98379,229.66667)" gradientUnits="userSpaceOnUse" xlink:href="#linearGradient3875"/><linearGradient id="linearGradient3858" x1="530.362" x2="541.362" y1="-349.5" y2="-349.5" gradientTransform="matrix(0.63636364,0,0,0.66666667,196.85898,-114.5)" gradientUnits="userSpaceOnUse" xlink:href="#linearGradient3852"/></defs><metadata id="metadata3204"/><g id="layer1" transform="translate(-342.5,-533.36218)"><rect id="rect3029-7-6" width="8" height="8" x="-542.362" y="343.5" fill="url(#linearGradient3859)" fill-opacity="1" stroke="none" opacity=".6" rx="4.667" ry="4.667" transform="matrix(0,-1,1,0,0,0)"/><rect id="rect3029-7-6-4" width="7" height="8" x="534.362" y="-351.5" fill="url(#linearGradient3858)" fill-opacity="1" stroke="none" rx="3.818" ry="4" transform="matrix(0,1,-1,0,0,0)"/><rect id="rect3029-7-6-4-3" width="5" height="6" x="-540.362" y="344.5" fill="#e5e5e5" fill-opacity="1" stroke="none" rx="2.778" ry="3" transform="matrix(0,-1,1,0,0,0)"/><rect id="rect3029-7-6-4-3-5" width="5" height="6" x="-540.362" y="344.5" fill="#f2f2f2" fill-opacity="1" stroke="none" rx="2.857" ry="3" transform="matrix(0,-1,1,0,0,0)"/><rect id="rect3029-7-6-4-3-5-6" width="5" height="6" x="-540.362" y="344.5" fill="url(#linearGradient3854)" fill-opacity="1" stroke="none" rx="2.857" ry="3" transform="matrix(0,-1,1,0,0,0)"/></g></svg>