<svg xmlns="http://www.w3.org/2000/svg" xmlns:svg="http://www.w3.org/2000/svg" id="svg11300" width="24" height="24" display="inline" enable-background="new" version="1.0"><metadata id="metadata4"/><g id="layer1" display="inline" transform="translate(0,-276)"><path id="rect3003-9-8" fill="#141414" fill-opacity="1" stroke="none" d="M 3,0 C 1.338,0 0,1.338 0,3 l 0,18 c 0,1.662 1.338,3 3,3 l 21,0 0,-24 z" display="inline" enable-background="new" opacity=".9" transform="translate(0,276)"/><path id="rect5780" fill="#000" fill-opacity="1" stroke="none" d="M 3,0 C 1.338,0 0,1.338 0,3 l 0,18 c 0,1.662 1.338,3 3,3 l 21,0 0,-1 -21,0 C 1.892,23 1,22.108 1,21 L 1,3 C 1,1.892 1.892,1 3,1 l 21,0 0,-1 z" display="inline" enable-background="new" opacity=".9" transform="translate(0,276)"/></g></svg>