<svg xmlns="http://www.w3.org/2000/svg" xmlns:svg="http://www.w3.org/2000/svg" id="svg11300" width="24" height="24" display="inline" enable-background="new" version="1.0"><metadata id="metadata4"/><g id="layer1" display="inline" transform="translate(0,-276)"><path id="rect4161" fill="#000" fill-opacity="1" stroke="none" d="m 2.9999996,276.00002 c -1.662,0 -3.00000002,1.338 -3.00000002,3 l 0,18 c 0,1.662 1.33800002,3 3.00000002,3 l 18.0000004,0 c 1.662,0 3,-1.338 3,-3 l 0,-18 c 0,-1.662 -1.338,-3 -3,-3 l -18.0000004,0 z m 0,1 18.0000004,0 c 1.108,0 2,0.892 2,2 l 0,18 c 0,1.108 -0.892,2 -2,2 l -18.0000004,0 c -1.108,0 -2,-0.892 -2,-2 l 0,-18 c 0,-1.108 0.892,-2 2,-2 z" display="inline" enable-background="new" opacity=".45"/><rect id="rect2995" width="22" height="22" x="-23" y="277" fill="#8abf5c" fill-opacity="1" stroke="none" display="inline" enable-background="new" opacity="1" rx="2" ry="2" transform="scale(-1,1)"/></g></svg>