<svg xmlns="http://www.w3.org/2000/svg" xmlns:svg="http://www.w3.org/2000/svg" xmlns:xlink="http://www.w3.org/1999/xlink" id="svg2" width="15" height="14" version="1.1"><defs id="defs4"><linearGradient id="linearGradient3757"><stop id="stop3759" offset="0" stop-color="#fff" stop-opacity="1"/><stop id="stop3761" offset="1" stop-color="#fff" stop-opacity=".502"/></linearGradient><linearGradient id="linearGradient3807" x1="5" x2="5" y1="0" y2="30" gradientUnits="userSpaceOnUse" xlink:href="#linearGradient3757"/><linearGradient id="linearGradient3811" x1="5" x2="5" y1="0" y2="30" gradientUnits="userSpaceOnUse" xlink:href="#linearGradient3757"/><linearGradient id="linearGradient3813" x1="5" x2="5" y1="0" y2="30" gradientTransform="translate(2.03125,1022.3622)" gradientUnits="userSpaceOnUse" xlink:href="#linearGradient3757"/></defs><metadata id="metadata7"/><g id="layer1" transform="translate(4.5547443,-1035.3622)"><path id="rect2987" fill="#fff" fill-opacity="1" fill-rule="nonzero" stroke="none" stroke-width="4" d="m 2.5702556,1035.3622 c -0.3231667,0 -0.5833333,0.2602 -0.5833333,0.5833 l 0,4.6667 -4.9583333,0 c -0.3231667,0 -0.5833333,0.2602 -0.5833333,0.5833 l 0,1.7501 c 0,0.3231 0.2601666,0.5833 0.5833333,0.5833 l 4.9583333,0 0,5.25 c 0,0.3231 0.2601666,0.5833 0.5833333,0.5833 l 1.75,0 c 0.3231666,0 0.5833333,-0.2602 0.5833333,-0.5833 l 0,-5.25 4.9583332,0 c 0.3231669,0 0.5833339,-0.2602 0.5833339,-0.5833 l 0,-1.7501 c 0,-0.3231 -0.260167,-0.5833 -0.5833339,-0.5833 l -4.9583332,0 0,-4.6667 c 0,-0.3231 -0.2601667,-0.5833 -0.5833333,-0.5833 l -1.75,0 z" color="#000" display="inline" enable-background="accumulate" overflow="visible" visibility="visible" style="marker:none"/></g></svg>