<svg xmlns="http://www.w3.org/2000/svg" xmlns:svg="http://www.w3.org/2000/svg" id="svg3768" width="32" height="32" version="1.1"><metadata id="metadata3773"/><g id="layer1" transform="translate(0,-32)"><path id="path3776" fill="#fff" fill-opacity="1" fill-rule="nonzero" stroke="#090" stroke-dasharray="none" stroke-miterlimit="4" stroke-opacity="1" stroke-width="0" d="m 29.545455,11.75 a 11.704545,11.75 0 1 1 -23.4090901,0 11.704545,11.75 0 1 1 23.4090901,0 z" opacity=".1" transform="matrix(1.3669903,0,0,1.3617021,-8.3883513,32)"/><path id="path3776-9" fill="#000" fill-opacity="1" fill-rule="nonzero" stroke="#090" stroke-dasharray="none" stroke-miterlimit="4" stroke-opacity="1" stroke-width="0" d="m 29.545455,11.75 a 11.704545,11.75 0 1 1 -23.4090901,0 11.704545,11.75 0 1 1 23.4090901,0 z" opacity=".85" transform="matrix(1.2815534,0,0,1.2765957,-6.8640793,33)"/><path id="rect2987" fill="#fff" fill-opacity="1" fill-rule="nonzero" stroke="none" stroke-width="4" d="m 12.583771,43 c -0.129854,0 -0.265594,0.03064 -0.365093,0.130297 l -1.069202,1.068432 c -0.199003,0.1993 -0.199003,0.530359 0,0.72966 l 3.051137,3.074999 -3.051137,3.04894 c -0.199301,0.199439 -0.199301,0.530224 0,0.729661 l 1.069202,1.068432 c 0.199299,0.199439 0.530885,0.199439 0.730185,0 L 16,49.801482 l 3.051137,3.048939 c 0.199001,0.199301 0.531185,0.199301 0.730186,0 l 1.069201,-1.068432 c 0.199003,-0.199301 0.199003,-0.53036 0,-0.729661 l -3.051136,-3.04894 3.051136,-3.074999 c 0.199301,-0.199438 0.199301,-0.530223 0,-0.72966 L 19.781323,43.130297 C 19.681678,43.030582 19.5202,43 19.390152,43 c -0.130048,0 -0.239366,0.03059 -0.339015,0.130297 L 16,46.179237 12.948863,43.130297 C 12.849363,43.03065 12.713625,43 12.583771,43 z" color="#000" display="inline" enable-background="accumulate" overflow="visible" visibility="visible" style="marker:none"/></g></svg>