<svg xmlns="http://www.w3.org/2000/svg" xmlns:svg="http://www.w3.org/2000/svg" id="svg11300" width="24" height="24" display="inline" enable-background="new" version="1.0"><metadata id="metadata4"/><g id="layer1" display="inline" transform="translate(0,-276)"><rect id="rect3005" width="24" height="24" x="0" y="276" fill="#4d4d4d" fill-opacity="1" stroke="none" opacity=".55" rx="2" ry="2"/><rect id="rect3003" width="22" height="22" x="1" y="1" fill="#333" fill-opacity="1" stroke="none" rx="1" ry="1" transform="translate(0,276)"/><path id="rect2997" fill="#0753ff" fill-opacity="1" stroke="none" d="M 2,0 C 0.892,0 0,0.892 0,2 l 0,20 c 0,1.108 0.892,2 2,2 L 2,0 Z" transform="translate(0,276)"/><path id="rect6331" fill="#0753ff" fill-opacity="1" stroke="none" d="M 2,0 C 0.892,0 0,0.892 0,2 l 0,20 c 0,1.108 0.892,2 2,2 L 2,23 C 1.446,23 1,22.554 1,22 L 1,2 C 1,1.446 1.446,1 2,1 L 2,0 Z" opacity="1" transform="translate(0,276)"/></g></svg>