<svg xmlns="http://www.w3.org/2000/svg" xmlns:svg="http://www.w3.org/2000/svg" xmlns:xlink="http://www.w3.org/1999/xlink" id="svg2" width="17.998" height="18.002" version="1.1"><defs id="defs4"><linearGradient id="linearGradient3776"><stop id="stop3778" offset="0" stop-color="#f4f4f4" stop-opacity="1"/><stop id="stop3780" offset="1" stop-color="#e8e8e8" stop-opacity="1"/></linearGradient><linearGradient id="linearGradient3768"><stop id="stop3770" offset="0" stop-color="#fff" stop-opacity="1"/><stop id="stop3772" offset="1" stop-color="#fff" stop-opacity="0"/></linearGradient><linearGradient id="linearGradient3780"><stop id="stop3782" offset="0" stop-color="#1862af" stop-opacity="1"/><stop id="stop3784" offset="1" stop-color="#0b2e52" stop-opacity="1"/></linearGradient><linearGradient id="linearGradient3760"><stop id="stop3762" offset="0" stop-color="#515151" stop-opacity="1"/><stop id="stop3764" offset="1" stop-color="#292929" stop-opacity="1"/></linearGradient><filter id="filter4352" color-interpolation-filters="sRGB"><feGaussianBlur id="feGaussianBlur4354" stdDeviation="4.506"/></filter><linearGradient id="linearGradient3790" x1="105.174" x2="107.86" y1="65.973" y2="166.592" gradientUnits="userSpaceOnUse" xlink:href="#linearGradient3780"/></defs><metadata id="metadata18591">image/svg+xml</metadata><g id="g9" transform="matrix(0.11862705,0,0,0.11862706,-1.6311219,-5.5606434)"><title id="title11">Layer 1</title><path id="path4346" fill="#e1e6ee" fill-opacity="1" fill-rule="nonzero" stroke="#99a8c7" stroke-dasharray="none" stroke-dashoffset="0" stroke-linecap="round" stroke-linejoin="round" stroke-miterlimit="4" stroke-opacity="1" stroke-width="8.43" d="m 161.27116,122.75696 c 0,39.57292 -32.08019,71.65315 -71.653136,71.65315 -39.57293,0 -71.653134,-32.08022 -71.653134,-71.65315 0,-39.572922 32.080204,-71.653115 71.653134,-71.653115 39.572946,0 71.653136,32.080193 71.653136,71.653115 z"/><path id="path4337" fill="none" stroke="#c2dda7" stroke-dashoffset="0" stroke-linecap="round" stroke-linejoin="round" stroke-miterlimit="4" stroke-opacity="0" stroke-width="12" d="m 189.86055,104.84055 c 0,46.58175 -37.76196,84.34375 -84.34372,84.34375 -46.581756,0 -84.34373,-37.76198 -84.34373,-84.34375 0,-46.581735 37.761974,-84.343697 84.34373,-84.343697 46.58176,0 84.34372,37.761963 84.34372,84.343697 z"/></g></svg>