<svg xmlns="http://www.w3.org/2000/svg" xmlns:svg="http://www.w3.org/2000/svg" xmlns:xlink="http://www.w3.org/1999/xlink" id="svg2985" width="222" height="120" version="1.1"><defs id="defs2987"><linearGradient id="linearGradient3778"><stop id="stop3780" offset="0" stop-color="#000" stop-opacity="1"/><stop id="stop3782" offset="1" stop-color="#000" stop-opacity=".687"/></linearGradient><linearGradient id="linearGradient3797"><stop id="stop3799" offset="0" stop-color="#4eb4eb" stop-opacity="1"/><stop id="stop3801" offset="1" stop-color="#388ce6" stop-opacity="1"/></linearGradient><linearGradient id="linearGradient3759"><stop id="stop3761" offset="0" stop-color="#333" stop-opacity="1"/><stop id="stop3763" offset="1" stop-color="#464646" stop-opacity="1"/></linearGradient><linearGradient id="linearGradient3765"><stop id="stop3767" offset="0" stop-color="#d14836" stop-opacity="1"/><stop id="stop3769" offset="1" stop-color="#dd4b39" stop-opacity="1"/></linearGradient><linearGradient id="linearGradient3771-1" x1="50" x2="50" y1="-1" y2="48" gradientTransform="matrix(2.2653064,0,0,2.2962964,-2.3278064,-69.641204)" gradientUnits="userSpaceOnUse" xlink:href="#linearGradient3765-6"/><linearGradient id="linearGradient3765-6"><stop id="stop3767-7" offset="0" stop-color="#dd4b39" stop-opacity="1"/><stop id="stop3769-6" offset="1" stop-color="#d14836" stop-opacity="1"/></linearGradient></defs><metadata id="metadata2990"/><g id="layer1" transform="translate(0.0625,71.9375)"><rect id="rect3763-5" width="218" height="124" x="2" y="-70" fill="#e1e6ee" fill-opacity="1" stroke="#99a8c7" stroke-dasharray="none" stroke-dashoffset="0" stroke-linecap="round" stroke-linejoin="round" stroke-miterlimit="4" stroke-opacity="1" stroke-width="1.991" rx="2.973" ry="3"/><path id="rect2993" fill="#133783" fill-opacity="1" fill-rule="nonzero" stroke="none" stroke-width="1.5" d="m 99.32212,-42.706752 c -2.13077,0 -3.84615,1.71539 -3.84615,3.846156 l 0,3.846156 -7.69231,0 c -2.13078,0 -3.84616,1.715392 -3.84616,3.846157 l 0,3.846157 50,0 0,-3.846157 c 0,-2.130766 -1.71538,-3.846157 -3.84613,-3.846157 l -7.69235,0 0,-3.846156 c 0,-2.130766 -1.71538,-3.846156 -3.84613,-3.846156 z m 3.84615,3.846156 11.53848,0 0,3.846156 -11.53848,0 z m -15.38461,15.384627 0,36.538482 c 0,3.196159 2.57307,5.769239 5.76923,5.769239 l 30.76928,0 c 3.19613,0 5.7692,-2.57308 5.7692,-5.769239 l 0,-36.538482 z m 9.61538,7.692312 c 1.06539,0 1.92308,0.857695 1.92308,1.923082 l 0,23.0769315 c 0,1.0653875 -0.85769,1.9230825 -1.92308,1.9230825 -1.06538,0 -1.92307,-0.857695 -1.92307,-1.9230825 l 0,-23.0769315 c 0,-1.065387 0.85769,-1.923082 1.92307,-1.923082 z m 7.69231,0 c 1.06537,0 1.92305,0.857695 1.92305,1.923082 l 0,23.0769315 c 0,1.0653875 -0.85768,1.9230825 -1.92305,1.9230825 -1.06538,0 -1.92308,-0.857695 -1.92308,-1.9230825 l 0,-23.0769315 c 0,-1.065387 0.8577,-1.923082 1.92308,-1.923082 z m 7.69234,0 c 1.06538,0 1.92306,0.857695 1.92306,1.923082 l 0,23.0769315 c 0,1.0653875 -0.85768,1.9230825 -1.92306,1.9230825 -1.06538,0 -1.92307,-0.857695 -1.92307,-1.9230825 l 0,-23.0769315 c 0,-1.065387 0.85769,-1.923082 1.92307,-1.923082 z m 7.69226,0 c 1.06538,0 1.92307,0.857695 1.92307,1.923082 l 0,23.0769315 c 0,1.0653875 -0.85769,1.9230825 -1.92307,1.9230825 -1.06538,0 -1.92306,-0.857695 -1.92306,-1.9230825 l 0,-23.0769315 c 0,-1.065387 0.85768,-1.923082 1.92306,-1.923082 z" color="#000" display="inline" enable-background="accumulate" overflow="visible" visibility="visible" style="marker:none"/></g></svg>