<svg xmlns="http://www.w3.org/2000/svg" xmlns:xlink="http://www.w3.org/1999/xlink" width="64" height="22" version="1.1"><defs><filter id="l" width="1.52" height="1.156" x="-.26" y="-.078" color-interpolation-filters="sRGB"><feGaussianBlur stdDeviation=".325"/></filter><linearGradient id="a"><stop offset="0"/><stop offset=".6" stop-opacity=".706"/><stop offset="1" stop-opacity="0"/></linearGradient><linearGradient id="b" stop-color="#fff"><stop offset="0"/><stop offset=".6" stop-opacity=".706"/><stop offset="1" stop-opacity="0"/></linearGradient><linearGradient id="i" x1="40.812" x2="40.812" y1="18.5" y2=".5" gradientTransform="matrix(-1 0 0 -1 64.5 20.5)" gradientUnits="userSpaceOnUse"><stop offset="0" stop-color="#333"/><stop offset="1" stop-color="#555"/></linearGradient><radialGradient id="h" cx="42.5" cy="11" gradientTransform="matrix(11,0,0,10,-417,-99)" gradientUnits="userSpaceOnUse" xlink:href="#a"/><radialGradient id="g" cx="42.5" cy="11" gradientTransform="matrix(11,0,0,10,-416,-99)" gradientUnits="userSpaceOnUse" xlink:href="#b"/><radialGradient id="f" cx="42.5" cy="11" gradientTransform="matrix(11,0,0,10,-421,-99)" gradientUnits="userSpaceOnUse" xlink:href="#a"/><radialGradient id="e" cx="42.5" cy="11" gradientTransform="matrix(11,0,0,10,-420,-99)" gradientUnits="userSpaceOnUse" xlink:href="#b"/><radialGradient id="d" cx="42.5" cy="11" gradientTransform="matrix(11,0,0,10,-425,-99)" gradientUnits="userSpaceOnUse" xlink:href="#a"/><radialGradient id="c" cx="42.5" cy="11" gradientTransform="matrix(11,0,0,10,-424,-99)" gradientUnits="userSpaceOnUse" xlink:href="#b"/><linearGradient id="k" x1="41" x2="41" y1="1" y2="28" gradientTransform="translate(-2,-1)" gradientUnits="userSpaceOnUse" stop-color="#fff"><stop offset="0"/><stop offset="1" stop-opacity="0"/></linearGradient><linearGradient id="j" x1="48" x2="48" y1="21" y2="2" gradientTransform="translate(-2,-1)" gradientUnits="userSpaceOnUse"><stop offset="0" stop-color="#a0a0a0"/><stop offset="1" stop-color="#dcdcdc"/></linearGradient></defs><g color="#000"><path fill="url(#i)" d="m5 3c-1.1224 0-2 0.8776-2 2v12c0 1.1224 0.8776 2 2 2h54c1.1224 0 2-0.8776 2-2v-12c0-1.1224-0.878-2-2-2h-54z"/><path d="m5 2c-1.662 0-3 1.338-3 3v12c0 1.662 1.338 3 3 3h54c1.662 0 3-1.338 3-3v-12c0-1.662-1.338-3-3-3zm0 3h54v12h-54z" opacity=".08"/><path d="m5 2c-1.662 0-3 1.338-3 3v12c0 1.662 1.338 3 3 3h54c1.662 0 3-1.338 3-3v-12c0-1.662-1.338-3-3-3zm0 2h54c0.5825 0 1 0.4175 1 1v12c0 0.5825-0.4175 1-1 1h-54c-0.5825 0-1-0.418-1-1v-12c0-0.5825 0.4175-1 1-1z" opacity=".12"/><path fill="#fff" d="m5 2c-1.662 0-3 1.338-3 3v12c0 1.662 1.338 3 3 3h54c1.662 0 3-1.338 3-3v-12c0-1.662-1.338-3-3-3zm0 1h54c1.1174 0 2 0.88261 2 2v12c0 1.1174-0.88261 2-2 2h-54c-1.1174 0-2-0.883-2-2v-12c0-1.1174 0.8826-2 2-2z" opacity=".2"/><rect width="3" height="10" x="15" y="6.5" filter="url(#l)" opacity=".5"/><rect width="3" height="10" x="15" y="6" fill="#fff"/><path d="m35-0.9375c-3.3342-0.084493-6.2283 3.0589-5.9375 6.3684 0.01965 4.0571-0.03992 8.1168 0.03091 12.172 0.25485 3.1387 3.3049 5.6251 6.4237 5.3343 7.9288-0.0052 15.858 0.01037 23.786-0.0078 3.2585-0.09082 5.9425-3.2203 5.634-6.4468-0.01964-4.0284 0.0399-8.0593-0.03091-12.086-0.25485-3.1387-3.3049-5.6251-6.4237-5.3343h-23.483z" opacity=".05"/><path d="m35 0c-2.823-0.068816-5.261 2.6062-5 5.405 0.017 4.0337-0.034 8.07 0.026 12.102 0.219 2.662 2.819 4.755 5.46 4.493 7.923-0.004 15.846 0.009 23.769-0.007 2.764-0.079 5.022-2.747 4.745-5.479-0.017-4.007 0.034-8.0156-0.026-12.021-0.219-2.6624-2.819-4.7548-5.46-4.493h-23.514z" opacity=".1"/><path d="m35 1.0312c-2.2659-0.057801-4.2002 2.1058-3.9688 4.3452 0.01352 4.0086-0.02722 8.0189 0.02069 12.026 0.17291 2.1437 2.2828 3.7975 4.3999 3.5659 7.9169-0.0035 15.834 0.0069 23.751-0.0052 2.2242-0.06114 4.0116-2.2264 3.7661-4.4153-0.01352-3.9835 0.02722-7.9687-0.02069-11.951-0.173-2.1437-2.283-3.7976-4.4-3.566h-23.548z" opacity=".2"/><rect width="30" height="18" x="32" y="2" fill="url(#j)" rx="3" ry="3"/><path fill="url(#k)" d="m35 2c-1.662 0-3 1.338-3 3v12c0 1.662 1.338 3 3 3h24c1.662 0 3-1.338 3-3v-12c0-1.662-1.338-3-3-3zm0 1h24c1.1256 0 2 0.87439 2 2v12c0 1.1256-0.87439 2-2 2h-24c-1.1256 0-2-0.87439-2-2v-12c0-1.1256 0.87439-2 2-2z" opacity=".6"/><rect width="1" height="10" x="43" y="6" fill="url(#c)" opacity=".4"/><rect width="1" height="10" x="42" y="6" fill="url(#d)" opacity=".2"/><rect width="1" height="10" x="47" y="6" fill="url(#e)" opacity=".4"/><rect width="1" height="10" x="46" y="6" fill="url(#f)" opacity=".2"/><rect width="1" height="10" x="51" y="6" fill="url(#g)" opacity=".4"/><rect width="1" height="10" x="50" y="6" fill="url(#h)" opacity=".2"/></g></svg>