<svg xmlns="http://www.w3.org/2000/svg" xmlns:xlink="http://www.w3.org/1999/xlink" width="64" height="22" version="1.1"><defs><radialGradient id="w" cx="42.5" cy="11" gradientTransform="matrix(11,0,0,10,-417,-99)" gradientUnits="userSpaceOnUse" xlink:href="#n"/><linearGradient id="n"><stop offset="0"/><stop offset=".6" stop-opacity=".706"/><stop offset="1" stop-opacity="0"/></linearGradient><radialGradient id="v" cx="42.5" cy="11" gradientTransform="matrix(11,0,0,10,-416,-99)" gradientUnits="userSpaceOnUse" xlink:href="#m"/><linearGradient id="m" stop-color="#fff"><stop offset="0"/><stop offset=".6" stop-opacity=".706"/><stop offset="1" stop-opacity="0"/></linearGradient><radialGradient id="u" cx="42.5" cy="11" gradientTransform="matrix(11,0,0,10,-421,-99)" gradientUnits="userSpaceOnUse" xlink:href="#n"/><radialGradient id="t" cx="42.5" cy="11" gradientTransform="matrix(11,0,0,10,-420,-99)" gradientUnits="userSpaceOnUse" xlink:href="#m"/><radialGradient id="s" cx="42.5" cy="11" gradientTransform="matrix(11,0,0,10,-425,-99)" gradientUnits="userSpaceOnUse" xlink:href="#n"/><radialGradient id="x" cx="42.5" cy="11" gradientTransform="matrix(11,0,0,10,-424,-99)" gradientUnits="userSpaceOnUse" xlink:href="#m"/><linearGradient id="p" x1="41" x2="41" y1="1" y2="28" gradientTransform="translate(-2,-1)" gradientUnits="userSpaceOnUse" stop-color="#fff"><stop offset="0"/><stop offset="1" stop-opacity="0"/></linearGradient><linearGradient id="q" x1="48" x2="48" y1="21" y2="2" gradientTransform="translate(-2,-1)" gradientUnits="userSpaceOnUse"><stop offset="0" stop-color="#a0a0a0"/><stop offset="1" stop-color="#dcdcdc"/></linearGradient><linearGradient id="r" x1="40.812" x2="40.812" y1="18.5" y2=".5" gradientTransform="matrix(-1,0,0,-1,64.5,20.5)" gradientUnits="userSpaceOnUse"><stop offset="0" stop-color="#333"/><stop offset="1" stop-color="#555"/></linearGradient><filter id="o" width="1.19" height="1.326" x="-.095" y="-.163" color-interpolation-filters="sRGB"><feGaussianBlur stdDeviation=".555"/></filter></defs><g color="#000"><path fill="url(#r)" d="m5 3c-1.1224 0-2 0.8776-2 2v12c0 1.1224 0.8776 2 2 2h54c1.1224 0 2-0.8776 2-2v-12c0-1.1224-0.878-2-2-2h-54z"/><path d="m5 2c-1.662 0-3 1.338-3 3v12c0 1.662 1.338 3 3 3h54c1.662 0 3-1.338 3-3v-12c0-1.662-1.338-3-3-3zm0 3h54v12h-54z" opacity=".08"/><path d="m5 2c-1.662 0-3 1.338-3 3v12c0 1.662 1.338 3 3 3h54c1.662 0 3-1.338 3-3v-12c0-1.662-1.338-3-3-3zm0 2h54c0.5825 0 1 0.4175 1 1v12c0 0.5825-0.4175 1-1 1h-54c-0.5825 0-1-0.418-1-1v-12c0-0.5825 0.4175-1 1-1z" opacity=".12"/><path fill="#fff" d="m5 2c-1.662 0-3 1.338-3 3v12c0 1.662 1.338 3 3 3h54c1.662 0 3-1.338 3-3v-12c0-1.662-1.338-3-3-3zm0 1h54c1.1174 0 2 0.88261 2 2v12c0 1.1174-0.88261 2-2 2h-54c-1.1174 0-2-0.883-2-2v-12c0-1.1174 0.8826-2 2-2z" opacity=".2"/></g><g filter="url(#o)" opacity=".5"><path d="m12.93 15.87c-0.594-0.000001-1.1073-0.10267-1.54-0.308-0.433-0.205-0.788-0.488-1.067-0.847-0.279-0.367-0.4877-0.796-0.627-1.287-0.132-0.499-0.198-1.041-0.198-1.628s0.066-1.1293 0.198-1.628c0.1393-0.506 0.3483-0.9423 0.627-1.309s0.634-0.6527 1.067-0.858c0.43266-0.20533 0.946-0.30799 1.54-0.308 0.594 0.0000081 1.1073 0.10267 1.54 0.308 0.43266 0.20534 0.78833 0.49134 1.067 0.858 0.27866 0.36667 0.48399 0.80301 0.616 1.309 0.13933 0.49867 0.20899 1.0413 0.209 1.628-0.000008 0.58667-0.06967 1.1293-0.209 1.628-0.13201 0.49134-0.33734 0.92033-0.616 1.287-0.27867 0.35933-0.63434 0.64167-1.067 0.847-0.43267 0.20533-0.946 0.308-1.54 0.308m0-1.342c1.1367 0.000001 1.705-0.90933 1.705-2.728-0.000006-0.90933-0.13934-1.5913-0.418-2.046-0.27134-0.45466-0.69667-0.68199-1.276-0.682-1.1513 0.0000067-1.727 0.90934-1.727 2.728-0.000002 1.8187 0.572 2.728 1.716 2.728"/><path d="m17.699 7.829c0.22733-0.043992 0.44367-0.065992 0.649-0.066 0.22 0.000008 0.44733 0.022008 0.682 0.066l3.058 5.038v-5.038c0.264-0.043992 0.517-0.065992 0.759-0.066 0.22733 0.000008 0.44733 0.022008 0.66 0.066v7.909c-0.23467 0.044-0.44734 0.066-0.638 0.066-0.20534-0.000001-0.429-0.022-0.671-0.066l-3.08-5.027v5.027c-0.23467 0.044-0.473 0.066-0.715 0.066-0.242-0.000001-0.47667-0.022-0.704-0.066v-7.909"/></g><g fill="#fff" fill-opacity=".984"><path d="m12.93 15.07c-0.594-0.000001-1.1073-0.10267-1.54-0.308-0.433-0.205-0.788-0.488-1.067-0.847-0.279-0.367-0.4877-0.796-0.627-1.287-0.132-0.499-0.198-1.041-0.198-1.628s0.066-1.1293 0.198-1.628c0.1393-0.506 0.3483-0.9423 0.627-1.309s0.634-0.6527 1.067-0.858c0.43266-0.20533 0.946-0.30799 1.54-0.308 0.594 0.0000081 1.1073 0.10267 1.54 0.308 0.43266 0.20534 0.78833 0.49134 1.067 0.858 0.27866 0.36667 0.48399 0.80301 0.616 1.309 0.13933 0.49867 0.20899 1.0413 0.209 1.628-0.000008 0.58667-0.06967 1.1293-0.209 1.628-0.13201 0.49134-0.33734 0.92033-0.616 1.287-0.27867 0.35933-0.63434 0.64167-1.067 0.847-0.43267 0.20533-0.946 0.308-1.54 0.308m0-1.342c1.1367 0.000001 1.705-0.90933 1.705-2.728-0.000006-0.90933-0.13934-1.5913-0.418-2.046-0.27134-0.45466-0.69667-0.68199-1.276-0.682-1.1513 0.0000067-1.727 0.90934-1.727 2.728-0.000002 1.8187 0.572 2.728 1.716 2.728"/><path d="m17.699 7.029c0.22733-0.043992 0.44367-0.065992 0.649-0.066 0.22 0.000008 0.44733 0.022008 0.682 0.066l3.058 5.038v-5.038c0.264-0.043992 0.517-0.065992 0.759-0.066 0.22733 0.000008 0.44733 0.022008 0.66 0.066v7.909c-0.23467 0.044-0.44734 0.066-0.638 0.066-0.20534-0.000001-0.429-0.022-0.671-0.066l-3.08-5.027v5.027c-0.23467 0.044-0.473 0.066-0.715 0.066-0.242-0.000001-0.47667-0.022-0.704-0.066v-7.909"/></g><g color="#000"><path d="m35-0.9375c-3.3342-0.084516-6.2283 3.0589-5.9375 6.3684 0.01965 4.0571-0.03992 8.1168 0.03091 12.172 0.25482 3.1387 3.3049 5.6251 6.4237 5.3343 7.9288-0.0052 15.858 0.01037 23.786-0.0078 3.2586-0.0908 5.9425-3.2203 5.634-6.4468-0.01964-4.0284 0.03991-8.0594-0.03091-12.086-0.254-3.1376-3.305-5.6238-6.424-5.333h-23.482z" opacity=".05"/><path d="m35 0c-2.823-0.068815-5.261 2.6062-5 5.405 0.017 4.0337-0.034 8.07 0.026 12.102 0.219 2.662 2.819 4.755 5.46 4.493 7.923-0.004 15.846 0.009 23.769-0.007 2.764-0.079 5.022-2.747 4.745-5.479-0.017-4.007 0.034-8.0156-0.026-12.021-0.219-2.6625-2.819-4.7549-5.46-4.493h-23.514z" opacity=".1"/><path d="m35 1.0312c-2.2659-0.057814-4.2003 2.1058-3.9688 4.3453 0.01352 4.0086-0.02722 8.0189 0.02069 12.026 0.1729 2.1437 2.2829 3.7976 4.3999 3.5659 7.9169-0.0035 15.834 0.0069 23.751-0.0052 2.2242-0.06112 4.0117-2.2264 3.7661-4.4154-0.01352-3.9835 0.02722-7.9687-0.02069-11.951-0.17303-2.1437-2.2831-3.7975-4.4001-3.5659h-23.548z" opacity=".2"/><rect width="30" height="18" x="32" y="2" fill="url(#q)" rx="3" ry="3"/><path fill="url(#p)" d="m35 2c-1.662 0-3 1.338-3 3v12c0 1.662 1.338 3 3 3h24c1.662 0 3-1.338 3-3v-12c0-1.662-1.338-3-3-3zm0 1h24c1.1256 0 2 0.87439 2 2v12c0 1.1256-0.87439 2-2 2h-24c-1.1256 0-2-0.87439-2-2v-12c0-1.1256 0.87439-2 2-2z" opacity=".6"/><rect width="1" height="10" x="43" y="6" fill="url(#x)" opacity=".4"/><rect width="1" height="10" x="42" y="6" fill="url(#s)" opacity=".2"/><rect width="1" height="10" x="47" y="6" fill="url(#t)" opacity=".4"/><rect width="1" height="10" x="46" y="6" fill="url(#u)" opacity=".2"/><rect width="1" height="10" x="51" y="6" fill="url(#v)" opacity=".4"/><rect width="1" height="10" x="50" y="6" fill="url(#w)" opacity=".2"/></g></svg>