<svg xmlns="http://www.w3.org/2000/svg" xmlns:svg="http://www.w3.org/2000/svg" id="svg11300" width="24" height="24" display="inline" enable-background="new" version="1.0"><defs id="defs3"><linearGradient id="linearGradient3991"><stop id="stop3993" offset="0" stop-color="#000" stop-opacity="1"/><stop id="stop3995" offset="1" stop-color="#373737" stop-opacity="0"/></linearGradient></defs><metadata id="metadata4"/><g id="layer1" display="inline" transform="translate(0,-276)"><path id="rect4147" fill="#fff" fill-opacity="1" stroke="none" d="m 4,277 c -1.662,0 -3,1.338 -3,3 l 0,16 c 0,1.662 1.338,3 3,3 l 16,0 c 1.662,0 3,-1.338 3,-3 l 0,-16 c 0,-1.662 -1.338,-3 -3,-3 l -16,0 z m 0,1 16,0 c 1.108,0 2,0.892 2,2 l 0,16 c 0,1.108 -0.892,2 -2,2 l -16,0 c -1.108,0 -2,-0.892 -2,-2 l 0,-16 c 0,-1.108 0.892,-2 2,-2 z" display="inline" enable-background="new" opacity=".04"/><rect id="rect3003-7" width="20" height="20" x="2" y="278" fill="#000" fill-opacity="1" stroke="none" display="inline" enable-background="new" opacity=".3" rx="2" ry="2"/></g></svg>