<svg xmlns="http://www.w3.org/2000/svg" xmlns:svg="http://www.w3.org/2000/svg" id="svg11300" width="24" height="24" display="inline" enable-background="new" version="1.0"><defs id="defs3"><linearGradient id="linearGradient3991"><stop id="stop3993" offset="0" stop-color="#000" stop-opacity="1"/><stop id="stop3995" offset="1" stop-color="#373737" stop-opacity="0"/></linearGradient></defs><metadata id="metadata4"/><g id="layer1" display="inline" transform="translate(0,-276)"><path id="rect4147" fill="#fff" fill-opacity="1" stroke="none" d="M 4,1 C 2.338,1 1,2.338 1,4 l 0,16 c 0,1.662 1.338,3 3,3 l 20,0 0,-1 -20,0 C 2.892,22 2,21.108 2,20 L 2,4 C 2,2.892 2.892,2 4,2 l 20,0 0,-1 z" display="inline" enable-background="new" opacity=".07" transform="translate(0,276)"/><path id="rect3003-7" fill="#000" fill-opacity="1" stroke="none" d="M 4,2 C 2.892,2 2,2.892 2,4 l 0,16 c 0,1.108 0.892,2 2,2 l 20,0 0,-20 z" display="inline" enable-background="new" opacity=".9" transform="translate(0,276)"/></g></svg>