<svg xmlns="http://www.w3.org/2000/svg" xmlns:svg="http://www.w3.org/2000/svg" id="svg11300" width="16" height="16" display="inline" enable-background="new" version="1.0"><defs id="defs3"><linearGradient id="linearGradient5236"><stop id="stop5238" offset="0" stop-color="#3e7ab6" stop-opacity="1"/><stop id="stop5240" offset="1" stop-color="#6598cb" stop-opacity="1"/></linearGradient><linearGradient id="linearGradient5235"><stop id="stop5237" offset="0" stop-color="#000" stop-opacity="0"/><stop id="stop5239" offset=".35" stop-color="#000" stop-opacity=".784"/><stop id="stop5241" offset=".5" stop-color="#000" stop-opacity="1"/><stop id="stop5243" offset=".65" stop-color="#000" stop-opacity=".784"/><stop id="stop5245" offset="1" stop-color="#000" stop-opacity="0"/></linearGradient><linearGradient id="linearGradient4006-3-0"><stop id="stop4008-3-9" offset="0" stop-color="#fff" stop-opacity="1"/><stop id="stop4010-8-7" offset="1" stop-color="#fff" stop-opacity="0"/></linearGradient></defs><metadata id="metadata4"/><g id="layer1" display="inline" transform="translate(0,-284)"><path id="path3935" fill="#bababa" fill-opacity="1" d="m 3,295 2,0 0,2 -2,0 z m 8,0 2,0 0,2 -2,0 z m -4,0 2,0 0,2 -2,0 z m -4,-4 2,0 0,2 -2,0 z m 8,0 2,0 0,2 -2,0 z m -4,0 2,0 0,2 -2,0 z m -4,-4 2,0 0,2 -2,0 z m 8,0 2,0 0,2 -2,0 z m -4,0 2,0 0,2 -2,0 z"/></g></svg>