<svg xmlns="http://www.w3.org/2000/svg" xmlns:svg="http://www.w3.org/2000/svg" xmlns:xlink="http://www.w3.org/1999/xlink" id="svg2408" width="84" height="28" x="0" y="0" enable-background="new 0 0 84 28" version="1.1" viewBox="0 0 84 28" xml:space="preserve"><g><g><rect width="78" height="22" x="3" y="3" fill="#171717"/><g opacity=".38"><path fill="#171717" d="M80.5,3C80.775,3,81,3.225,81,3.5v21c0,0.275-0.225,0.5-0.5,0.5h-77C3.224,25,3,24.775,3,24.5v-21 C3,3.225,3.224,3,3.5,3H80.5 M80.5,2h-77C2.673,2,2,2.673,2,3.5v21C2,25.327,2.673,26,3.5,26h77c0.827,0,1.5-0.673,1.5-1.5v-21 C82,2.673,81.327,2,80.5,2L80.5,2z"/></g></g></g></svg>