<svg xmlns="http://www.w3.org/2000/svg" xmlns:svg="http://www.w3.org/2000/svg" xmlns:xlink="http://www.w3.org/1999/xlink" id="svg2408" width="84" height="28" x="0" y="0" enable-background="new 0 0 84 28" version="1.1" viewBox="0 0 84 28" xml:space="preserve"><rect width="78.5" height="23.302" x="3" y="2.917"/><g><g><g><path fill="#6D6D6D" d="M3,24c0,0.276,0.224,0.5,0.5,0.5h77c0.276,0,0.5-0.224,0.5-0.5V3c0-0.276-0.224-0.5-0.5-0.5h-77 C3.224,2.5,3,2.724,3,3V24z"/></g></g><g><path fill="#505151" d="M3,25c0,0.276,0.224,0.5,0.5,0.5h77c0.276,0,0.5-0.224,0.5-0.5V4c0-0.276-0.224-0.5-0.5-0.5h-77 C3.224,3.5,3,3.724,3,4V25z"/></g></g></svg>