<svg xmlns="http://www.w3.org/2000/svg" xmlns:svg="http://www.w3.org/2000/svg" xmlns:xlink="http://www.w3.org/1999/xlink" id="svg2985" width="20" height="20" version="1.1"><defs id="defs2987"><linearGradient id="linearGradient3818-5"><stop id="stop3820-9" offset="0" stop-color="#1b62ad" stop-opacity="0"/><stop id="stop3029" offset=".5" stop-color="#51bbe9" stop-opacity="1"/><stop id="stop3822-1" offset="1" stop-color="#1b62ad" stop-opacity="0"/></linearGradient><linearGradient id="linearGradient3023" x1="-19" x2="21" y1="28" y2="28" gradientTransform="matrix(0.5,0,0,1,9.5000001,-8)" gradientUnits="userSpaceOnUse" xlink:href="#linearGradient3818-5-2"/><linearGradient id="linearGradient3027" x1="-19" x2="21" y1="27" y2="27" gradientTransform="matrix(0.5,0,0,1,10.5,-2)" gradientUnits="userSpaceOnUse" xlink:href="#linearGradient3818-5"/><clipPath id="clipPath3791" clipPathUnits="userSpaceOnUse"><rect id="rect3793" width="28.571" height="20" x="-4.286" y="0" fill="#00f" fill-rule="evenodd" stroke="none" opacity=".478"/></clipPath><clipPath id="clipPath3795" clipPathUnits="userSpaceOnUse"><rect id="rect3797" width="20" height="20" x="1" y="27" fill="#00f" fill-rule="evenodd" stroke="none" opacity=".478"/></clipPath><clipPath id="clipPath3799" clipPathUnits="userSpaceOnUse"><rect id="rect3801" width="20" height="20" x="1" y="27" fill="#00f" fill-rule="evenodd" stroke="none" opacity=".478"/></clipPath><linearGradient id="linearGradient3818-5-2"><stop id="stop3820-9-73" offset="0" stop-color="#45883b" stop-opacity="0"/><stop id="stop3007-4" offset=".5" stop-color="#bada55" stop-opacity="1"/><stop id="stop3822-1-4" offset="1" stop-color="#45883b" stop-opacity="0"/></linearGradient><linearGradient id="linearGradient3814" x1="-1" x2="1" y1="17.5" y2="17.5" gradientTransform="matrix(0,-10,1,0,-18.601313,37.206379)" gradientUnits="userSpaceOnUse" xlink:href="#linearGradient3818-5-2"/></defs><metadata id="metadata2990"/><g id="layer1" transform="translate(-0.9999999,-27)"><rect id="rect3020" width="20" height="23" x="1" y="27" fill="#000" fill-opacity="1" fill-rule="evenodd" stroke="none" clip-path="url(#clipPath3799)" opacity=".85" rx="3" ry="3"/><path id="rect2992" fill="url(#linearGradient3027)" fill-opacity="1" stroke-dasharray="none" stroke-linejoin="round" stroke-miterlimit="4" stroke-width="2" d="m 1,25 0,1 10,0 10,0 0,-1 -10,0 -10,0 z" clip-path="url(#clipPath3795)"/><path id="rect2992-7" fill="url(#linearGradient3023)" fill-opacity="1" stroke-dasharray="none" stroke-linejoin="round" stroke-miterlimit="4" stroke-width="2" d="m 0,19 0,1 10,0 10,0 0,-1 -10,0 -10,0 z" clip-path="url(#clipPath3791)" transform="matrix(0.7,0,0,1,3.9999998,27)"/></g></svg>