<svg xmlns="http://www.w3.org/2000/svg" xmlns:svg="http://www.w3.org/2000/svg" xmlns:xlink="http://www.w3.org/1999/xlink" id="svg3783" width="48" height="20" version="1.1"><defs id="defs3785"><linearGradient id="linearGradient4313"><stop id="stop4315" offset="0" stop-color="#fff" stop-opacity=".196"/><stop id="stop4317" offset="1" stop-color="#fff" stop-opacity=".118"/></linearGradient><linearGradient id="linearGradient4319" x1="26" x2="26" y1="2" y2="20" gradientUnits="userSpaceOnUse" xlink:href="#linearGradient4313"/><linearGradient id="linearGradient4325" x1="26" x2="26" y1="2" y2="20" gradientUnits="userSpaceOnUse" xlink:href="#linearGradient4313"/><linearGradient id="linearGradient4329" x1="26" x2="26" y1="2" y2="20" gradientUnits="userSpaceOnUse" xlink:href="#linearGradient4313"/><linearGradient id="linearGradient4331" x1="26" x2="26" y1="2" y2="20" gradientUnits="userSpaceOnUse" xlink:href="#linearGradient4313"/><linearGradient id="linearGradient4350" x1="26" x2="26" y1="2" y2="20" gradientTransform="translate(0,1020.3622)" gradientUnits="userSpaceOnUse" xlink:href="#linearGradient4313"/><linearGradient id="linearGradient4357" x1="26" x2="26" y1="2" y2="20" gradientUnits="userSpaceOnUse" xlink:href="#linearGradient4313"/><linearGradient id="linearGradient4359" x1="26" x2="26" y1="2" y2="20" gradientUnits="userSpaceOnUse" xlink:href="#linearGradient4313"/><linearGradient id="linearGradient4416" x1="26" x2="26" y1="2" y2="20" gradientTransform="translate(0,1030.3622)" gradientUnits="userSpaceOnUse" xlink:href="#linearGradient4313"/><linearGradient id="linearGradient4419" x1="26" x2="26" y1="2" y2="20" gradientTransform="translate(0,1030.3622)" gradientUnits="userSpaceOnUse" xlink:href="#linearGradient4313"/><clipPath id="clipPath4425" clipPathUnits="userSpaceOnUse"><path id="path4427" fill="#f0f" fill-opacity="1" fill-rule="nonzero" stroke="none" stroke-width="1" d="m 0,1040.3622 0,22 48,0 0,-22 -48,0 z m 4,2 1,0 38,0 1,0 c 1.108,0 2,0.892 2,2 l 0,1 0,12 0,1 c 0,1.108 -0.892,2 -2,2 l -1,0 -38,0 -1,0 c -1.108,0 -2,-0.892 -2,-2 l 0,-1 0,-12 0,-1 c 0,-1.108 0.892,-2 2,-2 z" color="#000" display="inline" enable-background="accumulate" opacity=".4" overflow="visible" visibility="visible" style="marker:none"/></clipPath><linearGradient id="linearGradient4433" x1="26" x2="26" y1="2" y2="20" gradientTransform="translate(0,1030.3622)" gradientUnits="userSpaceOnUse" xlink:href="#linearGradient4313"/><linearGradient id="linearGradient4437" x1="26" x2="26" y1="2" y2="20" gradientTransform="translate(0,1030.3622)" gradientUnits="userSpaceOnUse" xlink:href="#linearGradient4313"/><linearGradient id="linearGradient4439" x1="26" x2="26" y1="2" y2="20" gradientUnits="userSpaceOnUse" xlink:href="#linearGradient4313"/><linearGradient id="linearGradient4442" x1="26" x2="26" y1="2" y2="30" gradientUnits="userSpaceOnUse" xlink:href="#linearGradient4313"/><clipPath id="clipPath3795" clipPathUnits="userSpaceOnUse"><rect id="rect3797" width="44" height="18" x="2" y="1032.362" fill="#f0f" fill-opacity="1" fill-rule="nonzero" stroke="none" stroke-width="1" color="#000" display="inline" enable-background="accumulate" opacity=".1" overflow="visible" ry="2.5" visibility="visible" style="marker:none"/></clipPath></defs><metadata id="metadata3788"/><g id="layer1" transform="translate(0,-1032.3622)"><path id="rect3011" fill="#33b5e5" fill-opacity="1" fill-rule="nonzero" stroke="none" stroke-width="2" d="m 0,16 0,2 0,2 48,0 0,-2 0,-2 -1,0 0,3 -46,0 0,-3 z" color="#000" display="inline" enable-background="accumulate" overflow="visible" transform="translate(0,1032.3622)" visibility="visible" style="marker:none"/></g></svg>