<svg xmlns="http://www.w3.org/2000/svg" xmlns:svg="http://www.w3.org/2000/svg" id="svg7384" width="16" height="16" version="1.1"><title id="title9167">Gnome Symbolic Icon Theme</title><metadata id="metadata90"/><g id="g3063" transform="translate(1.1621092,0)"><rect id="rect3818" width="2" height="12" x="5" y="1" fill="#bebebe" fill-opacity="1" stroke="none" rx=".532" ry=".532"/><rect id="rect3820" width="2" height="4.695" x="-3" y="5" fill="#bebebe" fill-opacity="1" stroke="none" rx=".495" ry=".495" transform="matrix(0,-1,1,0,0,0)"/><path id="path3822" fill="#bebebe" fill-opacity="1" stroke="#bebebe" stroke-dasharray="none" stroke-linejoin="round" stroke-miterlimit="4" stroke-opacity="1" stroke-width="1.009" d="m 6.4952556,12.500009 a 2.9952691,2.9952746 0 0 1 -5.9905381,0 2.9952691,2.9952746 0 1 1 5.9905381,0 z" display="inline"/></g><g id="layer1" display="none"><g id="g3106" fill="#ef2929" transform="matrix(0.55312955,0,0,0.55312955,7.4609129,8.6189509)"><g id="layer12-9" fill="#ef2929" transform="translate(-139.99995,-606)"><path font-size="medium" style="text-indent:0;text-align:start;line-height:normal;text-transform:none;marker:none" id="path3807-1-1-5-8" fill="#ef2929" fill-opacity="1" fill-rule="nonzero" stroke="none" stroke-width="2" d="m 143.99995,610 0,8 8,0 0,-8 -8,0 z" color="#bebebe" direction="ltr" display="inline" font-family="Andale Mono" font-stretch="normal" font-style="normal" font-variant="normal" font-weight="normal" letter-spacing="normal" overflow="visible" text-anchor="start" text-decoration="none" visibility="visible" word-spacing="normal"/></g></g></g><g id="layer2" display="none"><g id="g3082" fill="#8ae234" transform="matrix(0.47955647,0,0,0.47955647,7.7551812,9.0222715)"><g id="layer12-6" fill="#8ae234" transform="translate(-79.99995,-606)"><path id="path3807-1-1-9-38-4" fill="#8ae234" fill-opacity="1" fill-rule="nonzero" stroke="none" stroke-width="2" d="m 84,609 0,10 0.90625,0 L 85,619 c 0.174914,10e-4 0.347782,-0.0388 0.5,-0.125 l 7,-4 c 0.310699,-0.17189 0.46875,-0.52345 0.46875,-0.875 0,-0.35155 -0.158051,-0.70311 -0.46875,-0.875 l -7,-4 C 85.347782,609.03875 85.174914,608.99869 85,609 l -0.09375,0 z" color="#000" direction="ltr" display="inline" enable-background="accumulate" font-family="Bitstream Vera Sans" font-size="medium" font-stretch="normal" font-style="normal" font-variant="normal" font-weight="normal" letter-spacing="normal" overflow="visible" text-anchor="start" text-decoration="none" visibility="visible" word-spacing="normal" writing-mode="lr-tb" style="text-indent:0;text-align:start;line-height:normal;text-transform:none;block-progression:tb;marker:none;-inkscape-font-specification:Bitstream Vera Sans"/></g></g></g><g id="layer3" display="inline"><g id="g3051" fill="#fcaf3e" transform="matrix(0.53384026,0,0,0.53384026,7.53807,8.8504224)"><g id="layer12-0" fill="#fcaf3e" transform="translate(-159.99995,-496)"><g id="g3221" fill="#fcaf3e" transform="translate(39.99995,9)"><path id="path3807-1-1-5-8-6" fill="#fcaf3e" fill-opacity="1" stroke="none" stroke-width="2" d="m 124,491 0,8 3,0 0,-8 -3,0 z" color="#bebebe" direction="ltr" display="inline" font-family="Andale Mono" font-size="medium" font-stretch="normal" font-style="normal" font-variant="normal" font-weight="normal" letter-spacing="normal" overflow="visible" text-anchor="start" text-decoration="none" visibility="visible" word-spacing="normal" style="text-indent:0;text-align:start;line-height:normal;text-transform:none;marker:none"/><path id="path3807-1-1-5-8-6-3" fill="#fcaf3e" fill-opacity="1" stroke="none" stroke-width="2" d="m 129,491 0,8 3,0 0,-8 -3,0 z" color="#bebebe" direction="ltr" display="inline" font-family="Andale Mono" font-size="medium" font-stretch="normal" font-style="normal" font-variant="normal" font-weight="normal" letter-spacing="normal" overflow="visible" text-anchor="start" text-decoration="none" visibility="visible" word-spacing="normal" style="text-indent:0;text-align:start;line-height:normal;text-transform:none;marker:none"/></g></g></g></g></svg>