<svg xmlns="http://www.w3.org/2000/svg" xmlns:svg="http://www.w3.org/2000/svg" xmlns:xlink="http://www.w3.org/1999/xlink" id="svg7384" width="35" height="35" version="1.1"><defs id="defs10"><linearGradient id="linearGradient4039"><stop id="stop4041" offset="0" stop-color="#000" stop-opacity="1"/><stop id="stop4043" offset="1" stop-color="#f5f5f5" stop-opacity="1"/></linearGradient><linearGradient id="linearGradient3816"><stop id="stop3818" offset="0" stop-color="#fff" stop-opacity="1"/><stop id="stop3820" offset="1" stop-color="#fff" stop-opacity="0"/></linearGradient><linearGradient id="linearGradient3774"><stop id="stop3776" offset="0" stop-color="#ff191c" stop-opacity="1"/><stop id="stop3778" offset="1" stop-color="#f77" stop-opacity="1"/></linearGradient><linearGradient id="linearGradient3754"><stop id="stop3756" offset="0" stop-color="#120a12" stop-opacity="1"/><stop id="stop3758" offset="1" stop-color="#000" stop-opacity=".586"/></linearGradient><linearGradient id="linearGradient3760" x1="18.069" x2="18.069" y1="34" y2="-3.552" gradientUnits="userSpaceOnUse" xlink:href="#linearGradient3754"/><linearGradient id="linearGradient3760-2" x1="18.069" x2="18.069" y1="34" y2="-3.552" gradientUnits="userSpaceOnUse" xlink:href="#linearGradient3754-1"/><linearGradient id="linearGradient3754-1"><stop id="stop3756-2" offset="0" stop-color="#262626" stop-opacity="1"/><stop id="stop3758-3" offset="1" stop-color="#7c7c7c" stop-opacity="1"/></linearGradient><linearGradient id="linearGradient3012" x1="18.069" x2="18.069" y1="34" y2="-3.552" gradientUnits="userSpaceOnUse" xlink:href="#linearGradient3754-1"/><linearGradient id="linearGradient3760-21" x1="18.069" x2="18.069" y1="34" y2="-3.552" gradientUnits="userSpaceOnUse" xlink:href="#linearGradient3754-7"/><linearGradient id="linearGradient3754-7"><stop id="stop3756-7" offset="0" stop-color="#120a12" stop-opacity="1"/><stop id="stop3758-4" offset="1" stop-color="#000" stop-opacity=".586"/></linearGradient><linearGradient id="linearGradient3822" x1="18.187" x2="18.135" y1=".32" y2="30.827" gradientUnits="userSpaceOnUse" xlink:href="#linearGradient3816"/><linearGradient id="linearGradient3012-4" x1="18.069" x2="18.069" y1="34" y2="-3.552" gradientUnits="userSpaceOnUse" xlink:href="#linearGradient3754-1-4"/><linearGradient id="linearGradient3754-1-4"><stop id="stop3756-2-5" offset="0" stop-color="#120a12" stop-opacity="1"/><stop id="stop3758-3-7" offset="1" stop-color="#000" stop-opacity=".586"/></linearGradient></defs><title id="title9167">Gnome Symbolic Icon Theme</title><metadata id="metadata90"/><path id="path3802" fill="#fff" fill-opacity="1" fill-rule="nonzero" stroke="none" d="m 35,17.5 a 17.5,17.5 0 1 1 -35,0 17.5,17.5 0 1 1 35,0 z" transform="matrix(0.82857143,0,0,0.82857142,40,3.0000003)"/><path id="path3800" fill="url(#linearGradient3760)" fill-opacity="1" fill-rule="nonzero" stroke="none" d="m 34,17.5 a 16.5,16.5 0 1 1 -33,0 16.5,16.5 0 1 1 33,0 z" transform="matrix(0.75757576,0,0,0.75757576,41.242424,4.2424242)"/><path id="path3800-0-9" fill="#141414" fill-opacity="1" fill-rule="nonzero" stroke="none" d="m 34,17.5 a 16.5,16.5 0 1 1 -33,0 16.5,16.5 0 1 1 33,0 z" opacity=".6" transform="matrix(0.87878788,0,0,0.87878788,2.1212122,2.1212122)"/><path id="path3800-0" fill="url(#linearGradient3012)" fill-opacity="1" fill-rule="nonzero" stroke="none" d="m 34,17.5 a 16.5,16.5 0 1 1 -33,0 16.5,16.5 0 1 1 33,0 z" opacity=".88" transform="matrix(0.81818182,0,0,0.81818182,3.1818182,3.1818182)"/><path id="path2997-3" fill="#000" fill-opacity="1" stroke="none" d="m 21,14 0,0 0,0 -1,0 0,1 -1,0 0,1 -1,0 0,1 -1,0 0,-1 -1,0 0,-1 -1,0 0,-1 -1,0 0,-1 0,1 0,1 -1,0 -1,0 1,0 0,1 1,0 0,1 1,0 0,1 1,0 0,1 -1,0 0,1 -1,0 0,1 -1,0 0,1 -1,0 1,0 1,0 0,1 0,1 0,-1 1,0 0,-1 1,0 0,-1 1,0 0,-1 1,0 0,1 1,0 0,1 1,0 0,1 1,0 0,1 0,-1 0,-1 1,0 1,0 -1,0 0,-1 -1,0 0,-1 -1,0 0,-1 -1,0 0,-1 1,0 0,-1 1,0 0,-1 1,0 0,-1 0,0 -1,0 0,0 z" opacity=".84"/><path id="path2997" fill="#fff" fill-opacity="1" stroke="none" d="m 21,13 0,0 0,0 -1,0 0,1 -1,0 0,1 -1,0 0,1 -1,0 0,-1 -1,0 0,-1 -1,0 0,-1 -1,0 0,-1 0,1 0,1 -1,0 -1,0 1,0 0,1 1,0 0,1 1,0 0,1 1,0 0,1 -1,0 0,1 -1,0 0,1 -1,0 0,1 -1,0 1,0 1,0 0,1 0,1 0,-1 1,0 0,-1 1,0 0,-1 1,0 0,-1 1,0 0,1 1,0 0,1 1,0 0,1 1,0 0,1 0,-1 0,-1 1,0 1,0 -1,0 0,-1 -1,0 0,-1 -1,0 0,-1 -1,0 0,-1 1,0 0,-1 1,0 0,-1 1,0 0,-1 0,0 -1,0 0,0 z" opacity=".84"/><g id="g4049" transform="matrix(-1,0,0,1,-15.999993,0.99997611)"><path font-stretch="normal" style="text-indent:0;text-align:start;line-height:normal;text-transform:none;block-progression:tb;marker:none;-inkscape-font-specification:Andale Mono" id="path27279-0-5-3" fill="#000" fill-opacity="1" fill-rule="nonzero" stroke="none" stroke-width="1.781" d="m -13.996453,13.000266 1.124557,0 c 0.01166,-1.34e-4 0.02338,-5.16e-4 0.03514,0 0.286707,0.01263 0.573378,0.144646 0.773133,0.35155 l 2.5653959,2.566327 2.6005382,-2.566327 c 0.2987106,-0.259308 0.5023079,-0.34368 0.7731327,-0.35155 l 1.1245573,0 0,1.124964 c 0,0.322267 -0.038615,0.619457 -0.2811391,0.843719 l -2.5653959,2.566327 2.5302536,2.531174 c 0.2116279,0.211688 0.3162725,0.510114 0.3162814,0.808566 l 0,1.124965 -1.1245573,0 c -0.2983462,-9e-6 -0.5966738,-0.104728 -0.808275,-0.316389 l -2.5653959,-2.566327 -2.5653959,2.566327 c -0.211601,0.211705 -0.509942,0.316389 -0.808276,0.316389 l -1.124556,0 0,-1.124965 c -4e-6,-0.298435 0.10465,-0.596878 0.316281,-0.808566 l 2.565396,-2.531174 -2.565396,-2.566327 c -0.236991,-0.218944 -0.340921,-0.52789 -0.316281,-0.843719 l 0,-1.124964 z" color="#bebebe" direction="ltr" display="inline" enable-background="new" font-family="Andale Mono" font-size="medium" font-style="normal" font-variant="normal" font-weight="normal" letter-spacing="normal" opacity=".88" overflow="visible" text-anchor="start" text-decoration="none" visibility="visible" word-spacing="normal" writing-mode="lr-tb"/><path id="path27279-0-5" fill="#fff" fill-opacity="1" fill-rule="nonzero" stroke="none" stroke-width="1.781" d="m -13.996453,12.000286 1.124557,0 c 0.01166,-1.34e-4 0.02338,-5.16e-4 0.03514,0 0.286707,0.01263 0.573378,0.144646 0.773133,0.35155 l 2.5653959,2.566327 2.6005382,-2.566327 c 0.2987106,-0.259308 0.5023079,-0.34368 0.7731327,-0.35155 l 1.1245573,0 0,1.124964 c 0,0.322267 -0.038615,0.619457 -0.2811391,0.843719 l -2.5653959,2.566327 2.5302536,2.531174 c 0.2116279,0.211688 0.3162725,0.510114 0.3162814,0.808566 l 0,1.124965 -1.1245573,0 c -0.2983462,-9e-6 -0.5966738,-0.104728 -0.808275,-0.316389 l -2.5653959,-2.566327 -2.5653959,2.566327 c -0.211601,0.211705 -0.509942,0.316389 -0.808276,0.316389 l -1.124556,0 0,-1.124965 c -4e-6,-0.298435 0.10465,-0.596878 0.316281,-0.808566 l 2.565396,-2.531174 -2.565396,-2.566327 c -0.236991,-0.218944 -0.340921,-0.52789 -0.316281,-0.843719 l 0,-1.124964 z" color="#bebebe" direction="ltr" display="inline" enable-background="new" font-family="Andale Mono" font-size="medium" font-stretch="normal" font-style="normal" font-variant="normal" font-weight="normal" letter-spacing="normal" overflow="visible" text-anchor="start" text-decoration="none" visibility="visible" word-spacing="normal" writing-mode="lr-tb" style="text-indent:0;text-align:start;line-height:normal;text-transform:none;block-progression:tb;marker:none;-inkscape-font-specification:Andale Mono"/></g><path id="path3800-5" fill="none" stroke="url(#linearGradient3822)" stroke-dasharray="none" stroke-miterlimit="4" stroke-opacity="1" stroke-width="1.269" d="m 34,17.5 a 16.5,16.5 0 1 1 -33,0 16.5,16.5 0 1 1 33,0 z" opacity=".34" transform="matrix(0.78787878,0,0,0.78787878,3.7121212,3.7121213)"/></svg>