<svg xmlns="http://www.w3.org/2000/svg" xmlns:xlink="http://www.w3.org/1999/xlink" id="Layer_2" width="48" height="20" x="0" y="0" enable-background="new 0 0 48 20" version="1.1" viewBox="0 0 48 20" xml:space="preserve"><path d="M57.062,14.938c0,5.522-4.478,10-10,10H7.688c-5.523,0-10-4.478-10-10V5c0-5.523,4.477-10,10-10h39.375	c5.522,0,10,4.477,10,10V14.938z" display="none"/><g><g><linearGradient id="SVGID_1_" x1="14.312" x2="14.312" y1="1.542" y2="18.459" gradientUnits="userSpaceOnUse"><stop offset=".031" stop-color="#BCBEC0"/><stop offset=".265" stop-color="#ABAEB0"/><stop offset=".744" stop-color="#848688"/><stop offset="1" stop-color="#6D6E71"/></linearGradient><path fill="url(#SVGID_1_)" d="M0.458,10c0,4.671,4.402,8.458,9.833,8.458h11.965l5.911-16.916H0.458 C0.458,7.916,0.458,5.329,0.458,10L0.458,10z"/><linearGradient id="SVGID_2_" x1="34.876" x2="34.876" y1="1.542" y2="18.459" gradientUnits="userSpaceOnUse"><stop offset="0" stop-color="#414042"/><stop offset=".809" stop-color="#151516"/><stop offset="1" stop-color="#000"/></linearGradient><path fill="url(#SVGID_2_)" d="M22.209,18.458h15.5c5.431,0,9.833-3.787,9.833-8.458l0,0c0-4.671-4.402-8.458-9.833-8.458h-9.785 L22.209,18.458z"/></g><g><image width="80" height="63" overflow="visible" transform="matrix(0.24 0 0 0.24 4.3784 2.0234)" xlink:href="2FCC1D6A.png"/><g><polyline fill="none" stroke="#000" stroke-miterlimit="10" stroke-width="3" points="8.264 8.9 12.623 12.088 19.38 6.15"/></g></g></g><g><g><linearGradient id="SVGID_3_" x1="14.312" x2="14.312" y1="1.541" y2="18.459" gradientUnits="userSpaceOnUse"><stop offset="0" stop-color="#414042"/><stop offset=".809" stop-color="#151516"/><stop offset="1" stop-color="#000"/></linearGradient><path fill="url(#SVGID_3_)" d="M0.458,10c0,4.672,4.402,8.459,9.833,8.459h17.876V1.541H0.458C0.458,7.916,0.458,5.328,0.458,10 L0.458,10z"/><linearGradient id="SVGID_4_" x1="35.027" x2="35.027" y1="1.541" y2="18.459" gradientUnits="userSpaceOnUse"><stop offset=".031" stop-color="#BCBEC0"/><stop offset=".265" stop-color="#ABAEB0"/><stop offset=".744" stop-color="#848688"/><stop offset="1" stop-color="#6D6E71"/></linearGradient><path fill="url(#SVGID_4_)" d="M27.924,18.459h9.785c5.431,0,9.833-3.787,9.833-8.459l0,0c0-4.672-4.402-8.459-9.833-8.459H22.512 L27.924,18.459z"/></g><g><image width="75" height="72" opacity=".88" overflow="visible" transform="matrix(0.24 0 0 0.24 26.0166 1.4468)" xlink:href="2FCC1D6B.png"/><g><g><line x1="39.988" x2="30.012" y1="5.575" y2="14.312" fill="none" stroke="#000" stroke-miterlimit="10" stroke-width="3"/><line x1="30.012" x2="39.988" y1="5.575" y2="14.425" fill="none" stroke="#000" stroke-miterlimit="10" stroke-width="3"/></g></g></g></g></svg>