<svg xmlns="http://www.w3.org/2000/svg" xmlns:svg="http://www.w3.org/2000/svg" id="svg3783" width="25" height="64" version="1.1"><defs id="defs3785"><clipPath id="clipPath3817" clipPathUnits="userSpaceOnUse"><rect id="rect3819" width="16" height="64" x="26" y="988.362" fill="#000" fill-opacity="1" stroke="#fff" stroke-dasharray="none" stroke-miterlimit="4" stroke-opacity="1" stroke-width="0" opacity=".139" transform="matrix(0,-1,-1,0,0,0)"/></clipPath><clipPath id="clipPath3821" clipPathUnits="userSpaceOnUse"><rect id="rect3823" width="16" height="64" x="26" y="988.362" fill="#000" fill-opacity="1" stroke="#fff" stroke-dasharray="none" stroke-miterlimit="4" stroke-opacity="1" stroke-width="0" opacity=".139" transform="matrix(0,-1,-1,0,0,0)"/></clipPath><clipPath id="clipPath3825" clipPathUnits="userSpaceOnUse"><rect id="rect3827" width="16" height="64" x="26" y="988.362" fill="#000" fill-opacity="1" stroke="#fff" stroke-dasharray="none" stroke-miterlimit="4" stroke-opacity="1" stroke-width="0" opacity=".139"/></clipPath><clipPath id="clipPath3829" clipPathUnits="userSpaceOnUse"><rect id="rect3831" width="16" height="64" x="26" y="988.362" fill="#000" fill-opacity="1" stroke="#fff" stroke-dasharray="none" stroke-miterlimit="4" stroke-opacity="1" stroke-width="0" opacity=".139"/></clipPath></defs><metadata id="metadata3788"/><g id="layer1" transform="translate(-26,-988.36218)"><path id="rect3051" fill="#000" fill-opacity="1" fill-rule="nonzero" stroke="none" stroke-width="2" d="m 42,988.3622 c 0,2.77 -2.23,5 -5,5 l -8,0 c -1.662,0 -3,1.338 -3,3 l 0,48 c 0,1.662 1.338,3 3,3 l 8,0 c 2.77,0 5,2.23 5,5 l 0,-5 0,-54 0,-5 z" clip-path="url(#clipPath3829)" color="#000" display="inline" enable-background="accumulate" opacity=".2" overflow="visible" transform="translate(9,0)" visibility="visible" style="marker:none"/><path id="path3844" fill="#fff" stroke="none" d="m 30,1043.3622 8,0 -8,-8 z" clip-path="url(#clipPath3825)" transform="translate(9,0)"/><rect id="rect3009" width="128" height="1" x="-1073.362" y="-43" fill="#000" fill-opacity="1" fill-rule="nonzero" stroke="none" stroke-width="2" clip-path="url(#clipPath3821)" color="#000" display="inline" enable-background="accumulate" opacity=".2" overflow="visible" transform="matrix(0,-1,-1,0,9,0)" visibility="visible" style="marker:none"/><rect id="rect3007" width="128" height="1" x="-1073.362" y="-44" fill="#fff" fill-opacity="1" fill-rule="nonzero" stroke="none" stroke-width="2" clip-path="url(#clipPath3817)" color="#000" display="inline" enable-background="accumulate" opacity=".1" overflow="visible" transform="matrix(0,-1,-1,0,9,0)" visibility="visible" style="marker:none"/></g></svg>