<svg xmlns="http://www.w3.org/2000/svg" xmlns:svg="http://www.w3.org/2000/svg" xmlns:xlink="http://www.w3.org/1999/xlink" id="svg2" width="16" height="16" version="1.1"><defs id="defs8"><linearGradient id="StandardGradient" x1="11.999" x2="11.999" y1=".922" y2="19.387" gradientTransform="scale(0.9219544,1.0846523)" gradientUnits="userSpaceOnUse"><stop id="stop3283" offset="0" stop-color="#000" stop-opacity=".235"/><stop id="stop2651" offset="1" stop-color="#000" stop-opacity=".549"/></linearGradient><radialGradient id="radialGradient3781" cx="9" cy="9.333" r="4" fx="9" fy="9.333" gradientTransform="matrix(3.7499999,7.0501288e-8,-3.7600686e-8,1.9999999,-24.749999,-8.666666)" gradientUnits="userSpaceOnUse" xlink:href="#StandardGradient"/></defs><metadata id="metadata7"/><path id="path3812" fill="#fff" fill-opacity="1" stroke="none" d="M 9.90625 1 A 0.97597153 0.97597153 0 0 0 9.78125 1.03125 A 0.97597153 0.97597153 0 0 0 9.3125 1.3125 L 3.3125 7.3125 A 0.97597153 0.97597153 0 0 0 3.3125 8.6875 L 9.15625 14.6875 A 0.97597153 0.97597153 0 0 0 10.53125 14.6875 L 12.6875 12.53125 A 0.97597153 0.97597153 0 0 0 12.6875 11.125 L 9.40625 7.96875 L 12.6875 4.6875 A 0.97597153 0.97597153 0 0 0 12.6875 3.3125 L 10.6875 1.3125 A 0.97597153 0.97597153 0 0 0 9.90625 1 z M 10 2 L 12 4 L 8 8 L 12 11.84375 L 9.84375 14 L 4 8 L 10 2 z" opacity=".05"/><path id="path2987" fill="url(#radialGradient3781)" fill-opacity="1" stroke="none" d="M 4,8 10,2 12,4 8,8 12,11.836635 9.8366349,14 z" opacity="1"/><path id="path3783" fill="#000" fill-opacity="1" stroke="none" d="M 10 2 L 4 8 L 4.5 8.5 L 10 3 L 11.5 4.5 L 12 4 L 10 2 z M 8.5 8.5 L 8 9 L 11.5 12.34375 L 12 11.84375 L 8.5 8.5 z" opacity=".3"/><path id="path3792" fill="#000" fill-opacity="1" stroke="none" d="M 10 2 L 4 8 L 9.84375 14 L 12 11.84375 L 8 8 L 12 4 L 10 2 z M 10 2.5 L 11.5 4 L 7.75 7.75 A 0.35771865 0.35771865 0 0 0 7.71875 8.21875 A 0.35771865 0.35771865 0 0 0 7.75 8.25 L 11.5 11.84375 L 9.84375 13.5 L 4.5 8 L 10 2.5 z" opacity=".3"/><path id="path3799" fill="#fff" fill-opacity="1" stroke="none" d="M 11.5 4.5 L 8 8 L 8.5 8.5 L 12 5 L 11.5 4.5 z M 4.5 8.5 L 4 9 L 9.84375 15 L 12 12.84375 L 11.5 12.34375 L 9.84375 14 L 4.5 8.5 z" opacity=".2"/></svg>