<svg xmlns="http://www.w3.org/2000/svg" xmlns:svg="http://www.w3.org/2000/svg" xmlns:xlink="http://www.w3.org/1999/xlink" id="svg2" width="16" height="16" version="1.1"><defs id="defs8"><radialGradient id="radialGradient3781" cx="8.471" cy="9.333" r="4" fx="8.471" fy="9.333" gradientTransform="matrix(-3.7499999,7.0501288e-8,3.7600686e-8,1.9999999,40.765864,-8.6666658)" gradientUnits="userSpaceOnUse" xlink:href="#StandardGradient"/><linearGradient id="StandardGradient" x1="11.999" x2="11.999" y1=".922" y2="19.387" gradientTransform="scale(0.9219544,1.0846523)" gradientUnits="userSpaceOnUse"><stop id="stop3283" offset="0" stop-color="#000" stop-opacity=".235"/><stop id="stop2651" offset="1" stop-color="#000" stop-opacity=".549"/></linearGradient></defs><metadata id="metadata7"/><path id="path3812" fill="#fff" fill-opacity="1" stroke="none" d="m 6.1096151,1.0000002 a 0.97597153,0.97597153 0 0 1 0.125,0.03125 0.97597153,0.97597153 0 0 1 0.46875,0.28125 l 5.9999999,6 a 0.97597153,0.97597153 0 0 1 0,1.375 L 6.8596151,14.6875 a 0.97597153,0.97597153 0 0 1 -1.375,0 l -2.15625,-2.15625 a 0.97597153,0.97597153 0 0 1 0,-1.40625 l 3.28125,-3.1562498 -3.28125,-3.28125 a 0.97597153,0.97597153 0 0 1 0,-1.375 l 2,-2 a 0.97597153,0.97597153 0 0 1 0.78125,-0.3125 z m -0.09375,1 -2,2 4,4 -4,3.8437498 2.15625,2.15625 5.8437499,-5.9999998 -5.9999999,-6 z" opacity=".05"/><path id="path2987-0" fill="url(#radialGradient3781)" fill-opacity="1" stroke="none" d="m 12.015865,8.0000002 -5.9999999,-6 -2,2 4,4 -4,3.8366348 L 6.1792302,14 z"/><path id="path3783" fill="#000" fill-opacity="1" stroke="none" d="m 6.0158651,2.0000002 5.9999999,6 -0.5,0.5 -5.4999999,-5.5 -1.5,1.5 -0.5,-0.5 2,-2 z m 1.5,6.5 0.5,0.5 -3.5,3.3437498 -0.5,-0.5 3.5,-3.3437498 z" opacity=".3"/><path id="path3792" fill="#000" fill-opacity="1" stroke="none" d="m 6.0158651,2.0000002 5.9999999,6 L 6.1721151,14 l -2.15625,-2.15625 4,-3.8437498 -4,-4 2,-2 z m 0,0.5 -1.5,1.5 3.75,3.75 a 0.35771865,0.35771865 0 0 1 0.03125,0.46875 0.35771865,0.35771865 0 0 1 -0.03125,0.03125 l -3.75,3.5937498 1.65625,1.65625 5.3437499,-5.4999998 -5.4999999,-5.5 z" opacity=".3"/><path id="path3799" fill="#fff" fill-opacity="1" stroke="none" d="m 4.5158651,4.5000002 3.5,3.5 -0.5,0.5 -3.5,-3.5 0.5,-0.5 z m 6.9999999,4 0.5,0.5 L 6.1721151,15 l -2.15625,-2.15625 0.5,-0.5 L 6.1721151,14 11.515865,8.5000002 z" opacity=".2"/></svg>