<svg xmlns="http://www.w3.org/2000/svg" xmlns:svg="http://www.w3.org/2000/svg" xmlns:xlink="http://www.w3.org/1999/xlink" id="Foreground" width="32" height="32" x="0" y="0" enable-background="new 0 0 16 16" version="1.0" viewBox="0 0 23.273 23.273" xml:space="preserve"><metadata id="metadata2399"/><defs id="defs2397"><linearGradient id="linearGradient3815"><stop id="stop3817" offset="0" stop-color="#e6e6e6" stop-opacity="1"/><stop id="stop3819" offset="1" stop-color="#fff" stop-opacity="1"/></linearGradient><linearGradient id="linearGradient3833"><stop id="stop3836" offset="0" stop-color="#000" stop-opacity="1"/><stop id="stop3838" offset="1" stop-color="#000" stop-opacity="0"/></linearGradient><linearGradient id="linearGradient3808"><stop id="stop3810" offset="0" stop-color="#d2d2d2" stop-opacity="1"/><stop id="stop3812" offset="1" stop-color="#f0f0f0" stop-opacity="1"/></linearGradient><linearGradient id="linearGradient3786"><stop id="stop3788" offset="0" stop-color="#1e1e1e" stop-opacity="1"/><stop id="stop3790" offset="1" stop-color="#505050" stop-opacity="1"/></linearGradient><filter id="filter3194" width="1.36" height="1.36" x="-.18" y="-.18" color-interpolation-filters="sRGB"><feGaussianBlur id="feGaussianBlur3196" stdDeviation="1.2"/></filter><linearGradient id="linearGradient3845" x1="11" x2="21" y1="19.5" y2="19.5" gradientTransform="matrix(0.87272718,0,0,0.87272718,-34.327272,2.0363654)" gradientUnits="userSpaceOnUse" spreadMethod="reflect" xlink:href="#linearGradient3831"/><linearGradient id="linearGradient3831"><stop id="stop3833" offset="0" stop-color="#fff" stop-opacity="1"/><stop id="stop3821" offset=".75" stop-color="#fff" stop-opacity=".498"/><stop id="stop3835" offset="1" stop-color="#fff" stop-opacity="0"/></linearGradient><linearGradient id="linearGradient3101" x1="10" x2="10" y1="1" y2="16" gradientTransform="matrix(0.87272718,0,0,0.87272718,-34.327272,2.0363654)" gradientUnits="userSpaceOnUse" xlink:href="#linearGradient3823"/><linearGradient id="linearGradient3823"><stop id="stop3825" offset="0" stop-color="#fff" stop-opacity="1"/><stop id="stop3829" offset="1" stop-color="#fff" stop-opacity="0"/></linearGradient><linearGradient id="linearGradient3181" x1="-3.061" x2="-3.061" y1="27.258" y2="7.254" gradientTransform="matrix(0.87272718,0,0,0.87272718,-24.623094,-3.425334)" gradientUnits="userSpaceOnUse" xlink:href="#linearGradient3786"/><linearGradient id="linearGradient3814" x1="-3.061" x2="-3.061" y1="27.258" y2="7.254" gradientTransform="matrix(0.87272719,0,0,0.87272719,-24.623094,-3.425334)" gradientUnits="userSpaceOnUse" xlink:href="#linearGradient3808"/><linearGradient id="linearGradient3840" x1="15" x2="15" y1="6" y2="35" gradientTransform="matrix(0.72727272,0,0,0.72727272,-36.363635,0)" gradientUnits="userSpaceOnUse" xlink:href="#linearGradient3833"/><linearGradient id="linearGradient3813" x1="5.091" x2="16.727" y1="11.636" y2="11.636" gradientTransform="matrix(0,-1,1,0,-36.363635,23.272727)" gradientUnits="userSpaceOnUse" xlink:href="#linearGradient3815"/><linearGradient id="linearGradient5429-2-6"><stop id="stop5431-6-5" offset="0" stop-color="#b3b3b3" stop-opacity="1"/><stop id="stop5433-4-4" offset="1" stop-color="#f0f0f0" stop-opacity="1"/></linearGradient><linearGradient id="linearGradient3969-5"><stop id="stop3971-6" offset="0" stop-color="#000" stop-opacity="1"/><stop id="stop3973-7" offset="1" stop-color="#000" stop-opacity="0"/></linearGradient><linearGradient id="StandardGradient-9" x1="11.999" x2="11.999" y1=".922" y2="19.387" gradientTransform="scale(0.9219544,1.0846523)" gradientUnits="userSpaceOnUse"><stop id="stop3283-8" offset="0" stop-color="#000" stop-opacity=".235"/><stop id="stop2651-2" offset="1" stop-color="#000" stop-opacity=".549"/></linearGradient><linearGradient id="linearGradient3199" x1="49" x2="73" y1="272" y2="272" gradientTransform="matrix(0,-0.72727272,0.72727272,0,-186.18182,74.181839)" gradientUnits="userSpaceOnUse" xlink:href="#linearGradient3969-5"/><radialGradient id="radialGradient3205" cx="48" cy="377" r="3" fx="48" fy="377" gradientTransform="matrix(1.6666667,0,0,1,-32,0)" gradientUnits="userSpaceOnUse" xlink:href="#StandardGradient-9"/><linearGradient id="linearGradient3207" x1="72" x2="85.714" y1="272" y2="272" gradientUnits="userSpaceOnUse" xlink:href="#linearGradient5429-2-6"/><linearGradient id="linearGradient3215" x1="72" x2="101.6" y1="272" y2="272" gradientTransform="matrix(0,-0.90909366,0.90909366,0,-235.63712,55.272967)" gradientUnits="userSpaceOnUse" xlink:href="#linearGradient3969-5"/><linearGradient id="linearGradient4005" x1="72" x2="92" y1="272" y2="272" gradientTransform="matrix(0,0.90909203,0.90909203,0,-235.63667,-61.091021)" gradientUnits="userSpaceOnUse" xlink:href="#linearGradient3823"/><radialGradient id="radialGradient3827" cx="9" cy="10" r="5" fx="9" fy="10" gradientTransform="matrix(1.6,3.1999992e-8,-2.0363631e-8,1.0181818,-2.0363636,2.9090906)" gradientUnits="userSpaceOnUse" xlink:href="#StandardGradient"/><linearGradient id="StandardGradient" x1="11.999" x2="11.999" y1=".922" y2="19.387" gradientTransform="scale(0.9219544,1.0846523)" gradientUnits="userSpaceOnUse"><stop id="stop3283" offset="0" stop-color="#000" stop-opacity=".235"/><stop id="stop2651" offset="1" stop-color="#000" stop-opacity=".549"/></linearGradient></defs><path id="path3862" fill="#000" fill-opacity="1" fill-rule="nonzero" stroke="none" stroke-width="2" d="m 88,272 a 8,8 0 1 1 -16,0 8,8 0 1 1 16,0 z" color="#000" display="inline" enable-background="accumulate" opacity=".03" overflow="visible" transform="matrix(0,-1.1818204,1.1818204,0,-309.81877,106.18201)" visibility="visible" style="marker:none"/><path id="path3860" fill="#000" fill-opacity="1" fill-rule="nonzero" stroke="none" stroke-width="2" d="m 88,272 a 8,8 0 1 1 -16,0 8,8 0 1 1 16,0 z" color="#000" display="inline" enable-background="accumulate" opacity=".08" overflow="visible" transform="matrix(0,-1.0909093,1.0909093,0,-285.09096,98.909125)" visibility="visible" style="marker:none"/><path id="path3090" fill="#000" fill-opacity="1" fill-rule="nonzero" stroke="none" stroke-width="2" d="m 88,272 a 8,8 0 1 1 -16,0 8,8 0 1 1 16,0 z" color="#000" display="inline" enable-background="accumulate" opacity=".15" overflow="visible" transform="matrix(0,-1.000001,1.000001,0,-260.36391,91.636464)" visibility="visible" style="marker:none"/><path id="path4786-9-6" fill="#397adb" fill-opacity="1" fill-rule="nonzero" stroke="none" stroke-width="2" d="m 80,262.625 c -5.156273,0 -9.375,4.21873 -9.375,9.375 0,5.15627 4.218727,9.375 9.375,9.375 5.156273,0 9.375,-4.21873 9.375,-9.375 0,-5.15627 -4.218727,-9.375 -9.375,-9.375 z" color="#000" display="inline" enable-background="accumulate" opacity=".6" overflow="visible" transform="matrix(1.2354699,0,0,1.2378786,-87.20123,-325.09786)" visibility="visible" style="marker:none"/><path id="path4007" fill="#000" fill-opacity="1" fill-rule="nonzero" stroke="none" stroke-width="2" d="m 88,272 a 8,8 0 1 1 -16,0 8,8 0 1 1 16,0 z" color="#000" display="inline" enable-background="accumulate" opacity=".3" overflow="visible" transform="matrix(0,-0.90909366,0.90909366,0,-235.63712,85.091151)" visibility="visible" style="marker:none"/><path id="path5076-9" fill="none" stroke="none" stroke-width="2" d="m 88,272 a 8,8 0 1 1 -16,0 8,8 0 1 1 16,0 z" color="#000" display="inline" enable-background="accumulate" opacity=".5" overflow="visible" transform="matrix(0.63636363,0,0,0.63636363,-39.999998,-160.72725)" visibility="visible" style="marker:none"/><path id="path5078-7" fill="#000" fill-opacity="1" fill-rule="nonzero" stroke="none" stroke-width="2" d="m 88,272 a 8,8 0 1 1 -16,0 8,8 0 1 1 16,0 z" color="#000" display="inline" enable-background="accumulate" opacity=".2" overflow="visible" transform="matrix(0.63636363,0,0,0.63636363,-39.272725,-160.72725)" visibility="visible" style="marker:none"/><path id="path5328-0" fill="url(#linearGradient3207)" fill-opacity="1" fill-rule="nonzero" stroke="none" stroke-width="2" d="m 88,272 a 8,8 0 1 1 -16,0 8,8 0 1 1 16,0 z" color="#000" display="inline" enable-background="accumulate" overflow="visible" transform="matrix(0,-0.90909366,0.90909366,0,-235.63712,84.363878)" visibility="visible" style="marker:none"/><path id="path5140-1" fill="none" stroke="none" stroke-width="2" d="m 88,272 a 8,8 0 1 1 -16,0 8,8 0 1 1 16,0 z" color="#000" display="inline" enable-background="accumulate" opacity=".5" overflow="visible" transform="matrix(0.63636363,0,0,0.63636363,-39.272725,-161.45452)" visibility="visible" style="marker:none"/><path id="path5156" fill="none" stroke="none" stroke-width="2" d="m 88,272 a 8,8 0 1 1 -16,0 8,8 0 1 1 16,0 z" color="#000" display="inline" enable-background="accumulate" opacity=".5" overflow="visible" transform="matrix(0.63636363,0,0,0.63636363,-40.000001,-160.72725)" visibility="visible" style="marker:none"/><path id="path5220" fill="none" stroke="none" stroke-width="2" d="m 88,272 a 8,8 0 1 1 -16,0 8,8 0 1 1 16,0 z" color="#000" display="inline" enable-background="accumulate" opacity=".5" overflow="visible" transform="matrix(0.63636363,0,0,0.63636363,-39.272729,-161.45452)" visibility="visible" style="marker:none"/><path id="path3996" fill="url(#linearGradient4005)" fill-opacity="1" fill-rule="nonzero" stroke="none" stroke-width="2" d="m 11.636364,18.909091 c -4.0166218,0 -7.2727277,-3.256106 -7.2727277,-7.272727 0,-4.0166218 3.2561059,-7.2727277 7.2727277,-7.2727277 4.016621,0 7.272727,3.2561059 7.272727,7.2727277 0,4.016621 -3.256106,7.272727 -7.272727,7.272727 z m 0,-0.808081 c 3.570331,0 6.464646,-2.894315 6.464646,-6.464646 0,-3.5703317 -2.894315,-6.4646468 -6.464646,-6.4646468 -3.5703317,0 -6.4646468,2.8943151 -6.4646468,6.4646468 0,3.570331 2.8943151,6.464646 6.4646468,6.464646 z" color="#000" display="inline" enable-background="accumulate" opacity=".8" overflow="visible" visibility="visible" style="marker:none"/><path id="path3866" fill="#fff" fill-opacity="1" stroke="none" d="m 9.6136362,7.2499982 a 0.73474966,0.73474966 0 0 0 -0.090909,0.02273 0.73474966,0.73474966 0 0 0 -0.3636364,0.204545 L 7.4772726,9.1590906 a 0.73474966,0.73474966 0 0 0 0,1.0454544 l 1.4318182,1.431818 -1.4318182,1.431818 a 0.73474966,0.73474966 0 0 0 0,1.045455 l 1.6818182,1.681818 a 0.73474966,0.73474966 0 0 0 1.0454542,0 l 1.431819,-1.43182 1.431819,1.431818 a 0.73474966,0.73474966 0 0 0 1.045455,0 l 1.681819,-1.681818 a 0.73474966,0.73474966 0 0 0 0,-1.045455 l -1.431819,-1.431818 1.431819,-1.431818 a 0.73474966,0.73474966 0 0 0 0,-1.0454544 L 14.113638,7.4772712 a 0.73474966,0.73474966 0 0 0 -1.045455,0 L 11.636364,8.9090886 10.204545,7.4772712 A 0.73474966,0.73474966 0 0 0 9.6136362,7.2499982 z m 0.068182,0.7500007 1.9545458,1.9545444 1.954546,-1.9545444 1.681819,1.6818174 -1.954546,1.9545447 1.954546,1.954546 L 13.59091,15.272725 11.636364,13.318179 9.681818,15.272725 7.9999998,13.590907 9.9545453,11.636361 7.9999998,9.6818163 9.681818,7.9999989 z" display="inline" opacity=".05"/><path id="Symbol" fill="url(#radialGradient3827)" fill-opacity="1" stroke="none" d="M 13.594406,7.9999989 11.636363,9.9580393 9.6783216,7.9999989 7.9999999,9.6783193 9.9580418,11.63636 l -1.9580419,1.958043 1.6783217,1.678323 1.9580414,-1.958043 1.958043,1.958043 1.678323,-1.678323 -1.958043,-1.958043 1.958043,-1.9580407 -1.678323,-1.6783204 z" display="inline"/><path id="path3829" fill="#000" fill-opacity="1" stroke="none" d="M 9.681818,7.9999989 7.9999998,9.6818163 9.9545453,11.636361 7.9999998,13.590907 9.681818,15.272725 11.636364,13.318179 13.59091,15.272725 15.272729,13.590907 13.318183,11.636361 15.272729,9.6818163 13.59091,7.9999989 11.636364,9.9545433 9.681818,7.9999989 z m 0,0.363636 1.772728,1.7727261 a 0.25623872,0.25623872 0 0 0 0.02273,0.02273 0.25623872,0.25623872 0 0 0 0.340909,-0.02273 l 1.772725,-1.7727261 1.318183,1.3181814 -1.772728,1.7727267 a 0.25623872,0.25623872 0 0 0 -0.02273,0.02273 0.25623872,0.25623872 0 0 0 0.02273,0.340909 l 1.772728,1.772725 -1.318183,1.318181 -1.772728,-1.772727 a 0.25623872,0.25623872 0 0 0 -0.02273,-0.02273 0.25623872,0.25623872 0 0 0 -0.340909,0.02273 L 9.681818,14.909088 8.3636362,13.590907 10.136363,11.818179 a 0.25623872,0.25623872 0 0 0 0.02273,-0.02273 0.25623872,0.25623872 0 0 0 -0.02273,-0.340909 L 8.3636362,9.6818163 9.681818,8.3636349 z" display="inline" opacity=".3"/><path id="path3842" fill="#000" fill-opacity="1" stroke="none" d="M 9.681818,7.9999989 7.9999998,9.6818163 8.3636362,10.045452 9.681818,8.7272706 11.636364,10.681816 13.59091,8.7272706 14.909093,10.045452 15.272729,9.6818163 13.59091,7.9999989 11.636364,9.9545433 9.681818,7.9999989 z M 9.590909,11.999997 7.9999999,13.590907 8.3636363,13.954543 9.9545454,12.363634 9.590909,11.999997 z m 4.090911,0 -0.363637,0.363637 1.59091,1.590909 0.363636,-0.363636 -1.59091,-1.59091 z" display="inline" opacity=".3"/><path id="path3851" fill="#fff" fill-opacity="1" stroke="none" d="m 8.3636362,10.045452 -0.3636364,0.363636 1.5909091,1.590909 0.3636364,-0.363636 -1.5909091,-1.590909 z m 6.5454568,0 -1.59091,1.590909 0.363636,0.363636 1.59091,-1.590909 -0.363636,-0.363636 z m -3.272729,3.272727 -1.954546,1.954546 -1.3181818,-1.318182 -0.3636364,0.363636 1.6818182,1.681819 1.954546,-1.954546 1.954546,1.954546 1.681819,-1.681819 -0.363636,-0.363636 -1.318183,1.318182 -1.954546,-1.954546 z" display="inline" opacity=".2"/></svg>