<svg xmlns="http://www.w3.org/2000/svg" xmlns:svg="http://www.w3.org/2000/svg" id="svg2985" width="14" height="14" version="1.1"><metadata id="metadata2990"/><g id="layer1" transform="translate(-0.9999999,-33)"><path id="path3781-9-5-7" fill="#c6c6c6" fill-opacity="1" stroke="none" d="m 7,10 c 0,2.761424 -2.6862915,5 -6,5 -3.3137085,0 -6,-2.238576 -6,-5 0,-2.7614237 2.6862915,-5 6,-5 3.3137085,0 6,2.2385763 6,5 z" transform="matrix(-1.1666667,0,0,-1.4,9.1666668,54)"/><path id="path3781-9-5-7-6" fill="#fff" fill-opacity="1" stroke="none" d="m 7,10 c 0,2.761424 -2.6862915,5 -6,5 -3.3137085,0 -6,-2.238576 -6,-5 0,-2.7614237 2.6862915,-5 6,-5 3.3137085,0 6,2.2385763 6,5 z" transform="matrix(-1,0,0,-1.2,9,52)"/></g></svg>