<svg xmlns="http://www.w3.org/2000/svg" xmlns:svg="http://www.w3.org/2000/svg" xmlns:xlink="http://www.w3.org/1999/xlink" id="svg2985" width="14" height="14" version="1.1"><defs id="defs2987"><linearGradient id="linearGradient3814"><stop id="stop3816" offset="0" stop-color="#8f8f8f" stop-opacity="1"/><stop id="stop3818" offset="1" stop-color="#d7d7d7" stop-opacity="1"/></linearGradient><linearGradient id="linearGradient3807"><stop id="stop3809" offset="0" stop-color="#151515" stop-opacity="1"/><stop id="stop3811" offset="1" stop-color="#959595" stop-opacity="1"/></linearGradient><linearGradient id="linearGradient3046" x1="1" x2="1" y1="15" y2="5" gradientUnits="userSpaceOnUse" xlink:href="#linearGradient3807"/><linearGradient id="linearGradient3820" x1="-5" x2="7" y1="10" y2="10" gradientUnits="userSpaceOnUse" xlink:href="#linearGradient3814"/></defs><metadata id="metadata2990"/><g id="layer1" transform="translate(-0.9999999,-33)"><path id="path3781-9-5-7" fill="#c6c6c6" fill-opacity="1" stroke="none" d="m 7,10 c 0,2.761424 -2.6862915,5 -6,5 -3.3137085,0 -6,-2.238576 -6,-5 0,-2.7614237 2.6862915,-5 6,-5 3.3137085,0 6,2.2385763 6,5 z" transform="matrix(-1.1666667,0,0,-1.4,9.1666668,54)"/><path id="path3781-9-5-7-6" fill="#fff" fill-opacity="1" stroke="none" d="m 7,10 c 0,2.761424 -2.6862915,5 -6,5 -3.3137085,0 -6,-2.238576 -6,-5 0,-2.7614237 2.6862915,-5 6,-5 3.3137085,0 6,2.2385763 6,5 z" transform="matrix(-1,0,0,-1.2,9,52)"/><path id="path3781-9-5-7-9" fill="url(#linearGradient3046)" fill-opacity="1" stroke="none" d="m 7,10 c 0,2.761424 -2.6862915,5 -6,5 -3.3137085,0 -6,-2.238576 -6,-5 0,-2.7614237 2.6862915,-5 6,-5 3.3137085,0 6,2.2385763 6,5 z" transform="matrix(0.66666667,0,0,0.8,7.3333334,32)"/><path id="path3781-9-5-7-9-0" fill="url(#linearGradient3820)" fill-opacity="1" stroke="none" d="m 7,10 c 0,2.761424 -2.6862915,5 -6,5 -3.3137085,0 -6,-2.238576 -6,-5 0,-2.7614237 2.6862915,-5 6,-5 3.3137085,0 6,2.2385763 6,5 z" transform="matrix(0,-0.33333333,0.4,0,3.9999999,39.333333)"/></g></svg>