<svg xmlns="http://www.w3.org/2000/svg" xmlns:svg="http://www.w3.org/2000/svg" xmlns:xlink="http://www.w3.org/1999/xlink" id="svg3273" width="65" height="22" version="1.1"><defs id="defs3275"><linearGradient id="linearGradient3862"><stop id="stop3864" offset="0" stop-color="#000" stop-opacity="1"/><stop id="stop3866" offset="1" stop-color="#000" stop-opacity=".367"/></linearGradient><clipPath id="clipPath5926" clipPathUnits="userSpaceOnUse"><path id="path5928" fill="#f0f" fill-opacity="1" fill-rule="nonzero" stroke="none" stroke-width="2" d="m 88,272 a 8,8 0 1 1 -16,0 8,8 0 1 1 16,0 z" color="#000" display="inline" enable-background="accumulate" overflow="visible" transform="matrix(0.75,0,0,0.75,-41,121.36217)" visibility="visible" style="marker:none"/></clipPath><clipPath id="clipPath4783" clipPathUnits="userSpaceOnUse"><rect id="rect4785" width="84" height="80" x="-156" y="282.362" fill="#f0f" fill-opacity="1" fill-rule="nonzero" stroke="none" rx="6" ry="6"/></clipPath><linearGradient id="linearGradient4852" x1="48.234" x2="126.139" y1="48.047" y2="66.233" gradientUnits="userSpaceOnUse" xlink:href="#linearGradient4071-3"/><linearGradient id="linearGradient4071-3"><stop id="stop4073-8" offset="0" stop-color="#000" stop-opacity="1"/><stop id="stop4075-4" offset="1" stop-color="#000" stop-opacity="0"/></linearGradient><linearGradient id="linearGradient4854" x1="48.055" x2="126.673" y1="48.032" y2="62.839" gradientUnits="userSpaceOnUse" xlink:href="#linearGradient4047-2"/><linearGradient id="linearGradient4047-2"><stop id="stop4049-0" offset="0" stop-color="#000" stop-opacity="1"/><stop id="stop4051-5" offset="1" stop-color="#000" stop-opacity="0"/></linearGradient><linearGradient id="linearGradient4857" x1="47.997" x2="127.052" y1="48.029" y2="60.29" gradientUnits="userSpaceOnUse" xlink:href="#linearGradient4047-2"/><linearGradient id="linearGradient4859" x1="47.998" x2="127.416" y1="48.029" y2="57.665" gradientUnits="userSpaceOnUse" xlink:href="#linearGradient4047-2"/><linearGradient id="linearGradient4861" x1="48.234" x2="126.139" y1="48.047" y2="66.233" gradientUnits="userSpaceOnUse" xlink:href="#linearGradient4115-2"/><linearGradient id="linearGradient4115-2"><stop id="stop4117-3" offset="0" stop-color="#fff" stop-opacity="1"/><stop id="stop4119-6" offset="1" stop-color="#fff" stop-opacity="0"/></linearGradient><linearGradient id="linearGradient4863" x1="48.055" x2="126.673" y1="48.032" y2="62.839" gradientUnits="userSpaceOnUse" xlink:href="#linearGradient4115-2"/><linearGradient id="linearGradient4865" x1="47.997" x2="127.052" y1="48.029" y2="60.29" gradientUnits="userSpaceOnUse" xlink:href="#linearGradient4115-2"/><linearGradient id="linearGradient4867" x1="47.998" x2="127.416" y1="48.029" y2="57.665" gradientUnits="userSpaceOnUse" xlink:href="#linearGradient4115-2"/><linearGradient id="linearGradient4869" x1="48.234" x2="126.139" y1="48.047" y2="66.233" gradientUnits="userSpaceOnUse" xlink:href="#linearGradient4071-3"/><linearGradient id="linearGradient4871" x1="48.055" x2="126.673" y1="48.032" y2="62.839" gradientUnits="userSpaceOnUse" xlink:href="#linearGradient4047-2"/><linearGradient id="linearGradient4873" x1="47.997" x2="127.052" y1="48.029" y2="60.29" gradientUnits="userSpaceOnUse" xlink:href="#linearGradient4047-2"/><linearGradient id="linearGradient4875" x1="47.998" x2="127.416" y1="48.029" y2="57.665" gradientUnits="userSpaceOnUse" xlink:href="#linearGradient4047-2"/><linearGradient id="linearGradient4877" x1="48.234" x2="126.139" y1="48.047" y2="66.233" gradientUnits="userSpaceOnUse" xlink:href="#linearGradient4071-3"/><linearGradient id="linearGradient4879" x1="48.055" x2="126.673" y1="48.032" y2="62.839" gradientUnits="userSpaceOnUse" xlink:href="#linearGradient4047-2"/><linearGradient id="linearGradient4881" x1="47.997" x2="127.052" y1="48.029" y2="60.29" gradientUnits="userSpaceOnUse" xlink:href="#linearGradient4047-2"/><linearGradient id="linearGradient4883" x1="47.998" x2="127.416" y1="48.029" y2="57.665" gradientUnits="userSpaceOnUse" xlink:href="#linearGradient4047-2"/><linearGradient id="linearGradient4885" x1="48.234" x2="126.139" y1="48.047" y2="66.233" gradientUnits="userSpaceOnUse" xlink:href="#linearGradient4115-2"/><linearGradient id="linearGradient4887" x1="48.055" x2="126.673" y1="48.032" y2="62.839" gradientUnits="userSpaceOnUse" xlink:href="#linearGradient4115-2"/><linearGradient id="linearGradient4889" x1="47.997" x2="127.052" y1="48.029" y2="60.29" gradientUnits="userSpaceOnUse" xlink:href="#linearGradient4115-2"/><linearGradient id="linearGradient4891" x1="47.998" x2="127.416" y1="48.029" y2="57.665" gradientUnits="userSpaceOnUse" xlink:href="#linearGradient4115-2"/><linearGradient id="linearGradient3895"><stop id="stop3897" offset="0" stop-color="#fff" stop-opacity="1"/><stop id="stop3899" offset="1" stop-color="#fff" stop-opacity="0"/></linearGradient><linearGradient id="linearGradient4511" x1="54" x2="73" y1="272" y2="272" gradientTransform="matrix(0,1.1666667,1.1666667,0,-269.33333,334.36217)" gradientUnits="userSpaceOnUse" xlink:href="#linearGradient3895"/><linearGradient id="linearGradient4336" x1="35" x2="35" y1="3" y2="19" gradientTransform="translate(-2,0)" gradientUnits="userSpaceOnUse" xlink:href="#linearGradient3862"/><linearGradient id="linearGradient4394" x1="35" x2="35" y1="2" y2="22" gradientUnits="userSpaceOnUse" xlink:href="#linearGradient4115-2"/><linearGradient id="linearGradient4071-3-3"><stop id="stop4073-8-8" offset="0" stop-color="#000" stop-opacity="1"/><stop id="stop4075-4-7" offset="1" stop-color="#000" stop-opacity="0"/></linearGradient><linearGradient id="linearGradient5163" x1="35" x2="35" y1="3" y2="26" gradientTransform="translate(-2,0)" gradientUnits="userSpaceOnUse" xlink:href="#linearGradient4071-3-3"/><linearGradient id="linearGradient5166" x1="35" x2="35" y1="3" y2="37" gradientTransform="translate(-2,0)" gradientUnits="userSpaceOnUse" xlink:href="#linearGradient4071-3-3"/></defs><metadata id="metadata3278"/><g id="layer1"><path id="path4392" fill="url(#linearGradient4394)" fill-opacity="1" fill-rule="nonzero" stroke="none" stroke-width="2" d="m 27,2.03125 c -4.956878,0 -8.96875,4.0118722 -8.96875,8.96875 0,4.956878 4.011872,8.96875 8.96875,8.96875 l 14,0 c 4.956878,0 8.96875,-4.011872 8.96875,-8.96875 0,-4.9568778 -4.011872,-8.96875 -8.96875,-8.96875 z" color="#000" display="inline" enable-background="accumulate" opacity=".2" overflow="visible" transform="matrix(1,0,0,-1,0,22)" visibility="visible" style="marker:none"/><rect id="rect3560" width="30" height="16" x="17" y="3" fill="url(#linearGradient4336)" fill-opacity="1" fill-rule="nonzero" stroke="none" stroke-width="2" color="#000" display="inline" enable-background="accumulate" opacity=".6" overflow="visible" rx="8" ry="8" visibility="visible" style="marker:none"/><path id="rect4950" fill="url(#linearGradient5163)" fill-opacity="1" fill-rule="nonzero" stroke="none" stroke-width="2" d="m 25,3 c -4.432,0 -8,3.568 -8,8 0,4.432 3.568,8 8,8 l 14,0 c 4.432,0 8,-3.568 8,-8 0,-4.432 -3.568,-8 -8,-8 z m 0,2.0625 14,0 c 3.322449,0 5.9375,2.615051 5.9375,5.9375 0,3.322449 -2.615051,5.9375 -5.9375,5.9375 l -14,0 c -3.322449,0 -5.9375,-2.615051 -5.9375,-5.9375 0,-3.322449 2.615051,-5.9375 5.9375,-5.9375 z" color="#000" display="inline" enable-background="accumulate" opacity=".2" overflow="visible" visibility="visible" style="marker:none"/><path id="rect4944" fill="url(#linearGradient5166)" fill-opacity="1" fill-rule="nonzero" stroke="none" stroke-width="2" d="m 25,3 c -4.432,0 -8,3.568 -8,8 0,4.432 3.568,8 8,8 l 14,0 c 4.432,0 8,-3.568 8,-8 0,-4.432 -3.568,-8 -8,-8 z m 0,0.96875 14,0 c 3.909758,0 7.03125,3.121492 7.03125,7.03125 0,3.909758 -3.121492,7.03125 -7.03125,7.03125 l -14,0 c -3.909758,0 -7.03125,-3.121492 -7.03125,-7.03125 0,-3.909758 3.121492,-7.03125 7.03125,-7.03125 z" color="#000" display="inline" enable-background="accumulate" opacity=".4" overflow="visible" visibility="visible" style="marker:none"/><g id="g4941" transform="translate(-9,-393.36217)"><path id="path4712" fill="#000" fill-opacity="1" fill-rule="nonzero" stroke="none" stroke-width="2" d="m 80,262.625 c -5.156273,0 -9.375,4.21873 -9.375,9.375 0,5.15627 4.218727,9.375 9.375,9.375 5.156273,0 9.375,-4.21873 9.375,-9.375 0,-5.15627 -4.218727,-9.375 -9.375,-9.375 z" color="#000" display="inline" enable-background="accumulate" opacity=".05" overflow="visible" transform="matrix(0.855,0,0,0.85666688,-20.415625,171.34878)" visibility="visible" style="marker:none"/><path id="path4714" fill="none" stroke="none" stroke-width="2" d="m 88,272 c 0,4.41828 -3.581722,8 -8,8 -4.418278,0 -8,-3.58172 -8,-8 0,-4.41828 3.581722,-8 8,-8 4.418278,0 8,3.58172 8,8 z" color="#000" display="inline" enable-background="accumulate" opacity=".5" overflow="visible" transform="matrix(0.875,0,0,0.875,-23,167.36217)" visibility="visible" style="marker:none"/><path id="path4716" fill="#000" fill-opacity="1" fill-rule="nonzero" stroke="none" stroke-width="2" d="m 88,272 c 0,4.41828 -3.581722,8 -8,8 -4.418278,0 -8,-3.58172 -8,-8 0,-4.41828 3.581722,-8 8,-8 4.418278,0 8,3.58172 8,8 z" color="#000" display="inline" enable-background="accumulate" opacity=".2" overflow="visible" transform="matrix(0.875,0,0,0.875,-22,167.36217)" visibility="visible" style="marker:none"/><g id="g4718" clip-path="url(#clipPath5926)" transform="matrix(1.1666667,0,0,1.1666667,25.833333,24.772972)"><rect id="rect4720" width="14" height="14" x="12" y="318.362" fill="#e6e6e6" fill-opacity="1" fill-rule="nonzero" stroke="none" rx="1" ry="1"/><g id="g4722" clip-path="url(#clipPath4783)" transform="matrix(0.16666667,0,0,0.175,38,268.9488)"><g id="g4724" opacity=".9" transform="matrix(0.1413721,0.99271966,-1.1651755,0.12044784,-65.062734,269.16749)"><path id="path4726" fill="url(#linearGradient4852)" fill-opacity="1" fill-rule="nonzero" stroke="none" stroke-width="2" d="m 108.8959,48 c 0,9.541976 -2.24232,18.950422 -6.54616,27.466658 L 48,48 z" color="#000" display="inline" enable-background="accumulate" opacity=".05" overflow="visible" transform="matrix(0.99411049,-0.1083712,0.1083712,0.99411049,-5.1582185,5.4918915)" visibility="visible" style="marker:none"/><path id="path4728" fill="url(#linearGradient4854)" fill-opacity="1" fill-rule="nonzero" stroke="none" stroke-width="2" d="m 108.8959,48 c 0,7.838782 -1.51343,15.60384 -4.45721,22.86887 L 48,48 z" color="#000" display="inline" enable-background="accumulate" opacity=".07" overflow="visible" transform="matrix(0.99786084,-0.06537382,0.06537382,0.99786084,-3.0940115,3.2415713)" visibility="visible" style="marker:none"/><path id="path4730" fill="url(#linearGradient4857)" fill-opacity="1" fill-rule="nonzero" stroke="none" stroke-width="2" d="m 108.8959,48 c 0,6.55049 -1.05689,13.058072 -3.12994,19.271878 L 48,48 z" color="#000" display="inline" enable-background="accumulate" opacity=".1" overflow="visible" transform="matrix(0.99945136,-0.0331207,0.0331207,0.99945136,-1.5634586,1.6161281)" visibility="visible" style="marker:none"/><path id="path4732" fill="url(#linearGradient4859)" fill-opacity="1" fill-rule="nonzero" stroke="none" stroke-width="2" d="m 108.8959,48 c 0,5.321771 -0.6976,10.620584 -2.07497,15.76102 L 48,48 z" color="#000" display="inline" enable-background="accumulate" opacity=".1" overflow="visible" visibility="visible" style="marker:none"/></g><g id="g4734" fill="#fff" opacity=".9" transform="matrix(1.062807,-0.13087531,-0.74010065,3.227468,-129.47489,173.69443)"><path id="path4736" fill="url(#linearGradient4861)" fill-opacity="1" fill-rule="nonzero" stroke="none" stroke-width="2" d="m 108.8959,48 c 0,9.541976 -2.24232,18.950422 -6.54616,27.466658 L 48,48 z" color="#000" display="inline" enable-background="accumulate" opacity=".2" overflow="visible" transform="matrix(0.99411049,-0.1083712,0.1083712,0.99411049,-5.1582185,5.4918915)" visibility="visible" style="marker:none"/><path id="path4738" fill="url(#linearGradient4863)" fill-opacity="1" fill-rule="nonzero" stroke="none" stroke-width="2" d="m 108.8959,48 c 0,7.838782 -1.51343,15.60384 -4.45721,22.86887 L 48,48 z" color="#000" display="inline" enable-background="accumulate" opacity=".4" overflow="visible" transform="matrix(0.99786084,-0.06537382,0.06537382,0.99786084,-3.0940115,3.2415713)" visibility="visible" style="marker:none"/><path id="path4740" fill="url(#linearGradient4865)" fill-opacity="1" fill-rule="nonzero" stroke="none" stroke-width="2" d="m 108.8959,48 c 0,6.55049 -1.05689,13.058072 -3.12994,19.271878 L 48,48 z" color="#000" display="inline" enable-background="accumulate" opacity=".6" overflow="visible" transform="matrix(0.99945136,-0.0331207,0.0331207,0.99945136,-1.5634586,1.6161281)" visibility="visible" style="marker:none"/><path id="path4742" fill="url(#linearGradient4867)" fill-opacity="1" fill-rule="nonzero" stroke="none" stroke-width="2" d="m 108.8959,48 c 0,5.321771 -0.6976,10.620584 -2.07497,15.76102 L 48,48 z" color="#000" display="inline" enable-background="accumulate" opacity=".8" overflow="visible" visibility="visible" style="marker:none"/></g><g id="g4744" opacity=".5" transform="matrix(-0.61678932,0.78712829,-0.78712829,-0.61678932,-46.99852,314.3741)"><path id="path4746" fill="url(#linearGradient4869)" fill-opacity="1" fill-rule="nonzero" stroke="none" stroke-width="2" d="m 108.8959,48 c 0,9.541976 -2.24232,18.950422 -6.54616,27.466658 L 48,48 z" color="#000" display="inline" enable-background="accumulate" opacity=".05" overflow="visible" transform="matrix(0.99411049,-0.1083712,0.1083712,0.99411049,-5.1582185,5.4918915)" visibility="visible" style="marker:none"/><path id="path4748" fill="url(#linearGradient4871)" fill-opacity="1" fill-rule="nonzero" stroke="none" stroke-width="2" d="m 108.8959,48 c 0,7.838782 -1.51343,15.60384 -4.45721,22.86887 L 48,48 z" color="#000" display="inline" enable-background="accumulate" opacity=".07" overflow="visible" transform="matrix(0.99786084,-0.06537382,0.06537382,0.99786084,-3.0940115,3.2415713)" visibility="visible" style="marker:none"/><path id="path4750" fill="url(#linearGradient4873)" fill-opacity="1" fill-rule="nonzero" stroke="none" stroke-width="2" d="m 108.8959,48 c 0,6.55049 -1.05689,13.058072 -3.12994,19.271878 L 48,48 z" color="#000" display="inline" enable-background="accumulate" opacity=".1" overflow="visible" transform="matrix(0.99945136,-0.0331207,0.0331207,0.99945136,-1.5634586,1.6161281)" visibility="visible" style="marker:none"/><path id="path4752" fill="url(#linearGradient4875)" fill-opacity="1" fill-rule="nonzero" stroke="none" stroke-width="2" d="m 108.8959,48 c 0,5.321771 -0.6976,10.620584 -2.07497,15.76102 L 48,48 z" color="#000" display="inline" enable-background="accumulate" opacity=".1" overflow="visible" visibility="visible" style="marker:none"/></g><g id="g4754" opacity=".8" transform="matrix(-0.06817198,-1.0460056,2.710673,0.60162586,-241.09545,343.4423)"><path id="path4756" fill="url(#linearGradient4877)" fill-opacity="1" fill-rule="nonzero" stroke="none" stroke-width="2" d="m 108.8959,48 c 0,9.541976 -2.24232,18.950422 -6.54616,27.466658 L 48,48 z" color="#000" display="inline" enable-background="accumulate" opacity=".05" overflow="visible" transform="matrix(0.99411049,-0.1083712,0.1083712,0.99411049,-5.1582185,5.4918915)" visibility="visible" style="marker:none"/><path id="path4758" fill="url(#linearGradient4879)" fill-opacity="1" fill-rule="nonzero" stroke="none" stroke-width="2" d="m 108.8959,48 c 0,7.838782 -1.51343,15.60384 -4.45721,22.86887 L 48,48 z" color="#000" display="inline" enable-background="accumulate" opacity=".07" overflow="visible" transform="matrix(0.99786084,-0.06537382,0.06537382,0.99786084,-3.0940115,3.2415713)" visibility="visible" style="marker:none"/><path id="path4760" fill="url(#linearGradient4881)" fill-opacity="1" fill-rule="nonzero" stroke="none" stroke-width="2" d="m 108.8959,48 c 0,6.55049 -1.05689,13.058072 -3.12994,19.271878 L 48,48 z" color="#000" display="inline" enable-background="accumulate" opacity=".1" overflow="visible" transform="matrix(0.99945136,-0.0331207,0.0331207,0.99945136,-1.5634586,1.6161281)" visibility="visible" style="marker:none"/><path id="path4762" fill="url(#linearGradient4883)" fill-opacity="1" fill-rule="nonzero" stroke="none" stroke-width="2" d="m 108.8959,48 c 0,5.321771 -0.6976,10.620584 -2.07497,15.76102 L 48,48 z" color="#000" display="inline" enable-background="accumulate" opacity=".1" overflow="visible" visibility="visible" style="marker:none"/></g><g id="g4764" fill="#fff" opacity=".9" transform="matrix(-1.062807,0.1308753,0.74010064,-3.227468,-99.003306,471.02991)"><path id="path4766" fill="url(#linearGradient4885)" fill-opacity="1" fill-rule="nonzero" stroke="none" stroke-width="2" d="m 108.8959,48 c 0,9.541976 -2.24232,18.950422 -6.54616,27.466658 L 48,48 z" color="#000" display="inline" enable-background="accumulate" opacity=".2" overflow="visible" transform="matrix(0.99411049,-0.1083712,0.1083712,0.99411049,-5.1582185,5.4918915)" visibility="visible" style="marker:none"/><path id="path4768" fill="url(#linearGradient4887)" fill-opacity="1" fill-rule="nonzero" stroke="none" stroke-width="2" d="m 108.8959,48 c 0,7.838782 -1.51343,15.60384 -4.45721,22.86887 L 48,48 z" color="#000" display="inline" enable-background="accumulate" opacity=".4" overflow="visible" transform="matrix(0.99786084,-0.06537382,0.06537382,0.99786084,-3.0940115,3.2415713)" visibility="visible" style="marker:none"/><path id="path4770" fill="url(#linearGradient4889)" fill-opacity="1" fill-rule="nonzero" stroke="none" stroke-width="2" d="m 108.8959,48 c 0,6.55049 -1.05689,13.058072 -3.12994,19.271878 L 48,48 z" color="#000" display="inline" enable-background="accumulate" opacity=".6" overflow="visible" transform="matrix(0.99945136,-0.0331207,0.0331207,0.99945136,-1.5634586,1.6161281)" visibility="visible" style="marker:none"/><path id="path4772" fill="url(#linearGradient4891)" fill-opacity="1" fill-rule="nonzero" stroke="none" stroke-width="2" d="m 108.8959,48 c 0,5.321771 -0.6976,10.620584 -2.07497,15.76102 L 48,48 z" color="#000" display="inline" enable-background="accumulate" opacity=".8" overflow="visible" visibility="visible" style="marker:none"/></g></g></g><path id="path4776" fill="none" stroke="none" stroke-width="2" d="m 88,272 c 0,4.41828 -3.581722,8 -8,8 -4.418278,0 -8,-3.58172 -8,-8 0,-4.41828 3.581722,-8 8,-8 4.418278,0 8,3.58172 8,8 z" color="#000" display="inline" enable-background="accumulate" opacity=".5" overflow="visible" transform="matrix(0.875,0,0,0.875,-22,166.36217)" visibility="visible" style="marker:none"/><path id="path4778" fill="url(#linearGradient4511)" fill-opacity="1" fill-rule="nonzero" stroke="none" stroke-width="2" d="m 41,404.36217 c 0,-3.866 3.134005,-7 7,-7 3.865995,0 7,3.134 7,7 0,3.86599 -3.134005,7 -7,7 -3.865995,0 -7,-3.13401 -7,-7 z m 1.166667,0 c 0,3.22167 2.611676,5.83333 5.833333,5.83333 3.221657,0 5.833333,-2.61166 5.833333,-5.83333 0,-3.22166 -2.611676,-5.83333 -5.833333,-5.83333 -3.221657,0 -5.833333,2.61167 -5.833333,5.83333 z" color="#000" display="inline" enable-background="accumulate" opacity=".6" overflow="visible" visibility="visible" style="marker:none"/></g><g id="g3548" fill="#333" opacity=".3"><path font-stretch="normal" style="line-height:125%;-inkscape-font-specification:Aller Bold" id="path3534" fill="#333" fill-opacity="1" stroke="none" d="M 4.0888661,14.07 C 3.6404637,14.069999 3.252959,13.9925 2.9263491,13.837496 2.5997355,13.682494 2.3312498,13.469366 2.1208909,13.198112 1.9105298,12.921323 1.7527598,12.597479 1.6475804,12.22658 1.5479355,11.850148 1.4981135,11.440499 1.4981139,10.997633 1.4981135,10.554772 1.5479353,10.145124 1.6475804,9.7686864 1.7527598,9.3867211 1.9105298,9.0573416 2.1208909,8.7805469 2.3312498,8.5037626 2.5997355,8.2878669 2.9263491,8.1328589 3.252959,7.9778627 3.6404637,7.9003616 4.0888661,7.9003555 c 0.4483957,6.1e-6 0.8359011,0.077507 1.162517,0.2325034 0.3266077,0.155008 0.5950932,0.3709037 0.8054582,0.647688 0.2103552,0.2767947 0.3653572,0.6061742 0.4650068,0.9881395 0.1051746,0.3764376 0.1577641,0.7860856 0.1577702,1.2289466 -6.1e-6,0.442866 -0.052593,0.852515 -0.1577702,1.228947 -0.09965,0.370899 -0.2546516,0.694743 -0.4650068,0.971532 -0.210365,0.271254 -0.4788505,0.484382 -0.8054582,0.639384 C 4.9247672,13.992498 4.5372618,14.069999 4.0888661,14.07 m 0,-1.013051 c 0.858044,1e-6 1.2870679,-0.686438 1.2870724,-2.059316 C 5.375934,10.311198 5.2707541,9.7963695 5.0603982,9.453146 4.8555702,9.1099316 4.5344944,8.9383221 4.0971698,8.9383171 3.228048,8.9383221 2.7934886,9.62476 2.7934901,10.997633 c -1.5e-6,1.372878 0.4317897,2.059317 1.295376,2.059316" font-family="Aller" font-size="11" font-style="normal" font-variant="normal" font-weight="bold" letter-spacing="0" word-spacing="0"/><path font-stretch="normal" style="line-height:125%;-inkscape-font-specification:Aller Bold" id="path3536" fill="#333" fill-opacity="1" stroke="none" d="m 7.789,7.9999998 c 0.1716094,-0.033209 0.3349152,-0.049816 0.4899179,-0.049822 0.1660731,6.1e-6 0.3376825,0.016614 0.514829,0.049822 l 2.3084271,3.8030912 0,-3.8030912 c 0.199285,-0.033209 0.39027,-0.049816 0.572955,-0.049822 0.171605,6.1e-6 0.337678,0.016614 0.498221,0.049822 l 0,5.9703552 c -0.17715,0.03322 -0.337687,0.04982 -0.481614,0.04982 -0.155006,0 -0.323848,-0.01661 -0.506525,-0.04982 l -2.3250346,-3.794788 0,3.794788 c -0.1771464,0.03322 -0.3570595,0.04982 -0.53974,0.04982 -0.182682,0 -0.359827,-0.01661 -0.5314364,-0.04982 l 0,-5.9703552" font-family="Aller" font-size="11" font-style="normal" font-variant="normal" font-weight="bold" letter-spacing="0" word-spacing="0"/></g><g id="g3555" fill="#333" transform="translate(2,0)"><path font-stretch="normal" style="line-height:125%;-inkscape-font-specification:Aller Bold" id="path3542" fill="#333" fill-opacity="1" stroke="none" d="m 51.118515,13.821442 c -0.436073,0 -0.812923,-0.07537 -1.130551,-0.22611 -0.317633,-0.15074 -0.578737,-0.358008 -0.783311,-0.621803 -0.204577,-0.269179 -0.358009,-0.584118 -0.460296,-0.944819 -0.09691,-0.366081 -0.145358,-0.764466 -0.145357,-1.195154 -10e-7,-0.430683 0.04845,-0.829068 0.145357,-1.1951555 0.102287,-0.3714625 0.255719,-0.6917852 0.460296,-0.960969 0.204574,-0.2691736 0.465678,-0.4791331 0.783311,-0.6298788 0.317628,-0.1507344 0.694478,-0.2261045 1.130551,-0.2261104 0.436067,5.9e-6 0.812917,0.075376 1.130552,0.2261104 0.317626,0.1507457 0.57873,0.3607052 0.783311,0.6298788 0.20457,0.2691838 0.355311,0.5895065 0.452221,0.960969 0.102282,0.3660875 0.153426,0.7644725 0.153432,1.1951555 -6e-6,0.430688 -0.05115,0.829073 -0.153432,1.195154 -0.09691,0.360701 -0.247651,0.67564 -0.452221,0.944819 -0.204581,0.263795 -0.465685,0.471063 -0.783311,0.621803 -0.317635,0.15074 -0.694485,0.22611 -1.130552,0.22611 m 0,-0.985195 c 0.834451,10e-7 1.251678,-0.667563 1.251683,-2.002691 -5e-6,-0.667561 -0.102293,-1.1682335 -0.306864,-1.5020195 -0.199197,-0.3337772 -0.511444,-0.5006681 -0.936743,-0.5006729 -0.845225,4.8e-6 -1.267836,0.6675681 -1.267833,2.0026924 -3e-6,1.335128 0.419917,2.002692 1.259757,2.002691" font-family="Aller" font-size="11" font-style="normal" font-variant="normal" font-weight="bold" letter-spacing="0" word-spacing="0"/><path font-stretch="normal" style="line-height:125%;-inkscape-font-specification:Aller Bold" id="path3544" fill="#333" fill-opacity="1" stroke="none" d="m 54.819505,7.9183468 3.294751,0 c 0.0323,0.161513 0.04845,0.325712 0.04845,0.4925975 -4e-6,0.1776633 -0.01616,0.3472459 -0.04845,0.5087483 l -2.115747,0 0,1.3647374 1.679677,0 c 0.0323,0.172278 0.04845,0.339169 0.04845,0.500673 -4e-6,0.172277 -0.01616,0.34186 -0.04845,0.508749 l -1.679677,0 0,2.430686 c -0.204577,0.0323 -0.398385,0.04845 -0.581426,0.04845 -0.199194,0 -0.398386,-0.01615 -0.597578,-0.04845 l 0,-5.8061912" font-family="Aller" font-size="11" font-style="normal" font-variant="normal" font-weight="bold" letter-spacing="0" word-spacing="0"/><path font-stretch="normal" style="line-height:125%;-inkscape-font-specification:Aller Bold" id="path3546" fill="#333" fill-opacity="1" stroke="none" d="m 58.92028,7.9183468 3.29475,0 c 0.03229,0.161513 0.04845,0.325712 0.04845,0.4925975 -5e-6,0.1776633 -0.01616,0.3472459 -0.04845,0.5087483 l -2.115746,0 0,1.3647374 1.679677,0 c 0.03229,0.172278 0.04845,0.339169 0.04845,0.500673 -4e-6,0.172277 -0.01616,0.34186 -0.04845,0.508749 l -1.679677,0 0,2.430686 c -0.204578,0.0323 -0.398387,0.04845 -0.581427,0.04845 -0.199194,0 -0.398386,-0.01615 -0.597577,-0.04845 l 0,-5.8061912" font-family="Aller" font-size="11" font-style="normal" font-variant="normal" font-weight="bold" letter-spacing="0" word-spacing="0"/></g></g></svg>