<svg xmlns="http://www.w3.org/2000/svg" xmlns:svg="http://www.w3.org/2000/svg" id="svg11300" width="24" height="24" display="inline" enable-background="new" version="1.0"><metadata id="metadata4"/><g id="layer1" display="inline" transform="translate(0,-276)"><path id="rect4161" fill="#000" fill-opacity="1" stroke="none" d="M 5 2 C 3.338 2 2 3.338 2 5 L 2 19 C 2 20.662 3.338 22 5 22 L 19 22 C 20.662 22 22 20.662 22 19 L 22 5 C 22 3.338 20.662 2 19 2 L 5 2 z M 5 3 L 19 3 C 20.108 3 21 3.892 21 5 L 21 19 C 21 20.108 20.108 21 19 21 L 5 21 C 3.892 21 3 20.108 3 19 L 3 5 C 3 3.892 3.892 3 5 3 z" opacity=".45" transform="translate(0,276)"/><rect id="rect3021" width="18" height="18" x="3" y="279" fill="#8abf5c" fill-opacity="1" stroke="none" rx="2" ry="2"/></g></svg>