<svg xmlns="http://www.w3.org/2000/svg" xmlns:svg="http://www.w3.org/2000/svg" xmlns:xlink="http://www.w3.org/1999/xlink" id="svg11300" width="24" height="24" display="inline" enable-background="new" version="1.0"><defs id="defs3"><linearGradient id="linearGradient3955"><stop id="stop3957" offset="0" stop-color="#fff" stop-opacity="0"/><stop id="stop3959" offset="1" stop-color="#fff" stop-opacity="1"/></linearGradient><linearGradient id="linearGradient3773"><stop id="stop3775" offset="0" stop-color="#7ec83c" stop-opacity="1"/><stop id="stop3777" offset="1" stop-color="#93d15b" stop-opacity="1"/></linearGradient><linearGradient id="linearGradient3948" x1="25" x2="25" y1="23" y2="0" gradientTransform="matrix(0.91304348,0,0,0.91304348,-22.956522,277)" gradientUnits="userSpaceOnUse" xlink:href="#linearGradient3773"/><linearGradient id="linearGradient3950" x1="25" x2="25" y1="23" y2="0" gradientTransform="matrix(-1,0,0,1,24,0)" gradientUnits="userSpaceOnUse" xlink:href="#linearGradient3773"/></defs><metadata id="metadata4"/><g id="layer1" display="inline" transform="translate(0,-276)"><rect id="rect3003" width="20" height="20" x="2" y="278" fill="#000" fill-opacity="1" stroke="none" opacity=".9" rx="3" ry="3"/><path id="rect2995" fill="#8abf5c" fill-opacity="1" stroke="none" d="M 3 1.5488281 C 1.8060835 2.238072 1 3.5165874 1 5 L 1 19 C 1 20.48199 1.8072285 21.753438 3 22.441406 L 3 1.5488281 z" opacity=".9" transform="translate(0,276)"/><path id="rect6887" fill="#fff" fill-opacity="1" stroke="none" d="M 5 1 C 2.784 1 1 2.784 1 5 L 1 19 C 1 21.216 2.784 23 5 23 L 19 23 C 21.216 23 23 21.216 23 19 L 23 5 C 23 2.784 21.216 1 19 1 L 5 1 z M 5 2 L 19 2 C 20.662 2 22 3.338 22 5 L 22 19 C 22 20.662 20.662 22 19 22 L 5 22 C 3.338 22 2 20.662 2 19 L 2 5 C 2 3.338 3.338 2 5 2 z" opacity=".07" transform="translate(0,276)"/><path id="path4192" fill="#fff" fill-opacity="1" stroke="none" d="M 3 1.5507812 C 2.9471351 1.5775944 2.8933671 1.6030055 2.84375 1.6347656 C 2.7356704 1.7037558 2.6377195 1.7864848 2.5371094 1.8652344 C 2.4455981 1.9371292 2.354319 2.0084082 2.2695312 2.0878906 C 2.1869805 2.1649926 2.1108904 2.2482211 2.0351562 2.3320312 C 1.9502619 2.4263899 1.8686495 2.5227904 1.7929688 2.625 C 1.7247619 2.7167523 1.6598614 2.8105841 1.5996094 2.9082031 C 1.5328477 3.0168418 1.4743069 3.1308437 1.4179688 3.2460938 C 1.3694367 3.3450193 1.3196751 3.4434871 1.2792969 3.546875 C 1.225114 3.6862056 1.1850422 3.8320098 1.1464844 3.9785156 C 1.1226678 4.0687674 1.0917798 4.1553542 1.0742188 4.2480469 C 1.0281322 4.4918375 1 4.7424118 1 5 L 1 19 C 1 19.253613 1.029512 19.499965 1.0742188 19.740234 C 1.0928359 19.839553 1.1226248 19.934765 1.1484375 20.03125 C 1.1848991 20.168395 1.2232479 20.304694 1.2734375 20.435547 C 1.314915 20.542892 1.3637789 20.645512 1.4140625 20.748047 C 1.4661202 20.85502 1.5229342 20.959228 1.5839844 21.060547 C 1.6499707 21.169081 1.7191383 21.275607 1.7949219 21.376953 C 1.8535282 21.455989 1.9182594 21.529139 1.9824219 21.603516 C 2.0753273 21.710281 2.1677848 21.817743 2.2714844 21.914062 C 2.3134188 21.953319 2.3606902 21.986004 2.4042969 22.023438 C 2.5872435 22.179241 2.791742 22.307327 3 22.429688 L 3 21.21875 C 2.3892726 20.673468 2 19.887935 2 19 L 2 5 C 2 4.1120653 2.3892726 3.3265322 3 2.78125 L 3 1.5507812 z" opacity=".07" transform="translate(0,276)"/></g></svg>