<svg xmlns="http://www.w3.org/2000/svg" xmlns:svg="http://www.w3.org/2000/svg" id="svg11300" width="24" height="24" display="inline" enable-background="new" version="1.0"><metadata id="metadata4"/><g id="layer1" display="inline" transform="translate(0,-276)"><path id="rect6887" fill="#fff" fill-opacity="1" stroke="none" d="m 1,0 0,19 c 0,2.216 1.784,4 4,4 l 14,0 c 2.216,0 4,-1.784 4,-4 l 0,-19 -1,0 0,19 c 0,1.662 -1.338,3 -3,3 L 5,22 C 3.338,22 2,20.662 2,19 L 2,0 Z" display="inline" enable-background="new" opacity=".07" transform="translate(0,276)"/><path id="rect3003-9" fill="#000" fill-opacity="1" stroke="none" d="m 2,0 0,19 c 0,1.662 1.338,3 3,3 l 14,0 c 1.662,0 3,-1.338 3,-3 L 22,0 Z" display="inline" enable-background="new" opacity=".9" transform="translate(0,276)"/></g></svg>