<svg xmlns="http://www.w3.org/2000/svg" xmlns:svg="http://www.w3.org/2000/svg" id="svg11300" width="24" height="24" display="inline" enable-background="new" version="1.0"><metadata id="metadata4"/><g id="layer1" display="inline" transform="translate(0,-276)"><path id="rect4147" fill="#fff" fill-opacity="1" stroke="none" d="M 4,1 C 2.338,1 1,2.338 1,4 L 1,24 2,24 2,4 C 2,2.892 2.892,2 4,2 l 16,0 c 1.108,0 2,0.892 2,2 l 0,20 1,0 0,-20 C 23,2.338 21.662,1 20,1 Z" opacity=".07" transform="translate(0,276)"/><path id="rect3003" fill="#000" fill-opacity="1" stroke="none" d="M 4,2 C 2.892,2 2,2.892 2,4 L 2,24 22,24 22,4 C 22,2.892 21.108,2 20,2 Z" opacity=".9" transform="translate(0,276)"/></g></svg>