<svg xmlns="http://www.w3.org/2000/svg" xmlns:svg="http://www.w3.org/2000/svg" id="svg11300" width="24" height="24" display="inline" enable-background="new" version="1.0"><defs id="defs3"><linearGradient id="linearGradient3771"><stop id="stop3773" offset="0" stop-color="#fff" stop-opacity="1"/><stop id="stop3775" offset="1" stop-color="#eaeaea" stop-opacity="1"/></linearGradient></defs><metadata id="metadata4"/><g id="layer1" display="inline" transform="translate(0,-276)"><path id="rect6887" fill="#000" fill-opacity="1" stroke="none" d="m 0,276 0,20 c 0,2.216 1.784,4 4,4 l 16,0 c 2.216,0 4,-1.784 4,-4 l 0,-20 -1,0 0,20 c 0,1.662 -1.338,3 -3,3 l -16,0 c -1.662,0 -3,-1.338 -3,-3 l 0,-20 z" display="inline" enable-background="new" opacity=".9"/><path id="rect3003-9" fill="#141414" fill-opacity="1" stroke="none" d="m 1,276 0,20 c 0,1.662 1.338,3 3,3 l 16,0 c 1.662,0 3,-1.338 3,-3 l 0,-20 z" display="inline" enable-background="new" opacity=".9"/></g></svg>