<svg xmlns="http://www.w3.org/2000/svg" xmlns:svg="http://www.w3.org/2000/svg" id="svg11300" width="24" height="24" display="inline" enable-background="new" version="1.0"><metadata id="metadata4"/><g id="layer1" display="inline" transform="translate(0,-276)"><path id="rect4159" fill="#fff" fill-opacity="1" stroke="none" d="M 6 3 C 4.338 3 3 4.338 3 6 L 3 18 C 3 19.662 4.338 21 6 21 L 18 21 C 19.662 21 21 19.662 21 18 L 21 6 C 21 4.338 19.662 3 18 3 L 6 3 z M 6 4 L 18 4 C 19.108 4 20 4.892 20 6 L 20 18 C 20 19.108 19.108 20 18 20 L 6 20 C 4.892 20 4 19.108 4 18 L 4 6 C 4 4.892 4.892 4 6 4 z" opacity=".3" transform="translate(0,276)"/><rect id="rect4201" width="16" height="16" x="4" y="280" fill="#dcdcdc" fill-opacity="1" stroke="none" opacity=".2" rx="2" ry="2"/></g></svg>