<svg xmlns="http://www.w3.org/2000/svg" xmlns:svg="http://www.w3.org/2000/svg" id="svg11300" width="24" height="24" display="inline" enable-background="new" version="1.0"><metadata id="metadata4"/><g id="layer1" display="inline" transform="translate(0,-276)"><path id="rect4147" fill="#fff" fill-opacity="1" stroke="none" d="M 3 0 C 1.338 0 4.7509197e-18 1.338 0 3 L 0 21 C 0 22.662 1.338 24 3 24 L 21 24 C 22.662 24 24 22.662 24 21 L 24 3 C 24 1.338 22.662 4.7509197e-18 21 0 L 3 0 z M 3 1 L 21 1 C 22.108 1 23 1.892 23 3 L 23 21 C 23 22.108 22.108 23 21 23 L 3 23 C 1.892 23 1 22.108 1 21 L 1 3 C 1 1.892 1.892 1 3 1 z" opacity=".3" transform="translate(0,276)"/><rect id="rect4201" width="22" height="22" x="1" y="277" fill="#dcdcdc" fill-opacity="1" stroke="none" opacity=".2" rx="2" ry="2"/></g></svg>