<svg xmlns="http://www.w3.org/2000/svg" xmlns:svg="http://www.w3.org/2000/svg" xmlns:xlink="http://www.w3.org/1999/xlink" id="svg11300" width="24" height="24" display="inline" enable-background="new" version="1.0"><defs id="defs3"><linearGradient id="linearGradient3955"><stop id="stop3957" offset="0" stop-color="#fff" stop-opacity="0"/><stop id="stop3959" offset="1" stop-color="#fff" stop-opacity="1"/></linearGradient><linearGradient id="linearGradient3773"><stop id="stop3775" offset="0" stop-color="#7ec83c" stop-opacity="1"/><stop id="stop3777" offset="1" stop-color="#93d15b" stop-opacity="1"/></linearGradient><linearGradient id="linearGradient3948" x1="25" x2="25" y1="23" y2="0" gradientTransform="matrix(0.91304348,0,0,0.91304348,-22.956522,277)" gradientUnits="userSpaceOnUse" xlink:href="#linearGradient3773"/><linearGradient id="linearGradient3950" x1="25" x2="25" y1="23" y2="0" gradientTransform="matrix(-1,0,0,1,24,0)" gradientUnits="userSpaceOnUse" xlink:href="#linearGradient3773"/></defs><metadata id="metadata4"/><g id="layer1" display="inline" transform="translate(0,-276)"><path id="rect4161" fill="#000" fill-opacity="1" stroke="none" d="m 4,276 c -1.662,0 -3,1.338 -3,3 l 0,18 c 0,1.662 1.338,3 3,3 l 16,0 c 1.662,0 3,-1.338 3,-3 l 0,-18 c 0,-1.662 -1.338,-3 -3,-3 z m 0,1 16,0 c 1.108,0 2,0.892 2,2 l 0,18 c 0,1.108 -0.892,2 -2,2 l -16,0 c -1.108,0 -2,-0.892 -2,-2 l 0,-18 c 0,-1.108 0.892,-2 2,-2 z" opacity=".45"/><rect id="rect2995" width="20" height="22" x="-22" y="277" fill="#8abf5c" fill-opacity="1" stroke="none" opacity="1" rx="2" ry="2" transform="scale(-1,1)"/></g></svg>