<svg xmlns="http://www.w3.org/2000/svg" xmlns:svg="http://www.w3.org/2000/svg" id="svg11300" width="24" height="24" display="inline" enable-background="new" version="1.0"><metadata id="metadata4"/><g id="layer1" display="inline" transform="translate(0,-276)"><rect id="rect3003" width="17.948" height="17.948" x="3.052" y="279.052" fill="#141414" fill-opacity="1" stroke="none" opacity=".9" rx="3" ry="3"/><path id="rect7036" fill="#000" fill-opacity="1" stroke="none" d="m 6,279 c -1.662,0 -3,1.338 -3,3 l 0,12 c 0,1.662 1.338,3 3,3 l 12,0 c 1.662,0 3,-1.338 3,-3 l 0,-12 c 0,-1.662 -1.338,-3 -3,-3 z m 0,1 12,0 c 1.108,0 2,0.892 2,2 l 0,12 c 0,1.108 -0.892,2 -2,2 l -12,0 c -1.108,0 -2,-0.892 -2,-2 l 0,-12 c 0,-1.108 0.892,-2 2,-2 z" opacity=".9"/></g></svg>