<svg xmlns="http://www.w3.org/2000/svg" xmlns:svg="http://www.w3.org/2000/svg" xmlns:xlink="http://www.w3.org/1999/xlink" id="svg3832" width="26" height="26" version="1.1"><defs id="defs3834"><linearGradient id="linearGradient4479"><stop id="stop4481" offset="0" stop-color="#333" stop-opacity="1"/><stop id="stop4483" offset="1" stop-color="#333" stop-opacity="0"/></linearGradient><linearGradient id="linearGradient4485" x1="10" x2="28" y1="20.5" y2="20.5" gradientUnits="userSpaceOnUse" xlink:href="#linearGradient4479"/><clipPath id="clipPath4547" clipPathUnits="userSpaceOnUse"><path id="path4549" fill="#d40000" fill-opacity="1" stroke="#222" stroke-dasharray="none" stroke-miterlimit="4" stroke-opacity="1" stroke-width="0" d="m 15,23.5 a 15.5,16.5 0 1 1 -31,0 15.5,16.5 0 1 1 31,0 z" opacity=".1" transform="matrix(0.90322587,0,0,0.88888888,-12.048387,12.111111)"/></clipPath><clipPath id="clipPath4551" clipPathUnits="userSpaceOnUse"><path id="path4553" fill="#d40000" fill-opacity="1" stroke="#222" stroke-dasharray="none" stroke-miterlimit="4" stroke-opacity="1" stroke-width="0" d="m 15,23.5 a 15.5,16.5 0 1 1 -31,0 15.5,16.5 0 1 1 31,0 z" opacity=".1" transform="matrix(0,-0.83374695,0.67132869,0,3.2237757,20.083126)"/></clipPath><clipPath id="clipPath4555" clipPathUnits="userSpaceOnUse"><path id="path4557" fill="#d40000" fill-opacity="1" stroke="#222" stroke-dasharray="none" stroke-miterlimit="4" stroke-opacity="1" stroke-width="0" d="m 15,23.5 a 15.5,16.5 0 1 1 -31,0 15.5,16.5 0 1 1 31,0 z" opacity=".1" transform="matrix(0.71464025,0,0,0.78321681,19.35732,2.094405)"/></clipPath><clipPath id="clipPath4559" clipPathUnits="userSpaceOnUse"><path id="path4561" fill="#d40000" fill-opacity="1" stroke="#222" stroke-dasharray="none" stroke-miterlimit="4" stroke-opacity="1" stroke-width="0" d="m 15,23.5 a 15.5,16.5 0 1 1 -31,0 15.5,16.5 0 1 1 31,0 z" opacity=".1" transform="matrix(1.0322581,0,0,0.96969697,21.456127,4.2653102)"/></clipPath></defs><metadata id="metadata3837"/><g id="layer1" transform="translate(-4.9399973,-17.053189)"><path id="rect3079-7" fill="#00000f" fill-opacity="0" d="m -27.060003,36.053189 -10,-10 0,20 10,-10 z" clip-path="url(#clipPath4559)"/><path id="path4459" fill="#202020" fill-opacity="1" stroke="#222" stroke-dasharray="none" stroke-miterlimit="4" stroke-opacity="1" stroke-width="0" d="M 28,20.5 C 28,26.29899 23.970563,31 19,31 14.029437,31 10,26.29899 10,20.5 10,14.70101 14.029437,10 19,10 c 4.970563,0 9,4.70101 9,10.5 z" clip-path="url(#clipPath4555)" transform="matrix(1.4444444,0,0,1.2380952,-9.5044463,4.6722374)"/><path id="path4459-3" fill="url(#linearGradient4485)" fill-opacity="1" stroke="#222" stroke-dasharray="none" stroke-miterlimit="4" stroke-opacity="1" stroke-width="0" d="M 28,20.5 C 28,26.29899 23.970563,31 19,31 14.029437,31 10,26.29899 10,20.5 10,14.70101 14.029437,10 19,10 c 4.970563,0 9,4.70101 9,10.5 z" clip-path="url(#clipPath4551)" transform="matrix(0,1.4444444,-1.2380952,0,43.320949,2.6087454)"/><path id="path4487" fill="#202020" fill-opacity="1" stroke="#222" stroke-dasharray="none" stroke-miterlimit="4" stroke-opacity="1" stroke-width="0" d="m -2,33 c 0,6.075132 -4.7010101,11 -10.5,11 -5.79899,0 -10.5,-4.924868 -10.5,-11 0,-6.075132 4.70101,-11 10.5,-11 5.7989899,0 10.5,4.924868 10.5,11 z" clip-path="url(#clipPath4547)" transform="matrix(1.1428571,0,0,1.0909091,32.225711,-5.9468113)"/><rect id="rect4575-3-6-3-0" width="1.46" height="8.759" x="-34.666" y="-12.945" fill="#aaa" fill-opacity="1" stroke="#aaa" stroke-dasharray="none" stroke-linejoin="round" stroke-miterlimit="4" stroke-opacity="1" stroke-width="1" transform="matrix(-0.70710677,-0.70710679,0.70710677,-0.70710679,0,0)"/><rect id="rect4575-3-6-3-0-0" width="1.46" height="8.759" x="-9.295" y="-38.316" fill="#aaa" fill-opacity="1" stroke="#aaa" stroke-dasharray="none" stroke-linejoin="round" stroke-miterlimit="4" stroke-opacity="1" stroke-width="1" transform="matrix(0.70710677,-0.70710679,-0.70710677,-0.70710679,0,0)"/></g></svg>