<svg xmlns="http://www.w3.org/2000/svg" xmlns:svg="http://www.w3.org/2000/svg" id="svg3832" width="32" height="32" version="1.1"><defs id="defs3834"><clipPath id="clipPath4559" clipPathUnits="userSpaceOnUse"><path id="path4561" fill="#d40000" fill-opacity="1" stroke="#222" stroke-dasharray="none" stroke-miterlimit="4" stroke-opacity="1" stroke-width="0" d="m 15,23.5 a 15.5,16.5 0 1 1 -31,0 15.5,16.5 0 1 1 31,0 z" opacity=".1" transform="matrix(1.0322581,0,0,0.96969697,21.456127,4.2653102)"/></clipPath><clipPath id="clipPath4559-3" clipPathUnits="userSpaceOnUse"><path id="path4561-7" fill="#d40000" fill-opacity="1" stroke="#222" stroke-dasharray="none" stroke-miterlimit="4" stroke-opacity="1" stroke-width="0" d="m 15,23.5 a 15.5,16.5 0 1 1 -31,0 15.5,16.5 0 1 1 31,0 z" opacity=".1" transform="matrix(1.0322581,0,0,0.96969697,21.456127,4.2653102)"/></clipPath></defs><metadata id="metadata3837"/><g id="layer1" transform="translate(-4.9399973,-11.053189)"><path id="rect3079-7" fill="#aaa" fill-opacity="1" stroke="#aaa" stroke-dasharray="none" stroke-miterlimit="4" stroke-opacity="1" stroke-width=".9" d="m -27.060003,36.053189 -10,-10 0,20 10,-10 z" clip-path="url(#clipPath4559)" opacity="1" transform="matrix(1.111111,0,0,1.1111108,-1.8266642,-3.5058993)"/><rect id="rect4575-3-6" width="1.886" height="11.314" x="-34.879" y="-9.98" fill="#aaa" fill-opacity="1" stroke="#aaa" stroke-dasharray="none" stroke-linejoin="round" stroke-miterlimit="4" stroke-opacity="1" stroke-width="1" opacity="1" transform="matrix(-0.70710684,-0.70710672,0.70710684,-0.70710672,0,0)"/><path id="rect3079-7-7" fill="#aaa" fill-opacity="1" stroke="#aaa" stroke-dasharray="none" stroke-miterlimit="4" stroke-opacity="1" stroke-width=".9" d="m -27.060003,36.053189 -10,-10 0,20 10,-10 z" clip-path="url(#clipPath4559-3)" opacity="1" transform="matrix(-1.111111,0,0,1.1111108,33.595547,-12.394786)"/><rect id="rect4575-3-6-3" width="1.886" height="11.314" x="-5.265" y="-39.593" fill="#aaa" fill-opacity="1" stroke="#aaa" stroke-dasharray="none" stroke-linejoin="round" stroke-miterlimit="4" stroke-opacity="1" stroke-width="1" opacity="1" transform="matrix(0.70710684,-0.70710672,-0.70710684,-0.70710672,0,0)"/></g></svg>