<svg xmlns="http://www.w3.org/2000/svg" xmlns:svg="http://www.w3.org/2000/svg" xmlns:xlink="http://www.w3.org/1999/xlink" id="svg2985" width="22" height="22" version="1.1"><defs id="defs2987"><linearGradient id="linearGradient3832"><stop id="stop3834" offset="0" stop-color="#303030" stop-opacity="0"/><stop id="stop3836" offset="1" stop-color="#303030" stop-opacity="1"/></linearGradient><linearGradient id="linearGradient3838" x1="-26" x2="-18" y1="8" y2="8" gradientTransform="matrix(0,1,-1,0,19,66)" gradientUnits="userSpaceOnUse" xlink:href="#linearGradient3832"/></defs><metadata id="metadata2990"/><g id="layer1" transform="translate(0,-26)"><path id="path3837-5-08" fill="#000" fill-opacity="1" stroke="#aaa" stroke-dasharray="none" stroke-miterlimit="4" stroke-opacity="1" stroke-width="0" d="m -18,3 c 0,3.3137085 -2.686292,6 -6,6 -3.313708,0 -6,-2.6862915 -6,-6 0,-3.3137085 2.686292,-6 6,-6 3.313708,0 6,2.6862915 6,6 z" opacity=".4" transform="translate(35,34)"/><path id="path3781-9-5-7" fill="#0e0e0e" fill-opacity="1" stroke="none" d="M 11,27 C 5.477152,27 1,31.477152 1,37 1,42.522847 5.477152,47 11,47 16.522848,47 21,42.522847 21,37 21,31.477152 16.522848,27 11,27 z m 0,1 c 4.970563,0 9,4.029437 9,9 0,4.970563 -4.029437,9 -9,9 -4.970563,0 -9,-4.029437 -9,-9 0,-4.970563 4.029437,-9 9,-9 z" opacity="1"/><path id="path3781-9-5-7-9" fill="#aaa" fill-opacity="1" stroke="none" d="m 7,10 c 0,2.761424 -2.6862915,5 -6,5 -3.3137085,0 -6,-2.238576 -6,-5 0,-2.7614237 2.6862915,-5 6,-5 3.3137085,0 6,2.2385763 6,5 z" transform="matrix(0.83333333,0,0,1,10.166667,27)"/><path id="path3811" fill="#000" fill-opacity="1" stroke="#aaa" stroke-dasharray="none" stroke-miterlimit="4" stroke-opacity="1" stroke-width="0" d="m 11,28 c -4.970563,0 -9,4.029437 -9,9 0,4.970563 4.029437,9 9,9 4.970563,0 9,-4.029437 9,-9 0,-4.970563 -4.029437,-9 -9,-9 z m 0,1 c 4.418278,0 8,3.581722 8,8 0,4.418278 -3.581722,8 -8,8 -4.418278,0 -8,-3.581722 -8,-8 0,-4.418278 3.581722,-8 8,-8 z" opacity=".3"/><path id="path3835" fill="#000" fill-opacity="1" stroke="#aaa" stroke-dasharray="none" stroke-miterlimit="4" stroke-opacity="1" stroke-width="0" d="m 11,29 c -4.418278,0 -8,3.581722 -8,8 0,4.418278 3.581722,8 8,8 4.418278,0 8,-3.581722 8,-8 0,-4.418278 -3.581722,-8 -8,-8 z m 0,1 c 3.865993,0 7,3.134007 7,7 0,3.865993 -3.134007,7 -7,7 -3.865993,0 -7,-3.134007 -7,-7 0,-3.865993 3.134007,-7 7,-7 z" opacity=".2"/><path id="path3837-5" fill="#000" fill-opacity="1" stroke="#aaa" stroke-dasharray="none" stroke-miterlimit="4" stroke-opacity="1" stroke-width="0" d="m 11,30 c -3.865993,0 -7,3.134007 -7,7 0,3.865993 3.134007,7 7,7 3.865993,0 7,-3.134007 7,-7 0,-3.865993 -3.134007,-7 -7,-7 z m 0,1 c 3.313708,0 6,2.686291 6,6 0,3.313708 -2.686292,6 -6,6 -3.313708,0 -6,-2.686292 -6,-6 0,-3.313709 2.686292,-6 6,-6 z" opacity=".1"/><path id="path3043" fill="url(#linearGradient3838)" fill-opacity="1" stroke="#aaa" stroke-dasharray="none" stroke-miterlimit="4" stroke-opacity="1" stroke-width="0" d="M 22,37 C 22,30.924868 17.075132,26 11,26 4.924868,26 0,30.924868 0,37 c 0,6.075132 4.924868,11 11,11 6.075132,0 11,-4.924868 11,-11 z m -1,0 C 21,42.522848 16.522848,47 11,47 5.477153,47 1,42.522848 1,37 1,31.477152 5.477153,27 11,27 c 5.522848,0 10,4.477152 10,10 z"/></g></svg>