<svg xmlns="http://www.w3.org/2000/svg" xmlns:svg="http://www.w3.org/2000/svg" xmlns:xlink="http://www.w3.org/1999/xlink" id="svg25070" width="96" height="96" version="1.1"><defs id="defs25072"><linearGradient id="linearGradient24957" x1="-86.552" x2="-83.371" y1="185.439" y2="197.313" gradientTransform="translate(6)" gradientUnits="userSpaceOnUse" xlink:href="#linearGradient4034-0-4"/><linearGradient id="linearGradient4034-0-4"><stop id="stop4036-5-7" offset="0" stop-color="#EEEEEC" stop-opacity="1"/><stop id="stop4038-9-6" offset="1" stop-color="#BABDB6" stop-opacity="1"/></linearGradient><filter id="filter24765" width="1" height="1" x="0" y="0" color-interpolation-filters="sRGB"><feColorMatrix id="feColorMatrix24767" result="fbSourceGraphic" type="saturate" values="1"/><feColorMatrix id="feColorMatrix24769" in="fbSourceGraphic" values="-1 0 0 0 1 0 -1 0 0 1 0 0 -1 0 1 0 0 0 1 0"/></filter><linearGradient id="linearGradient24955" x1="-74.52" x2="-74.52" y1="169.06" y2="205.942" gradientTransform="translate(-5)" gradientUnits="userSpaceOnUse" xlink:href="#linearGradient4632-1-3-9-3-2"/><linearGradient id="linearGradient4632-1-3-9-3-2"><stop id="stop4634-1-8-3-9-0" offset="0" stop-color="#EEEEEC" stop-opacity="1"/><stop id="stop4636-1-9-9-8-8" offset=".027" stop-color="#FFF" stop-opacity="1"/><stop id="stop4638-8-3-9-6-6" offset=".275" stop-color="#F2F2F2" stop-opacity="1"/><stop id="stop4640-8-5-7-8-9" offset=".387" stop-color="#EEEEEC" stop-opacity="1"/><stop id="stop4642-5-41-9-6-9" offset=".665" stop-color="#D9DAD8" stop-opacity="1"/><stop id="stop4644-5-2-7-9-2" offset=".767" stop-color="#DFE0DD" stop-opacity="1"/><stop id="stop4646-3-2-3-7-3" offset="1" stop-color="#F0F0F0" stop-opacity="1"/></linearGradient><radialGradient id="radialGradient24959" cx="-33.412" cy="185.742" r="2.355" fx="-33.412" fy="185.742" gradientTransform="matrix(1.0075, 0, 0, 1.0075, -5.4544, -1.25141)" gradientUnits="userSpaceOnUse" xlink:href="#linearGradient4869-4-1"/><linearGradient id="linearGradient4869-4-1"><stop id="stop4871-6-2" offset="0" stop-color="#FFF" stop-opacity="1"/><stop id="stop4879-7-4" offset=".318" stop-color="#EEEEEC" stop-opacity="1"/><stop id="stop4877-6-1" offset=".747" stop-color="#C8C9C6" stop-opacity="1"/><stop id="stop4873-1-0" offset="1" stop-color="#D3D7CF" stop-opacity="1"/></linearGradient><filter id="filter25011" width="1" height="1" x="0" y="0" color-interpolation-filters="sRGB"><feColorMatrix id="feColorMatrix25013" result="fbSourceGraphic" type="saturate" values="1"/><feColorMatrix id="feColorMatrix25015" in="fbSourceGraphic" values="-1 0 0 0 1 0 -1 0 0 1 0 0 -1 0 1 0 0 0 1 0"/></filter><radialGradient id="radialGradient24961" cx="-33.412" cy="185.742" r="2.355" fx="-33.412" fy="185.742" gradientTransform="matrix(1.0075, 0, 0, 1.0075, -5.4544, -1.25141)" gradientUnits="userSpaceOnUse" xlink:href="#linearGradient4869-4-0"/><linearGradient id="linearGradient4869-4-0"><stop id="stop4871-6-8" offset="0" stop-color="#FFF" stop-opacity="1"/><stop id="stop4879-7-5" offset=".318" stop-color="#EEEEEC" stop-opacity="1"/><stop id="stop4877-6-5" offset=".747" stop-color="#C8C9C6" stop-opacity="1"/><stop id="stop4873-1-4" offset="1" stop-color="#D3D7CF" stop-opacity="1"/></linearGradient><filter id="filter25023" width="1" height="1" x="0" y="0" color-interpolation-filters="sRGB"><feColorMatrix id="feColorMatrix25025" result="fbSourceGraphic" type="saturate" values="1"/><feColorMatrix id="feColorMatrix25027" in="fbSourceGraphic" values="-1 0 0 0 1 0 -1 0 0 1 0 0 -1 0 1 0 0 0 1 0"/></filter><linearGradient id="linearGradient24963" x1="-39.859" x2="-38.245" y1="184.618" y2="188.849" gradientUnits="userSpaceOnUse" xlink:href="#linearGradient4941"/><linearGradient id="linearGradient4941"><stop id="stop4943" offset="0" stop-color="#FFF" stop-opacity="1"/><stop id="stop4945" offset="1" stop-color="#FFF" stop-opacity="0"/></linearGradient><filter id="filter25033" width="1" height="1" x="0" y="0" color-interpolation-filters="sRGB"><feColorMatrix id="feColorMatrix25035" result="fbSourceGraphic" type="saturate" values="1"/><feColorMatrix id="feColorMatrix25037" in="fbSourceGraphic" values="-1 0 0 0 1 0 -1 0 0 1 0 0 -1 0 1 0 0 0 1 0"/></filter><linearGradient id="linearGradient24965" x1="-39.859" x2="-38.245" y1="184.618" y2="188.849" gradientUnits="userSpaceOnUse" xlink:href="#linearGradient4941-7"/><linearGradient id="linearGradient4941-7"><stop id="stop4943-2" offset="0" stop-color="#FFF" stop-opacity="1"/><stop id="stop4945-5" offset="1" stop-color="#FFF" stop-opacity="0"/></linearGradient><filter id="filter25043" width="1" height="1" x="0" y="0" color-interpolation-filters="sRGB"><feColorMatrix id="feColorMatrix25045" result="fbSourceGraphic" type="saturate" values="1"/><feColorMatrix id="feColorMatrix25047" in="fbSourceGraphic" values="-1 0 0 0 1 0 -1 0 0 1 0 0 -1 0 1 0 0 0 1 0"/></filter><filter id="filter25049" width="1" height="1" x="0" y="0" color-interpolation-filters="sRGB"><feColorMatrix id="feColorMatrix25051" result="fbSourceGraphic" type="saturate" values="1"/><feColorMatrix id="feColorMatrix25053" in="fbSourceGraphic" values="-1 0 0 0 1 0 -1 0 0 1 0 0 -1 0 1 0 0 0 1 0"/></filter><filter id="filter25055" width="1" height="1" x="0" y="0" color-interpolation-filters="sRGB"><feColorMatrix id="feColorMatrix25057" result="fbSourceGraphic" type="saturate" values="1"/><feColorMatrix id="feColorMatrix25059" in="fbSourceGraphic" values="-1 0 0 0 1 0 -1 0 0 1 0 0 -1 0 1 0 0 0 1 0"/></filter></defs><metadata id="metadata25075"/><g id="layer1" transform="translate(0, 48)"><g id="g3181" transform="matrix(0,1,-1,0,48.0003,-48)"><g id="g4030-1-8" stroke="#000" stroke-opacity="1" display="inline" transform="matrix(2,0,0,2,193.25,-374.967)"><path id="path3165-7-3" fill="none" stroke="#000" stroke-dasharray="none" stroke-dashoffset="0" stroke-linecap="round" stroke-linejoin="miter" stroke-miterlimit="4" stroke-opacity="1" stroke-width="7" d="m -72.5,173.5 -14,14 14,14" color="#000" display="inline" overflow="visible" visibility="visible" style="marker:none"/></g><path id="path4050-2-7-9-4" fill="#000" fill-opacity="1" fill-rule="nonzero" stroke="none" stroke-width=".523" d="m -36.5,186.40625 c 0,1.15635 -0.937404,2.09375 -2.09375,2.09375 -1.156346,0 -2.09375,-0.9374 -2.09375,-2.09375 0,-1.15635 0.937404,-2.09375 2.09375,-2.09375 1.156346,0 2.09375,0.9374 2.09375,2.09375 z" color="#000" display="inline" overflow="visible" transform="matrix(3.34328,0,0,3.34328,185.28,-623.176)" visibility="visible" style="marker:none"/><path id="path4050-2-7-9-4-8" fill="#000" fill-opacity="1" fill-rule="nonzero" stroke="none" stroke-width=".523" d="m -36.5,186.40625 c 0,1.15635 -0.937404,2.09375 -2.09375,2.09375 -1.156346,0 -2.09375,-0.9374 -2.09375,-2.09375 0,-1.15635 0.937404,-2.09375 2.09375,-2.09375 1.156346,0 2.09375,0.9374 2.09375,2.09375 z" color="#000" display="inline" overflow="visible" transform="matrix(3.34328,0,0,3.34328,207.28,-623.176)" visibility="visible" style="marker:none"/><path id="path4050-2-7-9-4-0" fill="none" stroke="#000" stroke-dasharray="none" stroke-dashoffset="0" stroke-linecap="round" stroke-linejoin="miter" stroke-miterlimit="4" stroke-opacity="1" stroke-width=".698" d="m -36.5,186.40625 c 0,1.15635 -0.937404,2.09375 -2.09375,2.09375 -1.156346,0 -2.09375,-0.9374 -2.09375,-2.09375 0,-1.15635 0.937404,-2.09375 2.09375,-2.09375 1.156346,0 2.09375,0.9374 2.09375,2.09375 z" color="#000" display="inline" overflow="visible" transform="matrix(2.86565,0,0,2.86565,166.846,-534.143)" visibility="visible" style="marker:none"/><path id="path4050-2-7-9-4-0-9" fill="none" stroke="#000" stroke-dasharray="none" stroke-dashoffset="0" stroke-linecap="round" stroke-linejoin="miter" stroke-miterlimit="4" stroke-opacity="1" stroke-width=".698" d="m -36.5,186.40625 c 0,1.15635 -0.937404,2.09375 -2.09375,2.09375 -1.156346,0 -2.09375,-0.9374 -2.09375,-2.09375 0,-1.15635 0.937404,-2.09375 2.09375,-2.09375 1.156346,0 2.09375,0.9374 2.09375,2.09375 z" color="#000" display="inline" overflow="visible" transform="matrix(2.86565,0,0,2.86565,188.846,-534.143)" visibility="visible" style="marker:none"/><path font-stretch="normal" style="text-indent:0;text-align:start;line-height:normal;text-transform:none;marker:none" id="path3165-7-3-1" fill="none" stroke="#000" stroke-dasharray="none" stroke-miterlimit="4" stroke-opacity="1" stroke-width="1" d="m 317.06251,365.96875 c -0.76948,0.0224 -1.52555,0.35464 -2.0625,0.90625 l -16.125,16.125 16.125,16.125 c 1.11265,1.11265 3.13735,1.11265 4.25,0 1.11265,-1.11264 1.11265,-3.13735 0,-4.25 l -11.875,-11.875 11.875,-11.875 c 0.86584,-0.83655 1.1475,-2.22114 0.6773,-3.32947 -0.47021,-1.10834 -1.66156,-1.86802 -2.8648,-1.82678 z" color="#000" direction="ltr" display="inline" font-family="Bitstream Vera Sans" font-size="medium" font-style="normal" font-variant="normal" font-weight="normal" letter-spacing="normal" opacity=".35" overflow="visible" text-anchor="start" text-decoration="none" transform="matrix(2,0,0,2,-586,-765.967)" visibility="visible" word-spacing="normal"/><path font-size="medium" style="text-indent:0;text-align:start;line-height:normal;text-transform:none;marker:none" id="path3165-7-3-1-9" fill="none" stroke="#000" stroke-dasharray="none" stroke-linecap="round" stroke-miterlimit="4" stroke-opacity="1" stroke-width="1" d="m 320.08435,397.03059 c 0.007,-0.79449 -0.27079,-1.59203 -0.83434,-2.15559 L 307.37501,383 m 12.5523,-15.20447 c -0.47021,-1.10834 -1.66156,-1.86802 -2.8648,-1.82678 -0.76948,0.0224 -1.52555,0.35464 -2.0625,0.90625 L 298.87501,383" color="#000" direction="ltr" display="inline" font-family="Bitstream Vera Sans" font-stretch="normal" font-style="normal" font-variant="normal" font-weight="normal" letter-spacing="normal" overflow="visible" text-anchor="start" text-decoration="none" transform="matrix(2,0,0,2,-586,-765.967)" visibility="visible" word-spacing="normal"/></g></g></svg>