<svg xmlns="http://www.w3.org/2000/svg" xmlns:svg="http://www.w3.org/2000/svg" xmlns:xlink="http://www.w3.org/1999/xlink" id="svg3806" width="16" height="16" version="1.1"><defs id="defs3808"><linearGradient id="linearGradient3843"><stop id="stop3845" offset="0" stop-color="#000" stop-opacity=".08"/><stop id="stop3847" offset="1" stop-color="#000" stop-opacity="0"/></linearGradient><linearGradient id="linearGradient3814"><stop id="stop3816" offset="0" stop-color="#fff" stop-opacity="0"/><stop id="stop3818" offset="1" stop-color="#fff" stop-opacity=".08"/></linearGradient><linearGradient id="linearGradient4391"><stop id="stop4393" offset="0" stop-color="#000" stop-opacity=".08"/><stop id="stop4395" offset="1" stop-color="#000" stop-opacity="0"/></linearGradient><linearGradient id="linearGradient4381"><stop id="stop4383" offset="0" stop-color="#000" stop-opacity=".25"/><stop id="stop4385" offset="1" stop-color="#000" stop-opacity=".4"/></linearGradient><linearGradient id="linearGradient4352"><stop id="stop4354" offset="0" stop-color="#f5f5f5" stop-opacity="1"/><stop id="stop4356" offset="1" stop-color="#d9d9d9" stop-opacity="1"/></linearGradient><linearGradient id="linearGradient4342"><stop id="stop4344" offset="0" stop-color="#fff" stop-opacity="0"/><stop id="stop4346" offset="1" stop-color="#fff" stop-opacity=".3"/></linearGradient><linearGradient id="linearGradient4332"><stop id="stop4334" offset="0" stop-color="#000" stop-opacity=".06"/><stop id="stop4336" offset="1" stop-color="#000" stop-opacity=".02"/></linearGradient><linearGradient id="linearGradient4338" x1="9" x2="9" y1="2.545" y2="13.455" gradientUnits="userSpaceOnUse" xlink:href="#linearGradient4332"/><linearGradient id="linearGradient4348" x1="8" x2="8" y1=".462" y2="14.462" gradientUnits="userSpaceOnUse" xlink:href="#linearGradient4342"/><linearGradient id="linearGradient3820" x1="8" x2="8" y1="1.538" y2="15.538" gradientUnits="userSpaceOnUse" xlink:href="#linearGradient3814"/><linearGradient id="linearGradient3849" x1="8" x2="8" y1=".462" y2="4.5" gradientUnits="userSpaceOnUse" xlink:href="#linearGradient3843"/></defs><metadata id="metadata3811"/><g id="layer1" transform="translate(0,-1036.3622)"><path id="path4340" fill="none" fill-opacity="1" stroke="url(#linearGradient4348)" stroke-opacity="1" stroke-width="1.077" d="m 15,8 c 0,3.865993 -3.134007,7 -7,7 C 4.1340068,15 1,11.865993 1,8 1,4.1340068 4.1340068,1 8,1 c 3.865993,0 7,3.1340068 7,7 z" transform="matrix(0.92857142,0,0,0.92857245,0.57142866,1037.9336)"/><path id="path4328" fill="#e0e0e0" fill-opacity="1" stroke="#b0b0b0" stroke-opacity="1" stroke-width="1.077" d="m 15,8 c 0,3.865993 -3.134007,7 -7,7 C 4.1340068,15 1,11.865993 1,8 1,4.1340068 4.1340068,1 8,1 c 3.865993,0 7,3.1340068 7,7 z" transform="matrix(0.92857142,0,0,0.92857245,0.57142862,1036.9336)"/><path id="path3841" fill="url(#linearGradient3849)" fill-opacity="1" stroke="none" d="M 15,8 A 7,7 0 1 1 1,8 7,7 0 1 1 15,8 z" transform="matrix(0.85714286,0,0,0.85714599,1.1428571,1037.505)"/></g></svg>