<svg xmlns="http://www.w3.org/2000/svg" xmlns:svg="http://www.w3.org/2000/svg" id="svg2" width="7.6" height="9" version="1.1"><metadata id="metadata7"/><g id="layer1" transform="translate(0,-1044.7622)"><path id="path3775" fill="#fff" fill-opacity="1" stroke="none" d="m 2.5438167,1044.7673 0,9.0074 5.044178,-4.5036 z"/><path id="path3758" fill="none" stroke="#000" stroke-width="1.891" d="m -33.722111,17.58044 0,94.52922 L 48.142592,64.845048 -33.722111,17.58044 Z"/><path id="path3770" fill="none" stroke="#000" stroke-width="1.891" d="m -33.722111,17.58044 0,94.52922 L 48.142592,64.845048 -33.722111,17.58044 Z"/><path id="path3784" fill="none" stroke="#000" stroke-width="1.891" d="m -33.722111,17.58044 0,94.52922 L 48.142592,64.845048 -33.722111,17.58044 Z"/><path id="path3792" fill="none" stroke="#000" stroke-dasharray="none" stroke-dashoffset="0" stroke-linecap="butt" stroke-linejoin="round" stroke-miterlimit="4" stroke-opacity="0" stroke-width="1" d="M 8.2479783,10.574124 3.3646268,7.554934 -1.8909562,9.8660976 -0.52857478,4.2887735 -4.3506865,0.00460586 1.374663,-0.42318038 4.268051,-5.3821052 6.4441302,-0.06916754 12.054454,1.150216 7.6739955,4.8615783 Z" opacity="0" transform="matrix(0,0.94529217,-0.94529217,0,6.8688142,1041.1334)"/><path id="path3794" fill="none" stroke="#000" stroke-dasharray="none" stroke-dashoffset="0" stroke-linecap="butt" stroke-linejoin="round" stroke-miterlimit="4" stroke-opacity="0" stroke-width="1" d="M 8.0862536,6.4770889 5.0690271,4.8124131 1.9871953,6.3542021 2.6380218,2.9702361 0.21935491,0.51567889 3.6388143,0.08894861 5.2258277,-2.9698402 6.6883434,0.15039204 10.087839,0.71451384 7.5722636,3.0696537 Z" opacity="0" transform="matrix(0,0.94529217,-0.94529217,0,7.2764875,1038.7892)"/><path id="path3005" fill="#212121" fill-opacity="1" stroke="none" d="m 1.5345394,1044.8377 0,8.9161 4.9534043,-4.4581 z"/></g></svg>