<svg xmlns="http://www.w3.org/2000/svg" xmlns:svg="http://www.w3.org/2000/svg" id="svg11300" width="24" height="24" display="inline" enable-background="new" version="1.0"><metadata id="metadata4"/><g id="layer1" display="inline" transform="translate(0,-276)"><rect id="rect3003-0" width="22" height="22" x="1" y="277" fill="#d64937" fill-opacity="1" stroke="none" rx="2" ry="2"/><path id="rect3936" fill="#000" fill-opacity="1" stroke="none" d="m 3,277 c -1.108,0 -2,0.892 -2,2 l 0,18 c 0,1.108 0.892,2 2,2 l 18,0 c 1.108,0 2,-0.892 2,-2 l 0,-18 c 0,-1.108 -0.892,-2 -2,-2 l -18,0 z m 1,1 16,0 c 1.108,0 2,0.892 2,2 l 0,16 c 0,1.108 -0.892,2 -2,2 l -16,0 c -1.108,0 -2,-0.892 -2,-2 l 0,-16 c 0,-1.108 0.892,-2 2,-2 z" opacity=".1"/><path id="rect4409" fill="#000" fill-opacity="1" stroke="none" d="M 3 1 C 1.892 1 1 1.892 1 3 L 1 21 C 1 22.108 1.892 23 3 23 L 21 23 C 22.108 23 23 22.108 23 21 L 23 3 C 23 1.892 22.108 1 21 1 L 3 1 z M 5 3 L 19 3 C 20.108 3 21 3.892 21 5 L 21 19 C 21 20.108 20.108 21 19 21 L 5 21 C 3.892 21 3 20.108 3 19 L 3 5 C 3 3.892 3.892 3 5 3 z" opacity=".04" transform="translate(0,276)"/><rect id="rect2986" width="22" height="22" x="1" y="277" fill="#000" fill-opacity="1" stroke="none" opacity=".06" rx="2" ry="2"/></g></svg>