<svg xmlns="http://www.w3.org/2000/svg" xmlns:svg="http://www.w3.org/2000/svg" id="svg11300" width="24" height="24" display="inline" enable-background="new" version="1.0"><metadata id="metadata4"/><g id="layer1" display="inline" transform="translate(0,-276)"><path id="rect3003-6" fill="#d64937" fill-opacity="1" stroke="none" d="m 24,277 0,22 -22,0 c -1.108,0 -2,-0.892 -2,-2 l 0,-18 c 0,-1.108 0.892,-2 2,-2 z"/><path id="rect3936" fill="#fff" fill-opacity="1" stroke="none" d="m 24,277 0,1 -21,0 c -1.108,0 -2,0.892 -2,2 l 0,16 c 0,1.108 0.892,2 2,2 l 21,0 0,1 -22,0 c -1.108,0 -2,-0.892 -2,-2 l 0,-18 c 0,-1.108 0.892,-2 2,-2 z" opacity=".1"/></g></svg>