<svg xmlns="http://www.w3.org/2000/svg" xmlns:svg="http://www.w3.org/2000/svg" id="svg11300" width="24" height="24" display="inline" enable-background="new" version="1.0"><metadata id="metadata4"/><g id="layer1" display="inline" transform="translate(0,-276)"><path id="rect3216" fill="#dcdcdc" fill-opacity="1" d="m 1,278 0,13 4,0 0,7 3,0 0,-7 8,0 0,7 3,0 0,-7 4,0 0,-13 z m 1,1 9,0 0,5 -9,0 z m 11,0 9,0 0,5 -9,0 z m -11,6 9,0 0,5 -9,0 z m 11,0 9,0 0,5 -9,0 z m -7,7 1,0 0,2 -1,0 z m 11,0 1,0 0,2 -1,0 z m -11,3 1,0 0,2 -1,0 z m 11,0 1,0 0,2 -1,0 z" opacity="0"/><path id="rect3047" fill="#dcdcdc" fill-opacity="1" d="m 7,15 0,2 1,0 0,-2 z m 9,0 0,2 1,0 0,-2 z m -9,3 0,2 1,0 0,-2 z m 9,0 0,2 1,0 0,-2 z" transform="translate(0,276)"/><path id="rect3263" fill="#dcdcdc" fill-opacity="1" d="m 4,280 7,0 0,4 -7,0 z m 0,5 7,0 0,4 -7,0 z m 9,-5 7,0 0,4 -7,0 z m 0,5 7,0 0,4 -7,0 z" opacity=".5"/></g></svg>