<svg xmlns="http://www.w3.org/2000/svg" xmlns:svg="http://www.w3.org/2000/svg" id="svg11300" width="24" height="24" display="inline" enable-background="new" version="1.0"><metadata id="metadata4"/><g id="layer1" display="inline" transform="translate(0,-276)"><path id="rect5234" fill="#000" fill-opacity="1" stroke="none" d="M 3 1 C 1.892 1 1 1.892 1 3 L 1 21 C 1 22.108 1.892 23 3 23 L 21 23 C 22.108 23 23 22.108 23 21 L 23 3 C 23 1.892 22.108 1 21 1 L 3 1 z M 3 2 L 21 2 C 21.554 2 22 2.446 22 3 L 22 21 C 22 21.554 21.554 22 21 22 L 3 22 C 2.446 22 2 21.554 2 21 L 2 3 C 2 2.446 2.446 2 3 2 z" opacity=".2" transform="translate(0,276)"/><rect id="rect4201" width="20" height="20" x="2" y="278" fill="#232323" fill-opacity="1" stroke="none" opacity=".2" rx="1" ry="1"/></g></svg>