<svg xmlns="http://www.w3.org/2000/svg" xmlns:svg="http://www.w3.org/2000/svg" id="svg11300" width="16" height="16" display="inline" enable-background="new" version="1.0"><metadata id="metadata4"/><g id="layer1" display="inline" transform="translate(0,-284)"><path id="rect4147" fill="#000" fill-opacity="1" stroke="none" d="M 3 0 C 1.338 0 4.7509197e-18 1.338 0 3 L 0 13 C 0 14.662 1.338 16 3 16 L 13 16 C 14.662 16 16 14.662 16 13 L 16 3 C 16 1.338 14.662 4.7509197e-18 13 0 L 3 0 z M 3 1 L 13 1 C 14.108 1 15 1.892 15 3 L 15 13 C 15 14.108 14.108 15 13 15 L 3 15 C 1.892 15 1 14.108 1 13 L 1 3 C 1 1.892 1.892 1 3 1 z" opacity=".45" transform="translate(0,284)"/><rect id="rect3769" width="14" height="14" x="1" y="285" fill="#8abf5c" fill-opacity="1" stroke="none" opacity=".9" rx="2" ry="2"/></g></svg>