<svg xmlns="http://www.w3.org/2000/svg" xmlns:svg="http://www.w3.org/2000/svg" id="svg4352" width="41" height="61" version="1.1"><defs id="defs4354"><linearGradient id="linearGradient3921-5-9"><stop id="stop3923-6-1" offset="0" stop-color="#bebebe" stop-opacity="1"/><stop id="stop3925-4-6" offset="1" stop-color="#fff" stop-opacity="1"/></linearGradient></defs><metadata id="metadata4357"/><g id="layer1" transform="translate(-1.4773757,-2.294264)"><path id="circle4209" fill="#2d2d2d" fill-opacity="1" fill-rule="nonzero" stroke="none" d="M 20.5,2 A 18.499998,18.499998 0 0 0 2,20.5 18.499998,18.499998 0 0 0 20.5,39 18.499998,18.499998 0 0 0 39,20.5 18.499998,18.499998 0 0 0 20.5,2 Z m 0,1 A 17.499998,17.499998 0 0 1 38,20.5 17.499998,17.499998 0 0 1 20.5,38 17.499998,17.499998 0 0 1 3,20.5 17.499998,17.499998 0 0 1 20.5,3 Z" opacity=".07" transform="translate(1.4773757,22.294264)"/><circle id="path3836" cx="21.977" cy="42.794" r="17.5" fill="#2d2d2d" fill-opacity="1" fill-rule="nonzero" stroke="none" opacity=".45"/><circle id="path3766" cx="21.977" cy="42.794" r="16.5" fill="#fff" fill-opacity="1" fill-rule="nonzero" stroke="none"/><circle id="path3797" cx="-21.977" cy="42.794" r="14.5" fill="#8abf5c" fill-opacity="1" fill-rule="nonzero" stroke="none" transform="scale(-1,1)"/><g id="g27277-1-1" fill="#fff" fill-opacity="1" stroke="none" display="inline" transform="matrix(0.88893521,0,0,0.88925773,-45.791566,-646.46384)"><path id="path27279-0-5" fill="#fff" fill-opacity="1" fill-rule="nonzero" stroke="none" stroke-width="1.781" d="m 71.177839,770.03365 1.26506,0 c 0.01312,-1.5e-4 0.0263,-5.8e-4 0.03953,0 0.322528,0.0142 0.645016,0.16266 0.869729,0.39533 l 2.88592,2.88592 2.925453,-2.88592 c 0.336032,-0.2916 0.565067,-0.38648 0.869729,-0.39533 l 1.265061,0 0,1.26506 c 0,0.3624 -0.04344,0.6966 -0.316265,0.94879 l -2.88592,2.88592 2.846387,2.84639 c 0.238069,0.23805 0.355788,0.57364 0.355798,0.90926 l 0,1.26506 -1.265061,0 c -0.335622,-10e-6 -0.671223,-0.11777 -0.909262,-0.35579 l -2.88592,-2.88592 -2.88592,2.88592 c -0.238039,0.23807 -0.573655,0.35579 -0.909263,0.35579 l -1.26506,0 0,-1.26506 c -4e-6,-0.3356 0.117726,-0.67121 0.355798,-0.90926 l 2.88592,-2.84639 -2.88592,-2.88592 c -0.266601,-0.24621 -0.383516,-0.59363 -0.355798,-0.94879 l 0,-1.26506 z" color="#bebebe" direction="ltr" display="inline" enable-background="new" font-family="Andale Mono" font-size="medium" font-stretch="normal" font-style="normal" font-variant="normal" font-weight="normal" letter-spacing="normal" overflow="visible" text-anchor="start" text-decoration="none" visibility="visible" word-spacing="normal" writing-mode="lr-tb" style="line-height:normal;-inkscape-font-specification:'Andale Mono';text-indent:0;text-align:start;text-decoration-line:none;text-transform:none;block-progression:tb;marker:none"/></g></g></svg>