<svg xmlns="http://www.w3.org/2000/svg" xmlns:svg="http://www.w3.org/2000/svg" id="svg4352" width="28" height="18" version="1.1"><defs id="defs4354"><linearGradient id="linearGradient3921-5-9"><stop id="stop3923-6-1" offset="0" stop-color="#bebebe" stop-opacity="1"/><stop id="stop3925-4-6" offset="1" stop-color="#fff" stop-opacity="1"/></linearGradient></defs><metadata id="metadata4357"/><g id="layer1" transform="translate(-1.4773757,-45.294264)"><rect id="rect3075" width="26" height="16" x="-28.477" y="46.294" fill="#8abf5c" fill-opacity="1" stroke="none" opacity=".9" rx="8" ry="8" transform="scale(-1,1)"/><circle id="path3853" cx="-20.477" cy="54.294" r="6" fill="#fff" fill-opacity="1" stroke="none" opacity="1" transform="scale(-1,1)"/><path id="rect3806" fill="#000" fill-opacity="1" stroke="none" d="m 10.477377,45.294262 c -4.9860006,0 -9.0000006,4.014 -9.0000006,9 0,4.986 4.014,9 9.0000006,9 l 10,0 c 4.986,0 9,-4.014 9,-9 0,-4.986 -4.014,-9 -9,-9 l -10,0 z m 0,1 10,0 c 4.432,0 8,3.568 8,8 0,4.432 -3.568,8 -8,8 l -10,0 c -4.4320006,0 -8.0000006,-3.568 -8.0000006,-8 0,-4.432 3.568,-8 8.0000006,-8 z" opacity=".45"/></g></svg>