<svg xmlns="http://www.w3.org/2000/svg" xmlns:svg="http://www.w3.org/2000/svg" id="svg11300" width="16" height="16" display="inline" enable-background="new" version="1.0"><metadata id="metadata4"/><g id="layer1" display="inline" transform="translate(0,-284)"><path id="path4514" fill="#fff" fill-opacity="1" stroke="none" d="M 8 0 C 3.581722 0 -2.9901493e-17 3.581722 0 8 C 0 12.418278 3.581722 16 8 16 C 12.418278 16 16 12.418278 16 8 C 16 3.581722 12.418278 -2.9901493e-17 8 0 z M 8 1 C 11.865993 1 15 4.1340068 15 8 C 15 11.865993 11.865993 15 8 15 C 4.1340068 15 1 11.865993 1 8 C 1 4.1340068 4.1340068 1 8 1 z" opacity=".07" transform="translate(0,284)"/><path id="path4306" fill="#000" fill-opacity="1" stroke="none" d="m 0,-6 a 4,4 0 0 1 -4,4 4,4 0 0 1 -4,-4 4,4 0 0 1 4,-4 4,4 0 0 1 4,4 z" opacity=".9" transform="matrix(1.75,0,0,1.75,15,302.5)"/></g></svg>