<svg xmlns="http://www.w3.org/2000/svg" xmlns:svg="http://www.w3.org/2000/svg" id="svg11300" width="16" height="16" display="inline" enable-background="new" version="1.0"><metadata id="metadata4"/><g id="layer1" display="inline" transform="translate(0,-284)"><path id="rect4147" fill="#000" fill-opacity="1" stroke="none" d="m 7,285 c -1.662,0 -3,1.338 -3,3 l 0,8 c 0,1.662 1.338,3 3,3 l 2,0 c 1.662,0 3,-1.338 3,-3 l 0,-8 c 0,-1.662 -1.338,-3 -3,-3 z m 0,1 2,0 c 1.108,0 2,0.892 2,2 l 0,8 c 0,1.108 -0.892,2 -2,2 l -2,0 c -1.108,0 -2,-0.892 -2,-2 l 0,-8 c 0,-1.108 0.892,-2 2,-2 z" opacity=".45"/><rect id="rect3015-6" width="6" height="12" x="5" y="286" fill="#8abf5c" fill-opacity="1" stroke="none" rx="2" ry="2"/></g></svg>