<svg xmlns="http://www.w3.org/2000/svg" xmlns:svg="http://www.w3.org/2000/svg" xmlns:xlink="http://www.w3.org/1999/xlink" id="svg4173" width="32" height="32" version="1.1" viewBox="0 0 32 32"><defs id="defs4175"><filter id="filter16494-4" width="1.42" height="1.418" x="-.21" y="-.209" color-interpolation-filters="sRGB"><feGaussianBlur id="feGaussianBlur16496-8" stdDeviation="1.328"/></filter><radialGradient id="radialGradient3004" cx="7.658" cy="5.819" r="8.693" fx="7.658" fy="5.819" gradientTransform="matrix(1.4402216,0,0,1.4461428,6.0363693,1023.6671)" gradientUnits="userSpaceOnUse" xlink:href="#linearGradient16498-6"/><linearGradient id="linearGradient16498-6"><stop id="stop16500-8" offset="0" stop-color="#70ae6c" stop-opacity="1"/><stop id="stop16502-0" offset="1" stop-color="#2a4229" stop-opacity="1"/></linearGradient><filter id="filter16524-9" width="1.426" height="1.426" x="-.213" y="-.213" color-interpolation-filters="sRGB"><feGaussianBlur id="feGaussianBlur16526-0" stdDeviation=".71"/></filter></defs><metadata id="metadata4178"/><g id="layer1" transform="translate(0,-1020.3622)"><g id="g3775" transform="translate(-1.0654301,-0.08231832)"><path id="path16480-5" fill="#000" fill-opacity="1" fill-rule="nonzero" stroke="#000" stroke-dasharray="none" stroke-dashoffset="0" stroke-linecap="butt" stroke-linejoin="miter" stroke-miterlimit="4" stroke-opacity="1" stroke-width="2.182" d="m 17.066406,1024.416 c -6.046309,0 -10.9492185,4.9253 -10.9492185,11 0,6.0748 4.9029095,11 10.9492185,11 6.046308,0 10.947266,-4.9252 10.947266,-11 0,-6.0747 -4.900958,-11 -10.947266,-11 z" color="#000" display="inline" enable-background="accumulate" filter="url(#filter16494-4)" opacity=".53" overflow="visible" transform="translate(0,1.028519)" visibility="visible" xlink:href="#path2394-32" style="marker:none"/><path id="path2394-32" fill="url(#radialGradient3004)" fill-opacity="1" fill-rule="nonzero" stroke="#eeeeec" stroke-dasharray="none" stroke-dashoffset="0" stroke-linecap="butt" stroke-linejoin="miter" stroke-miterlimit="4" stroke-opacity="1" stroke-width="2" d="m 6.1174653,1035.4152 c 0,-6.0747 4.9021907,-11 10.9484997,-11 6.046308,0 10.948499,4.9253 10.948499,11 0,6.0748 -4.902191,11 -10.948499,11 -6.046309,0 -10.9484997,-4.9252 -10.9484997,-11 z" clip-rule="evenodd" color="#000" display="inline" enable-background="accumulate" overflow="visible" visibility="visible" style="marker:none"/><g id="g27275-6-6" fill="#fff" fill-opacity="1" display="inline" transform="translate(9.7921784,1027.243)"><g id="g27277-1-1" fill="#fff" fill-opacity="1" display="inline" transform="translate(-41,-760)"><path id="path16506-5" fill="#000" fill-opacity="1" fill-rule="nonzero" stroke="none" stroke-width="1.781" d="m 44.226562,764.17188 0,1 c -0.02191,0.28074 0.07051,0.55537 0.28125,0.75 l 2.28125,2.28124 -2.28125,2.25 c -0.188189,0.18817 -0.281252,0.45346 -0.28125,0.71876 l 0,1 1,0 c 0.26529,0 0.530586,-0.0931 0.71875,-0.28126 l 2.28125,-2.28124 2.28125,2.28124 c 0.188164,0.18815 0.453449,0.28125 0.71875,0.28126 l 1,0 0,-1 c -8e-6,-0.2653 -0.09306,-0.53058 -0.28125,-0.71876 l -2.25,-2.25 2.28125,-2.28124 c 0.21566,-0.19935 0.25,-0.46353 0.25,-0.75 l 0,-1 -1,0 c -0.240827,0.007 -0.421874,0.082 -0.6875,0.3125 l -2.3125,2.28124 -2.28125,-2.28124 c -0.177629,-0.18393 -0.432549,-0.3013 -0.6875,-0.3125 -0.01046,-4.6e-4 -0.02088,-1.3e-4 -0.03125,0 l -1,0 z" color="#bebebe" direction="ltr" display="inline" enable-background="new" filter="url(#filter16524-9)" font-family="Andale Mono" font-size="medium" font-stretch="normal" font-style="normal" font-variant="normal" font-weight="normal" letter-spacing="normal" overflow="visible" text-anchor="start" text-decoration="none" transform="translate(0,1.3535534)" visibility="visible" word-spacing="normal" writing-mode="lr-tb" xlink:href="#path27279-0-5" style="line-height:normal;-inkscape-font-specification:'Andale Mono';text-indent:0;text-align:start;text-decoration-line:none;text-transform:none;block-progression:tb;marker:none"/><path id="path27279-0-5" fill="#fff" fill-opacity="1" fill-rule="nonzero" stroke="none" stroke-width="1.781" d="m 44.226475,764.17222 1,0 c 0.01037,-1.2e-4 0.02079,-4.6e-4 0.03125,0 0.254951,0.0112 0.50987,0.12858 0.6875,0.3125 l 2.28125,2.28125 2.3125,-2.28125 c 0.265625,-0.2305 0.446672,-0.3055 0.6875,-0.3125 l 1,0 0,1 c 0,0.28647 -0.03434,0.55065 -0.25,0.75 l -2.28125,2.28125 2.25,2.25 c 0.188188,0.18817 0.281242,0.45345 0.28125,0.71875 l 0,1 -1,0 c -0.265301,-1e-5 -0.530586,-0.0931 -0.71875,-0.28125 l -2.28125,-2.28125 -2.28125,2.28125 c -0.188164,0.18819 -0.45346,0.28125 -0.71875,0.28125 l -1,0 0,-1 c -3e-6,-0.26529 0.09306,-0.53058 0.28125,-0.71875 l 2.28125,-2.25 -2.28125,-2.28125 c -0.210742,-0.19463 -0.30316,-0.46925 -0.28125,-0.75 l 0,-1 z" color="#bebebe" direction="ltr" display="inline" enable-background="new" font-family="Andale Mono" font-size="medium" font-stretch="normal" font-style="normal" font-variant="normal" font-weight="normal" letter-spacing="normal" overflow="visible" text-anchor="start" text-decoration="none" visibility="visible" word-spacing="normal" writing-mode="lr-tb" style="line-height:normal;-inkscape-font-specification:'Andale Mono';text-indent:0;text-align:start;text-decoration-line:none;text-transform:none;block-progression:tb;marker:none"/></g></g></g></g></svg>