<svg xmlns="http://www.w3.org/2000/svg" xmlns:svg="http://www.w3.org/2000/svg" id="svg11300" width="16" height="16" display="inline" enable-background="new" version="1.0"><metadata id="metadata4"/><g id="layer1" display="inline" transform="translate(0,-284)"><rect id="rect3769" width="16" height="16" x="0" y="284" fill="#d64937" fill-opacity="1" stroke="none" rx="2" ry="2"/><path id="rect6879" fill="#000" fill-opacity="1" stroke="none" d="m 2,284 c -1.108,0 -2,0.892 -2,2 l 0,12 c 0,1.108 0.892,2 2,2 l 12,0 c 1.108,0 2,-0.892 2,-2 l 0,-12 c 0,-1.108 -0.892,-2 -2,-2 l -12,0 z m 0,1 12,0 c 0.554,0 1,0.446 1,1 l 0,12 c 0,0.554 -0.446,1 -1,1 l -12,0 c -0.554,0 -1,-0.446 -1,-1 l 0,-12 c 0,-0.554 0.446,-1 1,-1 z" opacity=".1"/><rect id="rect4274" width="16" height="16" x="0" y="284" fill="#fff" fill-opacity="1" stroke="none" opacity=".08" rx="2" ry="2"/><path id="path4703-0" fill="#fff" fill-opacity="1" stroke="none" d="m 2,293.63636 c 0,0 1.52513,0.31952 3.2045,1.28376 C 8.20451,290.55649 13,287 14,287 c 0,0 -6,6.63636 -8,11 l -1,0 z" display="inline" enable-background="new"/></g></svg>