<svg xmlns="http://www.w3.org/2000/svg" xmlns:svg="http://www.w3.org/2000/svg" id="svg11300" width="16" height="16" display="inline" enable-background="new" version="1.0"><metadata id="metadata4"/><g id="layer1" display="inline" transform="translate(0,-284)"><rect id="rect3769" width="16" height="16" x="0" y="284" fill="#d64937" fill-opacity="1" stroke="none" rx="2" ry="2"/><path id="path4703-0" fill="#fff" fill-opacity="1" stroke="none" d="m 2,293.63636 c 0,0 1.52513,0.31952 3.2045,1.28376 C 8.20451,290.55649 13,287 14,287 c 0,0 -6,6.63636 -8,11 l -1,0 z" display="inline" enable-background="new"/><path id="rect6879" fill="#000" fill-opacity="1" stroke="none" d="M 2 0 C 0.892 0 -5.1014965e-18 0.892 0 2 L 0 14 C 0 15.108 0.892 16 2 16 L 14 16 C 15.108 16 16 15.108 16 14 L 16 2 C 16 0.892 15.108 -5.1014965e-18 14 0 L 2 0 z M 2 1 L 14 1 C 14.554 1 15 1.446 15 2 L 15 14 C 15 14.554 14.554 15 14 15 L 2 15 C 1.446 15 1 14.554 1 14 L 1 2 C 1 1.446 1.446 1 2 1 z" opacity=".1" transform="translate(0,284)"/></g></svg>