<svg xmlns="http://www.w3.org/2000/svg" xmlns:svg="http://www.w3.org/2000/svg" id="svg11300" width="20" height="20" display="inline" enable-background="new" version="1.0"><defs id="defs3"><linearGradient id="linearGradient4006-3-3"><stop id="stop4008-3-1" offset="0" stop-color="#fff" stop-opacity="1"/><stop id="stop4010-8-5" offset="1" stop-color="#fff" stop-opacity="0"/></linearGradient><linearGradient id="linearGradient3811-3"><stop id="stop3813-3" offset="0" stop-color="#fff" stop-opacity="1"/><stop id="stop3815-9" offset="1" stop-color="#fff" stop-opacity="0"/></linearGradient></defs><metadata id="metadata4"/><g id="layer1" display="inline" transform="translate(0,-280)"><path id="path4177" fill="#d64937" fill-opacity="1" fill-rule="nonzero" stroke="none" stroke-dasharray="none" stroke-dashoffset="0" stroke-linecap="butt" stroke-linejoin="miter" stroke-miterlimit="4" stroke-opacity="1" stroke-width="2" d="m 12,284 a 8.0000004,8.0000004 0 0 0 -8,8 8.0000004,8.0000004 0 0 0 8,8 8.0000004,8.0000004 0 0 0 8,-8 8.0000004,8.0000004 0 0 0 -8,-8 z m -4,4 1.5019531,0 L 12,290.49805 14.498047,288 16,288 16,289.50195 13.501953,292 16,294.49805 16,296 14.498047,296 12,293.50195 9.5019531,296 8,296 8,294.49805 10.498047,292 8,289.50195 8,288 Z" opacity="1"/></g></svg>