<svg xmlns="http://www.w3.org/2000/svg" xmlns:svg="http://www.w3.org/2000/svg" id="svg11300" width="24" height="24" display="inline" enable-background="new" version="1.0"><defs id="defs3"><linearGradient id="linearGradient3815"><stop id="stop3817" offset="0" stop-color="#000" stop-opacity="1"/><stop id="stop3819" offset="1" stop-color="#525252" stop-opacity="0"/></linearGradient></defs><metadata id="metadata4"/><g id="layer1" display="inline" transform="translate(0,-276)"><rect id="rect2999" width="22" height="22" x="1" y="1" fill="#000" fill-opacity="1" stroke="none" opacity=".5" rx="3" ry="3" transform="translate(0,276)"/><rect id="rect3769" width="20" height="20" x="2" y="278" fill="#232323" fill-opacity="1" stroke="none" rx="2" ry="2"/><path id="rect4772" fill="#000" fill-opacity="1" stroke="none" d="M 4 2 C 2.892 2 2 2.892 2 4 L 2 20 C 2 21.108 2.892 22 4 22 L 20 22 C 21.108 22 22 21.108 22 20 L 22 4 C 22 2.892 21.108 2 20 2 L 4 2 z M 4 3 L 20 3 C 20.554 3 21 3.446 21 4 L 21 20 C 21 20.554 20.554 21 20 21 L 4 21 C 3.446 21 3 20.554 3 20 L 3 4 C 3 3.446 3.446 3 4 3 z" opacity=".12" transform="translate(0,276)"/><path id="rect4777" fill="#000" fill-opacity="1" stroke="none" d="M 4 3 C 3.446 3 3 3.446 3 4 L 3 20 C 3 20.554 3.446 21 4 21 L 20 21 C 20.554 21 21 20.554 21 20 L 21 4 C 21 3.446 20.554 3 20 3 L 4 3 z M 5 4 L 19 4 C 19.554 4 20 4.446 20 5 L 20 19 C 20 19.554 19.554 20 19 20 L 5 20 C 4.446 20 4 19.554 4 19 L 4 5 C 4 4.446 4.446 4 5 4 z" opacity=".04" transform="translate(0,276)"/></g></svg>