<svg xmlns="http://www.w3.org/2000/svg" xmlns:svg="http://www.w3.org/2000/svg" id="svg11300" width="16" height="16" display="inline" enable-background="new" version="1.0"><metadata id="metadata4"/><g id="layer1" display="inline" transform="translate(0,-284)"><path id="path4514" fill="#000" fill-opacity="1" stroke="none" d="m 0,-6 a 4,4 0 0 1 -4,4 4,4 0 0 1 -4,-4 4,4 0 0 1 4,-4 4,4 0 0 1 4,4 z" opacity=".55" transform="matrix(2,0,0,2,16,304)"/><path id="path4306" fill="#232323" fill-opacity="1" stroke="none" d="m 0,-6 a 4,4 0 0 1 -4,4 4,4 0 0 1 -4,-4 4,4 0 0 1 4,-4 4,4 0 0 1 4,4 z" transform="matrix(1.75,0,0,1.75,15,302.5)"/></g></svg>