<svg xmlns="http://www.w3.org/2000/svg" xmlns:svg="http://www.w3.org/2000/svg" id="svg3143" width="16" height="16" version="1.1"><metadata id="metadata3148"/><g id="layer1" transform="translate(0,-1036.3622)"><rect id="rect4347" width="12" height="12" x="2" y="1039.362" fill="#000" fill-opacity="1" stroke="none" ry="1.195"/><rect id="rect4345" width="12" height="12" x="3" y="1038.362" fill="#000" fill-opacity="1" stroke="none" ry="1.195"/><rect id="rect3049" width="12" height="12" x="1" y="1038.362" fill="#000" fill-opacity="1" stroke="none" ry="1.195"/><path id="rect11749-5-0-1-8-3" fill="#fff" fill-opacity="1" stroke="none" stroke-width="2" d="m 3.18766,1038.3622 c -0.6627,0 -1.1875,0.549 -1.1875,1.2188 l 0,9.5625 c 0,0.6697 0.5248,1.2187 1.1875,1.2187 l 9.625,0 c 0.6627,0 1.1875,-0.549 1.1875,-1.2187 l 0,-9.5625 c 0,-0.6698 -0.5248,-1.2188 -1.1875,-1.2188 l -9.625,0 z m 3.8125,3 2,0 0,2 2,0 0,2 -2,0 0,2 -2,0 0,-2 -2,0 0,-2 2,0 0,-2 z" color="#bebebe" display="inline" overflow="visible" visibility="visible" style="marker:none"/></g></svg>